<svg width="504" height="538" viewBox="0 0 504 538" fill="none" xmlns="http://www.w3.org/2000/svg">
<g clip-path="url(#clip0_425_9301)">
<path d="M186.634 523.972C184.584 525.049 183.414 526.203 183.141 527.436C182.97 528.099 183.071 528.762 183.445 529.426C183.765 530.042 184.272 530.58 184.95 531.041C185.894 531.657 187.406 532.227 189.488 532.749C199.148 535.168 210.367 536.728 223.153 537.446C230.95 537.891 242.528 538.07 257.879 537.992C266.627 537.961 273.262 537.789 277.791 537.469C285.159 536.947 291.677 535.917 297.353 534.364C299.684 533.732 301.579 532.937 303.037 531.969C304.884 530.768 305.859 529.418 305.96 527.92C306.046 526.64 305.446 525.454 304.175 524.362C303.138 523.465 301.75 522.685 300.012 522.037C297.501 521.085 294.835 520.446 292.012 520.118C290.679 519.962 289.151 519.86 287.42 519.814C286.563 519.782 285.019 519.759 282.781 519.743C274.33 519.712 261.637 519.478 244.711 519.033C229.593 518.799 216.885 519.01 206.586 519.673C202.352 519.954 198.914 520.344 196.263 520.836C192.505 521.53 189.293 522.583 186.626 523.988L186.634 523.972Z" fill="black" fill-opacity="0.2"/>
<path d="M248.936 478.065L251.049 490.041L285.829 490.338L291.489 479.165C291.731 475.811 284.41 473.985 269.542 473.688C254.565 473.369 247.696 474.827 248.944 478.057L248.936 478.065Z" fill="#106651"/>
<path d="M203.397 450.228L190.275 451.913L188.802 486.749L200.785 492.819C204.434 493.178 206.664 485.914 207.474 471.02C208.317 456.025 206.96 449.089 203.397 450.228Z" fill="#106651"/>
<path d="M239.728 451.211C239.4 450.626 238.87 450.212 238.16 449.986C237.95 449.916 237.747 449.869 237.552 449.83C236.773 451.343 235.97 452.826 235.143 454.269C227.292 467.969 219.644 474.82 212.198 474.82C210.257 474.82 206.756 474.078 201.68 472.604C196.582 471.098 193.806 470.349 193.346 470.349C192.582 470.349 191.865 470.95 191.202 472.151C190.796 472.869 190.134 474.18 189.214 476.091C187.046 479.891 183.717 481.795 179.234 481.795C178.034 481.795 177.262 481.709 176.903 481.529C176.17 481.178 175.328 480.453 174.377 479.345C174.471 479.68 174.572 480 174.681 480.304C175.219 481.81 176.092 483.113 177.316 484.205C178.338 485.126 179.476 485.774 180.723 486.156C181.238 486.522 181.784 486.803 182.368 486.998C183.413 487.381 184.419 487.435 185.386 487.154C186.126 486.952 186.828 486.546 187.491 485.93C188.543 485.524 189.487 484.954 190.321 484.205C191.366 483.316 192.473 481.834 193.65 479.766C194.219 478.728 194.703 477.722 195.1 476.747C195.381 476.895 195.662 477.035 195.942 477.168C197.19 477.753 198.718 478.237 200.534 478.619C200.636 478.643 202.226 478.916 205.314 479.423C207.076 479.758 208.385 480 209.251 480.148C210.779 480.375 212.104 480.492 213.227 480.492C215.137 480.546 216.985 480.25 218.77 479.61C223.714 477.948 228.282 473.844 232.461 467.291C233.249 466.066 234.153 464.56 235.174 462.773L238.691 456.727C240.094 454.355 240.437 452.514 239.72 451.219M227.978 434.686C227.456 434.71 226.583 434.819 225.343 435.03C225.686 436.286 225.553 438.033 224.961 440.272L224.314 442.839C224.415 443.019 224.493 443.206 224.54 443.417C224.633 443.768 224.649 444.173 224.579 444.642C224.906 443.783 225.125 443.245 225.226 443.034C225.764 441.965 226.411 441.209 227.175 440.78C228.173 440.194 229.389 440.077 230.847 440.436C231.721 440.647 232.508 440.967 233.217 441.396C233.163 441.107 233.101 440.787 233.023 440.436C232.516 438.111 232.867 436.559 234.091 435.771C234.145 435.669 234.106 435.576 233.974 435.505C233.849 435.451 233.716 435.451 233.592 435.505C233.467 435.786 233.334 435.989 233.21 436.114C232.851 436.473 232.243 436.309 231.377 435.615C230.489 434.952 229.35 434.647 227.97 434.694L227.978 434.686Z" fill="#EFB207"/>
<path d="M223.776 432.767C222.958 432.182 222.131 432.018 221.289 432.268C220.424 433.454 219.652 434.702 218.997 436.02C218.381 437.237 217.859 438.517 217.43 439.843C217.126 440.811 216.627 442.753 215.941 445.664C215.793 446.303 215.621 446.943 215.442 447.575C215.145 448.792 214.81 449.994 214.444 451.172C214.046 451.827 213.664 452.42 213.298 452.935C211.052 456.025 208.464 457.874 205.532 458.482C204.184 458.763 202.546 458.747 200.636 458.443C199.568 458.264 197.931 457.944 195.74 457.484C192.302 456.875 189.261 456.961 186.641 457.749C183.554 458.693 180.903 460.604 178.689 463.491C176.646 466.144 175.258 469.194 174.518 472.635C173.972 475.21 173.925 477.441 174.362 479.329C175.313 480.429 176.155 481.163 176.888 481.514C177.246 481.693 178.026 481.779 179.219 481.779C183.71 481.779 187.031 479.875 189.199 476.076C190.119 474.164 190.781 472.846 191.187 472.136C191.849 470.934 192.567 470.333 193.331 470.333C193.791 470.333 196.566 471.082 201.665 472.588C206.741 474.071 210.241 474.804 212.183 474.804C219.628 474.804 227.277 467.954 235.128 454.254C235.954 452.81 236.758 451.328 237.537 449.814C237.436 449.814 237.334 449.814 237.233 449.814C237.35 447.598 236.898 445.671 235.892 444.033C235.183 442.894 234.294 442.004 233.218 441.357C232.508 440.936 231.721 440.616 230.848 440.397C229.398 440.038 228.174 440.155 227.176 440.741C226.411 441.177 225.764 441.926 225.226 442.995C225.117 443.206 224.907 443.744 224.579 444.603C224.649 444.134 224.634 443.729 224.54 443.378C224.494 443.175 224.416 442.98 224.314 442.8L224.961 440.233C225.554 437.994 225.686 436.247 225.343 434.991C225.351 434.975 225.351 434.944 225.343 434.913C225.086 434.023 224.564 433.29 223.776 432.728V432.767Z" fill="#FFC421"/>
<path d="M185.246 408.519C184.303 407.614 183.087 407.153 181.598 407.122C180.202 407.099 178.939 407.434 177.816 408.128C175.618 409.494 174.238 411.694 173.669 414.721C173.669 414.76 173.661 414.815 173.63 414.885C173.037 418.357 173.801 422.453 175.93 427.189C178.105 432.229 180.763 436.372 183.898 439.625C188.225 444.119 193.924 447.489 200.98 449.729C204.925 450.946 209.517 451.827 214.756 452.389C215.014 452.412 219.271 452.498 227.527 452.646L229.39 441.77C225.983 441.599 225.999 441.443 229.422 441.302C224.845 441.349 221.89 441.373 220.573 441.38C220.339 441.38 220.113 441.396 219.894 441.419C218.39 441.443 216.885 441.396 215.372 441.279C214.733 441.217 214.117 441.146 213.532 441.061C209.307 440.507 205.291 439.344 201.463 437.573C198.633 436.247 196.31 434.733 194.509 433.025C192.411 431.082 190.657 428.609 189.246 425.613C188.373 423.818 187.835 422.219 187.624 420.83C187.492 420.026 187.429 418.926 187.453 417.53C187.484 415.876 187.484 414.823 187.453 414.378C187.351 411.725 186.611 409.767 185.231 408.511L185.246 408.519Z" fill="#EFB207"/>
<path d="M352.404 331.576C330.831 344.55 308.525 353.608 285.51 358.742L292.472 376.765C315.121 374.479 337.715 366.185 360.255 351.892C361.838 342.74 359.218 335.96 352.404 331.576Z" fill="#EFB207"/>
<path d="M285.986 358.43C283.873 359.296 282.399 360.911 281.573 363.283C280.762 365.647 280.824 368.058 281.776 370.515C282.727 372.973 284.294 374.791 286.477 375.985C288.699 377.209 290.874 377.42 293.01 376.624C295.201 375.829 296.729 374.229 297.603 371.834C298.484 369.447 298.429 366.981 297.447 364.445C296.464 361.91 294.85 360.053 292.597 358.875C290.344 357.689 288.138 357.541 285.978 358.422L285.986 358.43Z" fill="#EFB207"/>
<path d="M356.076 334.337C355.008 336.818 354.969 339.315 355.936 341.835C356.895 344.316 358.602 346.126 361.074 347.273C363.529 348.404 366.009 348.514 368.511 347.609C371.053 346.665 372.901 344.94 374.031 342.413C375.131 339.877 375.185 337.326 374.203 334.767C373.189 332.145 371.427 330.28 368.917 329.165C366.391 328.088 363.873 328.057 361.354 329.079C358.891 330.078 357.128 331.825 356.076 334.337Z" fill="#EFB207"/>
<path d="M344.67 337.887C343.384 340.899 343.321 343.918 344.498 346.953C345.66 349.957 347.734 352.149 350.712 353.523C353.683 354.903 356.669 355.036 359.686 353.928C362.766 352.797 364.988 350.706 366.368 347.663C367.709 344.589 367.779 341.507 366.578 338.41C365.354 335.25 363.226 332.996 360.177 331.646C357.129 330.358 354.08 330.327 351.04 331.544C348.069 332.754 345.949 334.868 344.678 337.887H344.67Z" fill="#EFB207"/>
<path d="M358.376 324.14C356.333 323.243 354.291 323.235 352.248 324.094C350.229 324.936 348.794 326.395 347.944 328.486C347.095 330.53 347.071 332.598 347.882 334.689C348.685 336.772 350.081 338.262 352.069 339.159C354.08 340.095 356.115 340.166 358.15 339.378C360.208 338.551 361.682 337.099 362.578 335.024C363.452 332.925 363.475 330.811 362.649 328.681C361.822 326.536 360.395 325.022 358.368 324.133L358.376 324.14Z" fill="#EFB207"/>
<path d="M366.446 342.74C364.403 341.843 362.36 341.835 360.317 342.693C358.298 343.536 356.864 344.995 356.014 347.086C355.164 349.13 355.141 351.198 355.951 353.288C356.754 355.372 358.15 356.862 360.138 357.759C362.15 358.695 364.185 358.765 366.219 357.977C368.278 357.15 369.751 355.699 370.648 353.624C371.521 351.525 371.544 349.411 370.718 347.281C369.892 345.135 368.465 343.622 366.438 342.732L366.446 342.74Z" fill="#EFB207"/>
<path d="M286.804 511.06C287.817 510.49 288.651 509.757 289.33 508.875C289.447 508.103 289.493 507.307 289.486 506.503C289.431 504.998 289.143 503.874 288.605 503.133C287.965 502.244 286.601 501.549 284.512 501.065C282.321 500.558 280.878 499.926 280.192 499.193C279.53 498.475 279.124 497.523 278.968 496.322C278.867 495.479 278.89 494.356 279.046 492.951C280.114 483.589 281.853 473.142 284.246 461.611C285.626 454.956 287.817 445.297 290.827 432.642C278.867 428.585 270.22 432.463 264.903 444.275C259.446 476.466 258.128 496.954 260.966 505.731C264.35 512.394 272.973 514.165 286.819 511.052L286.804 511.06Z" fill="#EFB207"/>
<path d="M228.408 362.393C227.028 363.665 225.773 365.046 224.619 366.528C222.951 368.76 221.516 371.42 220.3 374.525C222.257 375.157 224.284 375.774 226.381 376.359C242.083 380.821 256.156 383.053 268.599 383.053C277.09 383.053 284.816 382.163 291.771 380.377C294.718 379.62 297.252 378.785 299.38 377.849C298.717 373.854 297.891 369.875 296.893 365.912C296.355 363.766 295.825 362.034 295.287 360.708C294.523 358.843 293.595 357.299 292.496 356.081C290.586 353.936 287.919 352.422 284.504 351.525C282.111 350.917 278.906 350.526 274.907 350.378C266.876 350.043 260.234 350.214 254.987 350.878C247.775 351.767 241.553 353.671 236.322 356.581C233.39 358.211 230.755 360.154 228.408 362.401V362.393Z" fill="#EFB207"/>
<path d="M220.3 374.525C219.98 375.376 219.676 376.257 219.38 377.162C218.538 379.714 217.571 383.615 216.472 388.873L213.143 404.906C211.482 412.942 210.515 419.153 210.235 423.545C209.829 430.481 210.601 436.543 212.566 441.724C213.579 444.353 214.905 446.826 216.542 449.151C217.696 450.751 218.998 452.288 220.44 453.747C221.508 454.831 222.631 455.853 223.808 456.805C226.389 458.88 229.219 460.628 232.299 462.048C236.556 464.014 241.187 465.325 246.177 465.988C250.839 466.628 255.673 466.674 260.67 466.144C266.455 465.535 271.757 464.17 276.575 462.048C281.9 459.723 286.274 456.602 289.689 452.67C293.385 448.433 296.152 443.05 297.985 436.52C299.365 431.62 300.331 425.488 300.893 418.115C301.298 412.81 301.501 407.832 301.501 403.19C301.501 394.678 300.784 386.228 299.357 377.857C297.228 378.785 294.695 379.628 291.747 380.385C284.785 382.171 277.067 383.061 268.576 383.061C256.133 383.061 242.06 380.829 226.358 376.367C224.26 375.774 222.233 375.165 220.276 374.533L220.3 374.525Z" fill="#FFC421"/>
<path d="M271.99 190.032C277.019 182.464 281.705 176.363 286.048 171.729C291.326 166.104 296.284 162.304 300.923 160.338C304.167 158.957 307.293 158.466 310.31 158.863C312.657 159.144 314.942 159.956 317.156 161.29C317.772 161.664 318.388 162.086 319.004 162.546C323.027 165.589 326.917 170.465 330.675 177.183C333.809 182.769 336.959 189.814 340.14 198.318C343.313 206.822 346.346 224.189 349.239 250.427C352.131 276.665 346.892 292.316 333.521 297.387L247.455 311.47C244.398 282.298 246.472 256.661 253.668 234.558C260.849 212.455 266.962 197.616 271.998 190.032H271.99Z" fill="#FFC421"/>
<path d="M200.551 200.963C192.957 195.985 186.244 192.217 180.436 189.673C173.372 186.576 167.322 185.039 162.278 185.063C158.754 185.07 155.682 185.851 153.07 187.403C151.027 188.589 149.242 190.227 147.729 192.334C147.316 192.919 146.911 193.551 146.521 194.214C144.018 198.591 142.357 204.606 141.547 212.268C140.86 218.634 140.736 226.351 141.157 235.424C141.578 244.49 145.624 261.654 153.28 286.917C160.937 312.18 171.906 324.507 186.197 323.898L270.86 302.958C262.198 274.941 250.215 252.183 234.91 234.691C219.613 217.199 208.168 205.964 200.551 200.979V200.963Z" fill="#FFC421"/>
<path d="M146.466 277.75C144.548 283.75 143.41 287.604 143.059 289.32C142.864 289.999 142.7 290.717 142.583 291.458C142.396 292.316 142.256 293.174 142.162 294.041C141.999 295.086 141.905 296.139 141.882 297.2C141.671 298.8 141.593 300.399 141.648 301.991C141.64 302.131 141.632 302.264 141.648 302.404C141.648 302.49 141.663 302.584 141.702 302.685C141.983 313.046 145.016 323.438 150.816 333.87C151.549 335.18 152.313 336.46 153.101 337.692C153.382 338.145 153.67 338.597 153.974 339.034C154.114 339.245 155.058 340.486 156.82 342.74C158.551 345.003 161.872 348.592 166.784 353.499C167.103 353.757 167.423 354.022 167.751 354.295C167.906 354.428 168.047 354.553 168.187 354.67L171.384 357.182C172.475 357.993 173.59 358.789 174.728 359.554C174.752 359.554 174.791 359.577 174.845 359.639C174.877 359.663 174.923 359.686 174.978 359.702C185.246 366.49 197.72 370.898 212.409 372.926C227.051 374.931 239.315 375.47 249.201 374.541C249.552 374.494 249.895 374.463 250.238 374.448C250.441 374.432 250.628 374.424 250.807 374.416C262.814 374.042 273.901 373.074 284.075 371.506C285.977 371.218 287.872 370.898 289.751 370.554C294.047 369.743 298.179 368.846 302.147 367.863C303.465 367.488 304.798 367.114 306.139 366.747C306.716 366.591 307.317 366.419 307.917 366.248C308.221 366.154 308.525 366.06 308.845 365.959C309.991 365.6 311.113 365.241 312.228 364.882C324.391 360.794 334.589 355.419 342.814 348.74C278.048 375.009 224.135 376.265 181.075 352.493C156.243 336.249 144.704 311.337 146.466 277.773V277.75Z" fill="#EFB207"/>
<path d="M192.185 223.792C189.433 225.305 186.805 226.881 184.318 228.535C171.805 236.719 162.145 246.464 155.346 257.785C154.972 258.354 154.621 258.932 154.302 259.525C152.813 262.13 151.472 264.83 150.279 267.623C150.092 267.88 149.982 268.153 149.936 268.45C149.834 268.629 149.756 268.793 149.694 268.957C148.61 271.454 147.534 274.387 146.458 277.75C144.696 311.314 156.227 336.226 181.067 352.469C224.128 376.242 278.041 374.986 342.807 348.717C345.598 346.438 348.163 343.996 350.502 341.406C363.896 326.575 369.416 310.003 367.077 291.708C363.608 263.769 353.153 242.157 335.72 226.881C328.305 220.382 318.045 215.046 304.931 210.856C289.104 205.792 270.299 204.716 248.515 207.634C227.94 208.991 209.174 214.382 192.193 223.792H192.185Z" fill="#FFC421"/>
<path d="M267.664 315.979C266.401 316.237 265.169 316.58 263.976 316.994C258.409 318.921 253.677 322.44 249.786 327.565C245.21 333.643 243.066 340.173 243.339 347.164C243.409 348.982 243.588 350.667 243.892 352.22C244.719 356.347 246.41 359.507 248.968 361.722C252.133 364.484 255.603 366.068 259.36 366.482C263.142 366.895 266.603 366.794 269.761 366.193C272.926 365.584 276.31 364.398 279.912 362.635C283.53 360.88 286.609 357.829 289.143 353.491C291.739 349.044 293.057 343.466 293.104 336.756C293.104 335.921 293.073 335.102 293.01 334.306C292.527 328.439 290.149 323.696 285.884 320.076C282.914 317.571 279.538 316.073 275.757 315.589C273.231 315.254 270.533 315.387 267.672 315.979H267.664Z" fill="#684E3A"/>
<path d="M271.873 296.389C269.542 296.022 267.071 296.014 264.467 296.358C261.847 296.701 259.103 297.395 256.234 298.441C250.511 300.461 245.139 305.08 240.11 312.297C235.12 319.49 233.125 325.537 234.123 330.444C235.128 335.391 238.941 338.839 245.568 340.798C252.304 342.771 259.843 340.439 268.17 333.807C279.686 337.505 288.184 337.271 293.665 333.105C298.101 329.719 300.042 326.099 299.481 322.244C299.333 321.332 299.06 320.419 298.647 319.498C296.479 314.638 292.628 309.738 287.1 304.784C281.658 299.876 276.583 297.075 271.873 296.381V296.389Z" fill="#FFC421"/>
<path d="M264.412 313.35C264.194 313.678 264.155 314.325 264.279 315.293L266.08 330.468C265.8 331.022 265.519 331.529 265.254 331.989C262.728 335.867 259.001 338.387 254.089 339.549C252.086 340.002 249.443 339.924 246.168 339.315C242.886 338.722 239.759 336.225 236.797 331.825C235.916 333.167 235.799 334.751 236.438 336.569C237.085 338.402 238.371 339.994 240.282 341.359C242.207 342.717 244.305 343.708 246.573 344.332C249.474 345.003 252.218 345.167 254.799 344.831C260.155 344.113 264.919 341.25 269.09 336.249C275.265 339.674 280.566 341.07 284.995 340.439C289.439 339.807 292.074 339.081 292.908 338.254C294.935 337.068 296.456 335.406 297.485 333.261C298.506 331.115 298.997 329.36 298.943 327.979C298.904 326.613 298.366 325.17 297.329 323.656C295.77 329.079 293.532 332.512 290.624 333.955C288.55 334.946 286.468 335.476 284.395 335.554C279.358 335.711 275.117 334.236 271.678 331.131C271.304 330.772 270.914 330.358 270.493 329.89L268.7 316.05C268.326 314.224 268.053 313.171 267.874 312.898C266.244 310.011 265.09 310.159 264.404 313.35H264.412Z" fill="#684E3A"/>
<path d="M257.006 312.336C256.156 312.999 255.509 313.678 255.057 314.38C256.725 319.974 260.99 322.954 267.859 323.329C273.885 322.377 277.402 318.788 278.423 312.562C277.425 311.485 276.201 310.635 274.766 310.003C272.17 308.864 269.114 308.529 265.59 308.989C262.066 309.449 259.204 310.565 257.006 312.328V312.336Z" fill="#684E3A"/>
<path d="M206.344 250.474C196.091 251.824 187.851 256.684 181.621 265.064C175.407 273.443 172.99 282.891 174.37 293.408C175.75 303.91 180.522 312.414 188.685 318.921C196.863 325.396 206.079 327.963 216.331 326.621C226.529 325.279 234.731 320.427 240.937 312.063C247.206 303.66 249.646 294.212 248.274 283.71C246.894 273.193 242.099 264.697 233.881 258.206C225.734 251.715 216.557 249.132 206.36 250.474H206.344Z" fill="white"/>
<path d="M303.925 237.663C293.673 239.013 285.432 243.874 279.202 252.253C272.988 260.632 270.571 270.08 271.951 280.598C273.331 291.099 278.103 299.603 286.266 306.11C294.444 312.586 303.66 315.152 313.912 313.81C324.11 312.469 332.312 307.616 338.518 299.252C344.787 290.849 347.227 281.401 345.855 270.9C344.475 260.383 339.68 251.886 331.462 245.395C323.315 238.904 314.138 236.321 303.933 237.663H303.925Z" fill="white"/>
<path d="M223.644 263.878C221.017 261.873 218.077 261.077 214.826 261.506C211.575 261.935 208.948 263.457 206.936 266.07C204.925 268.676 204.137 271.602 204.558 274.855C204.987 278.14 206.507 280.785 209.127 282.79C211.747 284.811 214.678 285.614 217.929 285.185C221.18 284.756 223.816 283.227 225.835 280.598C227.846 277.984 228.634 275.035 228.205 271.75C227.776 268.497 226.256 265.867 223.644 263.878Z" fill="#413535"/>
<path d="M312.33 249.983C309.702 247.978 306.763 247.182 303.512 247.611C300.261 248.04 297.633 249.561 295.622 252.175C293.61 254.781 292.823 257.707 293.244 260.96C293.673 264.245 295.193 266.89 297.813 268.895C300.432 270.915 303.364 271.719 306.615 271.29C309.866 270.861 312.501 269.332 314.52 266.702C316.532 264.089 317.319 261.139 316.891 257.855C316.462 254.601 314.942 251.972 312.33 249.983Z" fill="#413535"/>
<path d="M142.03 356.128C162.941 374.174 187.281 386.673 215.029 393.64L225.071 373.893C198.485 367.426 174.105 354.474 151.947 335.047C142.927 340.712 139.621 347.741 142.022 356.136L142.03 356.128Z" fill="#EFB207"/>
<path d="M214.398 393.468C216.752 394.615 219.255 394.631 221.921 393.523C224.564 392.407 226.568 390.504 227.932 387.812C229.305 385.12 229.656 382.39 228.993 379.604C228.338 376.772 226.849 374.751 224.533 373.534C222.171 372.278 219.637 372.192 216.932 373.277C214.226 374.354 212.16 376.281 210.749 379.066C209.338 381.843 208.995 384.652 209.72 387.476C210.437 390.309 211.996 392.314 214.405 393.476L214.398 393.468Z" fill="#EFB207"/>
<path d="M126.741 326.887C124.316 329.009 122.999 331.638 122.78 334.782C122.609 337.926 123.568 340.657 125.649 342.974C127.692 345.237 130.265 346.454 133.376 346.602C136.463 346.781 139.176 345.845 141.508 343.809C143.8 341.804 145.086 339.245 145.351 336.14C145.609 333.042 144.751 330.327 142.794 327.987C140.782 325.607 138.194 324.304 135.036 324.07C131.871 323.875 129.103 324.819 126.741 326.887Z" fill="#EFB207"/>
<path d="M133.648 333.69C130.725 336.249 129.134 339.432 128.869 343.239C128.682 347.031 129.836 350.331 132.346 353.132C134.81 355.863 137.921 357.322 141.671 357.509C145.413 357.72 148.696 356.596 151.503 354.147C154.286 351.712 155.83 348.623 156.142 344.87C156.461 341.133 155.44 337.848 153.062 335.04C150.637 332.168 147.519 330.585 143.698 330.288C139.862 330.054 136.518 331.185 133.648 333.69Z" fill="#EFB207"/>
<path d="M140.151 349.029C140.369 346.493 139.652 344.277 137.999 342.381C136.307 340.485 134.163 339.463 131.575 339.307C128.978 339.19 126.686 339.986 124.714 341.718C122.726 343.45 121.658 345.588 121.494 348.116C121.33 350.667 122.118 352.875 123.848 354.74C125.548 356.589 127.684 357.564 130.265 357.658C132.799 357.775 135.036 356.987 136.97 355.294C138.896 353.608 139.956 351.517 140.143 349.029H140.151Z" fill="#EFB207"/>
<path d="M157.007 333.034C157.226 330.499 156.508 328.283 154.856 326.387C153.164 324.491 151.02 323.469 148.431 323.313C145.835 323.196 143.543 323.992 141.57 325.724C139.582 327.456 138.514 329.594 138.35 332.122C138.187 334.673 138.974 336.881 140.705 338.746C142.404 340.595 144.541 341.57 147.121 341.663C149.655 341.781 151.893 340.993 153.826 339.299C155.752 337.614 156.812 335.523 157 333.034H157.007Z" fill="#FFD154"/>
<path d="M135.84 332.91C133.439 335.008 132.292 337.801 132.402 341.297C132.565 344.776 133.899 347.928 136.393 350.737C138.849 353.476 141.773 355.098 145.165 355.598C148.54 356.128 151.386 355.387 153.694 353.374C155.978 351.377 157.093 348.67 157.031 345.237C156.992 341.812 155.783 338.691 153.398 335.89C150.965 333.027 148.01 331.295 144.549 330.686C141.095 330.116 138.194 330.858 135.84 332.917V332.91Z" fill="#FFD154"/>
<path d="M127.942 325.841C125.907 327.62 124.917 329.961 124.963 332.878C125.057 335.796 126.141 338.41 128.222 340.727C130.265 342.99 132.698 344.324 135.536 344.714C138.358 345.12 140.752 344.472 142.701 342.764C144.626 341.078 145.593 338.8 145.601 335.921C145.585 333.066 144.595 330.468 142.638 328.127C140.619 325.763 138.155 324.343 135.255 323.883C132.362 323.454 129.922 324.101 127.942 325.841Z" fill="#FFD154"/>
<path d="M134.436 338.41C132.19 338.41 130.179 339.175 128.401 340.72C126.616 342.28 125.61 344.145 125.368 346.329C125.135 348.506 125.719 350.363 127.138 351.892C128.534 353.398 130.35 354.139 132.58 354.123C134.755 354.116 136.712 353.343 138.459 351.814C140.182 350.308 141.188 348.49 141.461 346.36C141.741 344.184 141.211 342.327 139.854 340.774C138.459 339.222 136.65 338.434 134.428 338.41H134.436Z" fill="#FFD154"/>
<path d="M227.519 388.561C224.806 388.811 221.913 388.725 218.849 388.319C214.811 387.765 210.063 386.564 204.605 384.715C192.162 380.509 180.241 375.056 168.835 368.37C158.925 362.549 149.624 355.925 140.946 348.482C142.342 343.239 146.006 338.745 151.939 335.016C172.663 353.21 195.335 365.709 219.941 372.536C221.539 372.427 223.067 372.754 224.541 373.519C226.856 374.752 228.346 376.772 229 379.589C229.655 382.382 229.297 385.128 227.925 387.82C227.792 388.077 227.659 388.327 227.519 388.569V388.561Z" fill="#FFD154"/>
<path d="M304.798 520.703C305.477 518.479 305.975 516.435 306.303 514.571C307.761 506.012 305.422 500.831 299.278 499.013C296.542 498.171 293.057 497.726 288.807 497.672C289.049 492.741 289.837 487.716 291.162 482.598C292.433 477.48 292.105 476.208 290.187 478.783C288.293 481.303 282.96 482.778 274.197 483.207C265.457 483.612 257.146 481.841 249.271 477.886C248.133 475.935 247.782 476.177 248.219 478.619C249.544 491.672 249.934 500.176 249.396 504.124C248.827 508.157 248.655 511.325 248.866 513.627C249.107 515.928 249.809 518.05 250.979 520.001C254.089 520.703 257.091 521.327 259.991 521.865C261.831 522.193 263.648 522.49 265.433 522.763C267.195 523.036 268.911 523.262 270.587 523.457C275.109 523.941 278.867 524.19 281.869 524.19C282.734 524.19 283.545 524.167 284.301 524.112C290.336 523.675 294.327 523.317 296.277 523.012C298.249 522.716 301.095 521.943 304.798 520.695V520.703Z" fill="#208F74"/>
<path d="M303.418 525.454L304.798 520.742V520.703C301.087 521.951 298.249 522.724 296.277 523.02C294.327 523.317 290.336 523.683 284.301 524.12C283.545 524.175 282.734 524.198 281.869 524.198C278.867 524.198 275.101 523.956 270.587 523.465C268.911 523.278 267.188 523.044 265.433 522.771C263.648 522.498 261.831 522.201 259.991 521.873C257.099 521.335 254.089 520.711 250.979 520.009C250.76 519.767 251.088 520.742 251.953 522.934C252.741 524.83 255.563 526.289 260.436 527.319C261.223 527.452 262.05 527.6 262.915 527.764C263.913 527.928 264.919 528.092 265.917 528.248C271.164 528.981 276.091 529.355 280.691 529.387H282.274C287.116 529.309 291.505 528.903 295.427 528.17C299.73 527.358 302.397 526.453 303.426 525.447L303.418 525.454Z" fill="#0D5644"/>
<path d="M153.281 497.679L157.756 499.645H157.795C156.781 495.885 156.189 493.029 156.002 491.071C155.815 489.144 155.666 485.22 155.557 479.306C155.542 478.564 155.557 477.769 155.604 476.934C155.76 474.016 156.189 470.404 156.89 466.081C157.163 464.482 157.467 462.843 157.818 461.174C158.169 459.473 158.551 457.757 158.957 456.017C159.627 453.278 160.383 450.446 161.225 447.52C161.475 447.341 160.516 447.52 158.356 448.074C156.485 448.582 154.934 451.133 153.686 455.72C153.515 456.461 153.327 457.242 153.125 458.061L152.501 460.909C151.526 465.902 150.911 470.638 150.645 475.093C150.614 475.615 150.591 476.13 150.567 476.63C150.396 481.342 150.567 485.649 151.066 489.557C151.628 493.841 152.369 496.548 153.281 497.679Z" fill="#106651"/>
<path d="M157.787 499.653C159.892 500.605 161.842 501.362 163.627 501.931C171.806 504.49 176.928 502.914 178.994 497.196C179.945 494.652 180.553 491.328 180.826 487.209C185.566 488.106 190.377 489.534 195.242 491.508C200.115 493.427 201.362 493.279 198.977 491.071C196.645 488.894 195.492 483.527 195.53 474.96C195.585 466.425 197.729 458.599 201.947 451.484C203.888 450.641 203.67 450.267 201.292 450.36C188.631 449.908 180.405 449.151 176.624 448.098C172.757 447.006 169.716 446.413 167.479 446.319C165.249 446.249 163.159 446.647 161.218 447.513C160.376 450.438 159.62 453.27 158.949 456.009C158.544 457.749 158.162 459.473 157.811 461.166C157.46 462.836 157.148 464.474 156.883 466.074C156.181 470.396 155.753 474.008 155.597 476.926C155.55 477.769 155.534 478.557 155.55 479.298C155.659 485.212 155.807 489.136 155.994 491.063C156.181 493.021 156.782 495.877 157.787 499.645V499.653Z" fill="#25A384"/>
<path d="M279.421 3.09738C278.68 1.28732 277.885 0.249663 277.05 0C276.193 0.148237 275.281 1.07667 274.329 2.7931L250.753 37.7771L207.544 46.2734C202.243 47.2565 201.213 49.7141 204.449 53.6541L232.252 87.538L223.995 131.33C223.2 135.645 224.962 136.784 229.297 134.732L269.909 118.738L308.315 139.491C312.377 142.043 314.263 141.13 313.991 136.745L311.043 92.2738L342.705 61.971C346.385 58.4523 345.66 55.8933 340.514 54.2783L298.631 40.656L279.421 3.09738Z" fill="#FCC248"/>
<path d="M458.921 110.78C459.427 109.337 459.498 108.33 459.147 107.753C458.57 107.394 457.556 107.464 456.114 107.964L424.288 116.109L394.739 98.6636C391.145 96.4947 389.274 97.3919 389.118 101.355L387.769 135.481L360.302 156.695C357.605 158.793 358.049 160.369 361.628 161.423L393.539 173.157L405.156 205.137C406.2 208.726 407.767 209.171 409.88 206.479L431.173 179.071L465.283 177.838C469.243 177.698 470.148 175.833 467.988 172.228L450.664 142.604L458.921 110.788V110.78Z" fill="#FCC248"/>
<path d="M501.778 287.752C503.041 287.377 503.781 286.917 504 286.371C503.961 285.786 503.399 285.115 502.316 284.366L480.501 266.281L477.678 236.813C477.367 233.201 475.792 232.35 472.954 234.254L448.48 250.615L419.766 242.196C416.936 241.377 416.062 242.485 417.138 245.52L425.138 273.747L408.734 298.066C406.761 300.61 407.244 301.936 410.192 302.045L440.091 303.013L458.242 326.192C460.347 328.892 462.109 328.572 463.528 325.24L475.394 298.121L501.762 287.752H501.778Z" fill="#FCC248"/>
<path d="M79.5015 99.3579C78.1371 98.8274 77.1703 98.726 76.6012 99.0537C76.2426 99.5998 76.2737 100.567 76.7181 101.972L83.6025 132.782L66.0057 160.658C63.8149 164.044 64.6257 165.87 68.4226 166.135L101.121 168.437L120.667 195.447C122.601 198.1 124.129 197.725 125.244 194.316L137.438 163.997L168.46 153.777C171.93 152.879 172.405 151.381 169.887 149.283L144.213 128.022L144.026 95.2151C144.01 91.3999 142.24 90.4793 138.716 92.4454L109.783 108.221L79.5015 99.3579Z" fill="#FCC248"/>
<path d="M12.4896 220.21C11.476 219.781 10.7588 219.688 10.3222 219.914C10.0415 220.312 10.0415 221.045 10.3377 222.099L14.7818 245.333L0.966299 265.805C-0.748942 268.294 -0.18759 269.675 2.65035 269.964L27.0847 272.437L41.1029 293.112C42.4907 295.141 43.6446 294.899 44.5568 292.371L54.3882 269.948L77.848 263.004C80.4677 262.411 80.8575 261.303 79.0175 259.673L60.2824 243.164L60.8984 218.595C60.9763 215.74 59.6743 215.007 56.9923 216.403L34.967 227.552L12.4974 220.218L12.4896 220.21Z" fill="#FCC248"/>
</g>
<defs>
<clipPath id="clip0_425_9301">
<rect width="504" height="538" fill="white"/>
</clipPath>
</defs>
</svg>
