<svg width="591" height="724" viewBox="0 0 591 724" fill="none" xmlns="http://www.w3.org/2000/svg">
<g clip-path="url(#clip0_440_9340)">
<path d="M246.485 581.716L248.871 555.389C197.958 579.127 148.807 573.891 101.409 539.671L98.5942 570.718C141.844 600.423 191.141 604.082 246.485 581.716Z" fill="#EFB207"/>
<path d="M116.611 556.937C116.542 552.557 114.575 548.674 110.719 545.277C106.862 541.861 103.415 540.002 100.366 539.7C97.2988 539.369 94.0461 540.596 90.6181 543.389C87.1901 546.153 85.2813 549.696 84.8918 554.037C84.5022 558.377 86.2844 562.27 90.2383 565.726C94.1727 569.151 97.9708 571.03 101.642 571.361C105.314 571.692 108.742 570.465 111.936 567.682C115.111 564.869 116.669 561.287 116.62 556.947L116.611 556.937Z" fill="#EFB207"/>
<path d="M442.213 504.293C447.023 495.203 451.601 485.996 455.779 476.594C456.246 475.533 456.713 474.472 457.171 473.411C457.259 473.197 457.356 472.954 457.473 472.681C415.548 462.433 378.522 444.661 346.404 419.346L330.51 453.459C364.858 482.005 400.911 501.159 438.658 510.921C439.856 508.722 441.044 506.512 442.222 504.293H442.213Z" fill="#F0B308"/>
<path d="M331.397 454.13C327.394 452.184 324.745 448.845 323.44 444.125C322.164 439.424 322.612 434.742 324.774 430.1C326.936 425.448 330.228 422.109 334.64 420.085C339.11 417.992 343.375 417.866 347.436 419.696C351.595 421.535 354.36 424.835 355.743 429.604C357.146 434.353 356.727 439.132 354.487 443.93C352.247 448.728 348.858 452.125 344.32 454.12C339.782 456.125 335.467 456.135 331.387 454.14L331.397 454.13Z" fill="#FFC421"/>
<path d="M358.246 476.477C367.693 466.744 375.659 454.987 382.135 441.205C371.023 434.937 363.68 430.042 360.106 426.518C356.503 422.985 353.912 420.679 352.344 419.628C350.757 418.557 349.063 417.739 347.271 417.175C345.488 416.581 342.956 416.396 339.675 416.61C336.373 416.795 332.926 418.284 329.332 421.078C325.719 423.861 323.07 427.832 321.376 433C319.701 438.139 319.856 442.967 321.872 447.483C322.963 449.857 324.619 452.174 326.839 454.451C328.456 456.125 330.686 458.014 333.52 460.135C342.489 466.997 350.728 472.437 358.246 476.477Z" fill="#E5CAA0"/>
<path d="M348.965 423.881C345.118 426.032 340.531 428.095 335.214 430.061C322.7 434.665 308.764 437.662 293.406 439.074C272.254 441.01 248.413 439.366 221.895 434.12C215.546 450.519 210.501 466.812 206.781 483.017C201.697 505.091 199.321 525.734 199.633 544.946C199.837 557.239 202.69 568.159 208.203 577.717C211.796 583.985 216.412 589.493 222.061 594.243C224.7 595.742 227.456 597.075 230.329 598.224C238.1 601.338 246.505 603.119 255.552 603.567C264.015 604.024 272.75 603.324 281.749 601.465C292.189 599.323 301.742 595.8 310.39 590.885C319.934 585.493 327.725 578.709 333.773 570.534C340.337 561.716 345.167 550.825 348.264 537.861C350.611 528.128 352.169 516.069 352.938 501.684C353.085 499.28 353.201 496.915 353.299 494.58C353.581 486.881 353.669 479.572 353.552 472.652C353.279 456.125 351.741 439.862 348.955 423.861L348.965 423.881Z" fill="#EAB834"/>
<path d="M321.142 375.334C316.808 374.526 311.014 374.302 303.758 374.672C289.248 375.363 277.25 376.794 267.774 378.974C254.773 381.894 243.583 386.604 234.224 393.116C228.975 396.756 224.281 400.951 220.123 405.69C217.659 408.386 215.419 411.267 213.403 414.333C210.472 418.917 207.969 424.358 205.914 430.635C205.301 432.271 204.755 434.003 204.278 435.813C202.827 440.903 201.191 448.641 199.389 459.016L193.877 490.638C192.66 497.636 191.686 503.913 190.946 509.48C190.001 516.546 189.436 522.474 189.242 527.252C188.725 540.771 190.323 552.392 194.023 562.115C195.942 567.05 198.445 571.614 201.522 575.819C203.596 578.758 205.973 581.513 208.66 584.082C210.628 586.048 212.682 587.849 214.854 589.474C217.153 591.226 219.558 592.822 222.071 594.253C216.422 589.493 211.806 583.985 208.212 577.727C202.7 568.169 199.837 557.239 199.642 544.956C199.321 525.744 201.707 505.101 206.791 483.027C210.511 466.822 215.555 450.529 221.905 434.129C248.423 439.366 272.254 441.02 293.416 439.083C308.764 437.672 322.7 434.675 335.224 430.071C340.551 428.105 345.128 426.042 348.975 423.891C347.582 416.25 345.927 408.678 344.018 401.184C342.986 397.106 341.963 393.836 340.96 391.364C339.499 387.87 337.766 385.037 335.75 382.848C332.215 379.003 327.345 376.502 321.152 375.344L321.142 375.334Z" fill="#DCA824"/>
<path d="M186.359 530.036C185.93 539.282 186.729 547.633 188.745 555.079C190.206 560.295 195.182 569.113 203.674 581.542C204.814 582.788 205.992 583.965 207.219 585.065C209.381 587.099 211.67 588.968 214.085 590.681C216.636 592.491 219.314 594.126 222.119 595.567C229.725 599.528 238.11 602.195 247.294 603.567C255.873 604.91 264.852 605.085 274.221 604.102C285.08 602.954 295.179 600.316 304.518 596.19C314.783 591.674 323.421 585.552 330.423 577.814C338.009 569.493 344.028 558.874 348.488 545.969C350.163 541.161 351.692 535.759 353.085 529.754C352.189 530.153 351.254 530.552 350.29 530.951C321.726 542.621 292.218 547.993 261.765 547.049C234.877 546.222 209.741 540.548 186.359 530.046V530.036Z" fill="#635F35"/>
<path d="M187.917 516.05C187.722 517.364 187.547 518.61 187.401 519.787C186.875 524.08 186.515 528.226 186.339 532.216C209.712 544.051 234.848 550.426 261.726 551.341C292.179 552.373 321.687 546.29 350.26 533.082C351.225 532.635 352.159 532.177 353.055 531.73C354.175 526.377 355.208 520.605 356.143 514.405C330.101 527.535 302.736 534.503 274.046 535.292C243.086 536.168 214.367 529.754 187.907 516.04L187.917 516.05Z" fill="#2C1C0F"/>
<path d="M322.369 372.453C317.918 371.625 311.978 371.411 304.537 371.791C289.676 372.492 277.386 373.951 267.657 376.17C254.335 379.168 242.872 384.005 233.29 390.682C227.904 394.41 223.093 398.692 218.847 403.549C216.315 406.323 214.026 409.281 211.962 412.435C208.962 417.126 206.401 422.693 204.278 429.126C203.635 430.81 203.08 432.591 202.613 434.46C202.048 436.426 201.454 438.772 200.831 441.506C225.723 444.553 250.946 444.241 276.519 440.562C301.937 436.883 326.586 430.061 350.465 420.094C349.15 412.99 347.592 405.933 345.81 398.945C344.748 394.77 343.706 391.412 342.674 388.872C341.165 385.31 339.382 382.399 337.328 380.151C333.705 376.219 328.719 373.65 322.379 372.453H322.369Z" fill="#CBAE85"/>
<path d="M356.133 515.203C356.24 513.597 357.253 507.368 357.253 502.22C357.399 499.767 356.24 494.774 356.357 492.37C356.639 484.496 355.714 479.338 355.587 472.243C355.305 455.298 353.737 438.626 350.864 422.246C350.738 421.535 350.601 420.815 350.445 420.104C326.557 430.081 301.908 436.903 276.5 440.572C250.936 444.251 225.703 444.563 200.811 441.517C199.808 446.033 198.727 451.609 197.568 458.247L191.929 490.657C190.673 497.83 189.952 496.536 189.203 502.229C188.453 507.913 187.664 514.814 187.391 519.048C214.942 528.537 248.092 538.727 278.827 534.922C307.313 531.408 331.377 529.345 356.123 515.213L356.133 515.203Z" fill="#E5CAA0"/>
<path d="M269.011 479.211C262.009 478.393 255.231 477.011 248.677 475.045L249.962 496.204C250.956 501.956 253.653 505.557 258.065 507.007C261.064 507.893 266.352 508.146 273.939 507.776C276.851 507.338 279.061 507.085 280.581 507.017C282.051 506.861 283.512 506.511 284.973 505.986C286.385 505.44 288.936 503.835 292.618 501.178C292.949 500.477 293.319 499.786 293.718 499.075C294.195 490.666 294.224 481.284 293.806 470.909C285.615 474.471 277.357 477.245 269.021 479.211M355.325 484.466C355.072 476.125 354.565 466.84 353.796 456.592L345.674 463.852L332.673 461.604L334.465 482.491C335.244 488.145 336.734 491.649 338.915 493.002C340.376 493.81 342.879 493.946 346.433 493.421C347.777 492.924 348.81 492.632 349.521 492.545C350.202 492.36 350.894 491.99 351.566 491.435C352.199 490.88 353.309 489.255 354.896 486.539C355.023 485.839 355.159 485.148 355.305 484.466H355.325Z" fill="#E5CAA0"/>
<path d="M293.63 466.997C287.047 470.753 279.86 473.44 272.049 475.046C262.272 474.238 252.611 472.398 243.067 469.527L244.732 499.27C247.157 504.38 249.845 508.186 252.776 510.706C258.172 511.573 263.781 511.835 269.614 511.495C275.097 511.086 280.814 510.132 286.764 508.624C288.712 507.115 290.66 504.623 292.607 501.168C288.926 503.825 286.384 505.431 284.963 505.976C283.502 506.502 282.031 506.852 280.57 507.008C279.051 507.076 276.841 507.329 273.929 507.767C266.352 508.137 261.064 507.884 258.055 506.998C253.643 505.548 250.936 501.957 249.952 496.195L248.667 475.036C255.23 477.002 262.009 478.394 269.001 479.201C277.337 477.226 285.596 474.462 293.786 470.899C293.718 469.595 293.659 468.301 293.62 466.997M353.776 456.592C353.688 455.298 353.591 453.994 353.503 452.699C350.582 456.573 347.913 459.162 345.498 460.466L329.712 456.252L332.127 485.635C333.568 490.637 335.048 494.346 336.587 496.769C339.197 497.519 341.866 497.665 344.592 497.217C347.154 496.711 349.803 495.65 352.539 494.044C353.386 492.487 354.175 489.985 354.896 486.54C353.308 489.255 352.198 490.881 351.565 491.436C350.884 491.99 350.202 492.36 349.52 492.545C348.809 492.633 347.777 492.925 346.433 493.421C342.878 493.947 340.376 493.801 338.915 493.003C336.733 491.65 335.253 488.146 334.464 482.491L332.672 461.605L345.673 463.853L353.795 456.592H353.776Z" fill="#D0B387"/>
<path d="M299.298 453.526C299.123 451.151 298.723 448.796 298.11 446.46C277.445 450.256 257.471 451.58 238.198 450.441L238.909 468.252C240.253 468.699 241.635 469.128 243.067 469.537C252.601 472.408 262.262 474.247 272.049 475.055C279.86 473.449 287.057 470.773 293.63 467.006C295.159 466.081 296.688 465.098 298.237 464.067C299.016 460.913 299.376 457.809 299.327 454.752C299.327 454.334 299.318 453.925 299.308 453.536M355.432 439.287C355.227 436.942 354.39 434.82 352.909 432.932C346.443 435.881 337.98 438.82 327.511 441.74L327.696 455.044C328.348 455.482 329.02 455.881 329.712 456.261L345.498 460.475C347.913 459.171 350.582 456.582 353.503 452.709C354.156 451.784 354.828 450.791 355.519 449.711C355.695 446.587 355.695 443.511 355.51 440.494C355.48 440.075 355.451 439.676 355.422 439.277L355.432 439.287Z" fill="#F4DCB9"/>
<path d="M273.978 526.882C271.553 533.996 273.676 542.376 273.247 550.192C273.199 551.068 273.121 551.973 273.403 552.79C273.988 554.494 275.74 554.893 277.192 555.009C287.865 555.856 298.578 554.62 308.823 551.36C310.371 550.863 312.027 550.221 312.893 548.557C313.449 547.476 313.585 546.133 313.663 544.839C313.867 541.315 313.75 537.753 313.312 534.23C312.962 531.408 312.095 528.157 309.933 527.193C308.94 526.755 307.878 526.901 306.855 527.067C297.058 528.643 286.911 530.717 277.347 526.872" fill="#A3A2A2"/>
<path d="M405.985 102.009C403.356 97.6586 400.794 93.6779 398.701 90.3007C383.362 65.5892 369.796 38.7073 348.985 17.9863C326.897 -3.99998 298.003 -0.749242 269.459 1.88833C269.186 1.91753 268.904 1.937 268.631 1.9662C254.12 7.16349 239.931 13.2173 225.46 18.5313C206.45 25.5097 186.369 29.2276 166.122 29.1303C159.811 29.1011 153.53 28.6145 147.248 28.0792C132.874 38.6587 120.944 52.2164 113.231 69.7548C102.957 94.4663 109.823 123.674 129.845 142.351C131.267 143.675 132.709 144.979 134.15 146.254C217.104 97.172 319.944 82.0181 411.77 112.219C409.91 108.666 407.933 105.24 405.985 102.009Z" fill="#635F35"/>
<path d="M147.248 28.0787C146.83 28.0398 146.401 28.0106 145.982 27.9717C140.217 30.4633 134.598 33.1787 129.164 36.1764C101.019 51.7488 88.9819 76.6744 82.3791 107.138C77.7727 128.404 76.5554 150.643 78.0552 172.581C78.3668 177.175 78.8148 181.759 79.3601 186.314C96.2567 171.189 114.653 157.787 134.14 146.254C132.689 144.969 131.248 143.675 129.836 142.351C109.803 123.674 102.947 94.4659 113.221 69.7544C120.934 52.2257 132.874 38.668 147.239 28.0787H147.248Z" fill="#554F2C"/>
<path d="M411.77 112.219C319.944 82.0181 217.104 97.172 134.15 146.254C157.698 167.112 184.995 182.022 213.997 191.229C236.854 185.74 259.905 181.107 283.239 177.876C314.724 173.506 346.54 173 378.064 169.136C385.125 168.27 392.195 167.287 399.168 165.885C406.365 164.445 413.201 162.099 417.272 155.568C424.927 143.266 419.395 126.769 411.779 112.219H411.77Z" fill="#45431F"/>
<path d="M134.15 146.254C114.663 157.787 96.2667 171.179 79.3701 186.314C80.1784 193.03 81.2302 199.687 82.5254 206.256C83.2266 209.828 85.4373 212.096 88.096 213.186C87.7843 215.026 87.9401 216.923 88.6218 218.52C90.7838 223.59 96.0914 224.982 100.961 223.474C138.377 211.94 175.909 200.387 213.997 191.229C184.996 182.022 157.698 167.101 134.15 146.254Z" fill="#45431F"/>
<path d="M501.064 207.902C501.96 203.201 502.359 198.432 502.486 193.643C502.456 192.174 502.417 190.694 502.369 189.225C500.314 187.609 498.22 186.062 496.078 184.641C484.81 179.083 472.403 176.193 461.155 170.528C459.587 169.74 458.097 168.854 456.704 167.9C456.451 167.881 456.188 167.852 455.935 167.842C451.192 168.192 446.469 168.883 441.707 169.088C433.818 169.428 425.872 169.389 417.983 169.049C406.94 168.572 395.945 168.017 384.901 167.89C355.5 168.114 326.08 169.905 296.757 171.949C268.972 173.886 241.129 176.835 214.095 183.735C206.703 185.916 199.428 188.427 192.29 191.356C185.599 194.101 178.705 194.364 172.404 192.641C151.203 199.697 130.654 208.476 110.242 217.557C91.3098 225.985 72.1539 234.209 54.079 244.39C44.6909 250.21 35.8677 256.789 28.0281 264.634C28.9824 263.67 29.9271 262.707 30.8815 261.743C25.3889 267.087 19.8378 270.649 11.9885 272.07C11.0731 272.235 10.1576 272.333 9.24219 272.391C17.7246 279.292 34.3582 280.372 47.6807 277.871C157.153 257.344 267.024 242.959 377.344 228.068C407.339 224.019 438.21 225.732 467.728 218.287C477.428 215.834 489.426 213.255 500.606 209.089C500.762 208.7 500.918 208.301 501.064 207.912V207.902Z" fill="#7A7640"/>
<path d="M106.414 232.058C125.443 214.656 146.265 198.178 168.897 185.662C187.518 175.365 207.472 170.245 227.787 165.992C213.335 150.614 200.353 137.952 188.862 128.005C178.948 119.47 169.589 112.413 160.766 106.856C150.053 100.111 140.607 96.1403 132.416 94.9334C126.7 94.1061 121.538 94.6317 116.922 96.5004C113.319 97.9214 110.027 100.15 107.057 103.187C106.229 104.034 105.421 104.948 104.642 105.931C99.5094 112.413 95.3413 121.767 92.147 133.962C89.4689 144.123 87.3653 156.6 85.8461 171.413C84.3269 186.227 84.171 206.695 85.3884 232.817C85.6611 238.618 86.1675 244.983 86.9173 251.884C92.9845 244.876 99.5873 238.307 106.424 232.058H106.414Z" fill="#FFC421"/>
<path d="M279.003 195.706C300.447 190.577 321.473 183.92 343.083 179.453C372.903 173.282 407.884 170.09 437.392 180.027C433.351 169.973 430.244 163.063 428.072 159.355C416.649 139.548 406.141 123.217 396.568 110.37C389.118 100.102 381.794 91.4005 374.597 84.2664C365.969 75.6919 357.944 69.9593 350.504 67.0881C349.374 66.6599 348.254 66.29 347.154 65.9883C343.2 64.9177 339.372 64.6744 335.691 65.2584C330.939 65.9591 326.391 68.0517 322.047 71.536C315.834 76.5386 309.933 84.4611 304.333 95.2937C299.726 104.228 295.393 114.662 291.341 126.594C286.307 141.505 281.389 159.861 276.587 181.652C275.487 186.752 274.367 192.154 273.228 197.828C275.068 196.913 276.996 196.193 279.003 195.706Z" fill="#FFC421"/>
<path d="M468.673 170.732C459.071 253.499 427.556 333.638 377.577 400.035C363.534 418.693 347.125 436.436 324.833 444.757C319.077 446.908 323.187 455.619 328.933 453.468C349.131 445.925 365.063 430.869 378.532 414.372C391.932 397.962 403.765 380.112 414.487 361.834C436.224 324.821 453.081 284.916 464.359 243.416C470.747 219.892 475.373 195.901 478.187 171.666C478.898 165.495 469.384 164.581 468.663 170.722L468.673 170.732Z" fill="#5B3E25"/>
<path d="M363.164 158.303C331.436 146.419 297.506 141.845 261.376 144.589C225.002 147.207 191.822 156.726 161.847 173.155C156.968 175.783 152.342 178.537 147.96 181.428C125.843 195.667 108.781 212.573 96.7537 232.145C96.0915 233.118 95.4779 234.121 94.9131 235.143C92.2447 239.669 89.8782 244.331 87.7941 249.148C87.4825 249.586 87.2682 250.073 87.1611 250.599C86.9858 250.891 86.8592 251.182 86.7813 251.465C84.8628 255.757 83.2949 260.117 82.0483 264.555C81.5906 265.801 83.3046 262.132 87.1806 253.548C80.0616 270.959 76.0298 281.967 75.0852 286.581C74.7249 287.778 74.4327 289.014 74.2184 290.298C73.9165 291.768 73.6633 293.238 73.4588 294.707C73.1764 296.508 73.0109 298.328 72.9719 300.158C72.6018 302.902 72.4655 305.657 72.5629 308.421C72.5239 308.654 72.5142 308.898 72.5337 309.131C72.5337 309.268 72.5726 309.433 72.631 309.618C73.1375 327.439 78.5132 345.298 88.7777 363.216C99.0325 381.086 113.28 395.801 131.501 407.383C149.683 418.965 171.741 426.411 197.695 429.701C223.59 432.951 245.268 433.72 262.71 432.007C263.324 431.929 263.947 431.861 264.56 431.832C264.892 431.813 265.232 431.793 265.564 431.774C350.28 428.581 409.024 409.223 441.765 373.708C473.883 338.777 479.97 297.851 460.035 250.92L461.554 253.791C460.804 252.253 460.103 250.813 459.45 249.47C459.256 249.032 459.071 248.594 458.876 248.165C458.603 247.659 458.34 247.134 458.068 246.589C455.37 241.099 453.744 237.693 453.208 236.369C451.27 232.35 449.157 228.34 446.878 224.34C446.303 223.483 445.855 222.704 445.534 222.023C427.956 193.594 400.493 172.347 363.155 158.303H363.164Z" fill="#FFC421"/>
<path d="M80.6947 269.772C77.5686 278.016 75.6988 283.622 75.095 286.581C74.7346 287.778 74.4425 289.014 74.2282 290.299C73.9263 291.768 73.6731 293.238 73.4686 294.708C73.1862 296.508 73.0206 298.328 72.9817 300.158C72.6116 302.903 72.4753 305.657 72.5726 308.421C72.5337 308.655 72.524 308.898 72.5434 309.132C72.5434 309.268 72.5824 309.433 72.6408 309.618C73.1472 327.439 78.523 345.299 88.7875 363.217C96.5005 376.658 106.463 388.317 118.675 398.196C122.717 401.457 127.002 404.522 131.511 407.394C149.693 418.976 171.751 426.421 197.705 429.711C223.6 432.962 245.278 433.73 262.72 432.017C263.333 431.94 263.957 431.871 264.57 431.842C264.901 431.823 265.242 431.803 265.573 431.784C339.597 428.991 393.783 413.866 428.141 386.41C299.191 436.018 197.471 435.473 122.951 384.775C86.7327 352.511 72.6506 314.173 80.7044 269.772H80.6947Z" fill="#F0B308"/>
<path d="M325.164 445.244C242.95 441.312 167.388 386.176 120.428 318.709C105.976 297.949 93.8124 276.05 83.6842 253.567C81.0353 247.689 71.4719 249.304 74.1501 255.241C109.599 333.872 171.556 408.055 257.636 440.329C279.85 448.66 302.979 453.673 325.758 454.763C332.195 455.074 331.621 445.546 325.164 445.234V445.244Z" fill="#5B3E25"/>
<path d="M477.155 145.914C459.411 140.386 397.815 126.847 348.975 126.76C305.385 126.682 261.61 131.84 220.308 145.777C179.727 159.471 137.773 174.985 97.8542 192.271C63.0969 207.318 25.5349 222.549 4.86952 256.361C-13.4392 286.309 24.2689 282.25 47.7001 277.861C55.6858 276.362 63.6715 274.912 71.6572 273.491C75.1826 271.671 78.6593 269.773 82.1165 267.826C82.9638 266.522 84.0253 265.335 85.3011 264.361C93.0433 258.424 101.224 252.828 109.239 247.271C155.371 215.328 206.937 192.407 262.73 184.27C294.517 179.638 326.985 179.453 358.792 184.008C374.861 186.314 390.754 189.828 406.268 194.616C425.278 200.495 442.077 203.201 461.671 204.67C465.05 204.923 467.894 206.5 470.036 208.778C474.857 208.67 479.678 208.505 484.508 208.437C488.404 208.388 491.939 209.274 494.773 211.104C509.906 206.228 524.534 198.977 531.312 185.828C541.323 166.411 487.693 149.184 477.175 145.904L477.155 145.914Z" fill="#7A7640"/>
<path d="M328.076 434.519C321.453 436.232 313.439 441.079 308.647 441.556C301.801 442.237 298.996 447.989 302.064 454.014C306.359 462.452 318.181 461.012 325.524 458.734C331.338 456.934 338.973 454.481 339.285 445.303C339.655 434.149 334.523 432.855 328.086 434.509L328.076 434.519Z" fill="#2C1C0F"/>
<path d="M340.045 463.085L326.537 448.593C322.905 444.69 316.925 448.797 318.133 452.914C317.062 453.44 316.175 454.374 315.659 455.561C314.052 459.299 313.03 463.26 312.514 467.299C311.725 473.46 321.249 474.375 322.038 468.243C322.398 465.401 323.139 462.734 324.181 460.097C327.044 463.163 329.897 466.228 332.76 469.294C336.958 473.801 344.291 467.63 340.055 463.085H340.045Z" fill="#5B3E25"/>
<path d="M274.844 643.647L280.006 663.862L335.964 661.983L345.401 642.167C345.888 636.318 334.162 633.641 310.244 634.157C286.151 634.634 274.347 637.797 274.844 643.656V643.647Z" fill="#12644F"/>
<path d="M334.922 579.741C333.997 566.553 326.586 560.237 312.669 560.801C293.377 561.784 284.242 574.885 285.274 600.102C286.745 621.495 286.229 652.017 283.706 691.658L283.648 692.242C283.648 692.631 283.638 693.011 283.629 693.4C283.57 700.155 283.94 705.605 284.729 709.781C285.518 713.888 289.852 716 297.711 716.107C305.579 716.214 315.523 716.087 327.55 715.718C339.519 715.328 347.095 713.09 350.29 709.021C351.049 708.068 351.702 707.007 352.257 705.829C354.01 702.14 354.682 697.585 354.273 692.155C353.776 684.923 349.413 680.436 341.184 678.684C338.048 678.023 334.903 677.351 331.738 676.689C334.026 636.318 335.088 603.995 334.903 579.741H334.922Z" fill="#EFB207"/>
<path d="M361.051 714.286L363.339 706.831V706.763C357.486 708.962 353.007 710.354 349.9 710.958C346.832 711.551 340.561 712.398 331.075 713.478C329.887 713.615 328.611 713.712 327.248 713.77C322.534 713.975 316.633 713.838 309.553 713.381C306.923 713.196 304.235 712.953 301.479 712.651C298.684 712.349 295.841 711.999 292.968 711.619C288.439 710.967 283.736 710.198 278.876 709.303C278.545 708.933 279.022 710.442 280.327 713.809C281.505 716.719 285.907 718.822 293.523 720.097C294.75 720.252 296.045 720.437 297.399 720.632L302.103 721.196C310.322 721.985 318.045 722.248 325.261 721.985C326.108 721.946 326.936 721.917 327.745 721.878C335.35 721.43 342.245 720.496 348.42 719.094C355.198 717.537 359.405 715.941 361.041 714.306L361.051 714.286Z" fill="#12644F"/>
<path d="M363.349 706.763C364.469 703.249 365.307 700.018 365.871 697.069C368.394 683.589 364.859 675.638 355.266 673.214C351.001 672.085 345.527 671.618 338.866 671.822C339.382 664.104 340.746 656.192 342.966 648.104C345.099 640.016 344.622 638.05 341.535 642.196C338.496 646.264 330.092 648.921 316.311 650.196C302.58 651.423 289.589 649.203 277.337 643.549C275.604 640.58 275.049 640.979 275.662 644.765C277.396 665.087 277.785 678.353 276.831 684.572C275.828 690.918 275.468 695.882 275.75 699.473C276.071 703.055 277.123 706.335 278.896 709.303C283.765 710.199 288.459 710.968 292.987 711.62C295.87 712.009 298.704 712.35 301.499 712.651C304.255 712.953 306.943 713.206 309.572 713.381C316.652 713.839 322.554 713.965 327.267 713.771C328.631 713.712 329.897 713.615 331.095 713.479C340.58 712.398 346.852 711.561 349.92 710.958C353.026 710.364 357.506 708.963 363.359 706.763H363.349Z" fill="#299C7F"/>
<path d="M271.582 636.444L265.261 658.79L204.258 659.345L194.637 638.118C194.305 631.743 207.19 628.268 233.28 627.713C259.554 627.11 272.322 630.02 271.582 636.444Z" fill="#12644F"/>
<path d="M258.99 688.962L259.029 689.585L259.009 690.831C258.844 698.276 258.26 704.32 257.247 708.973C256.234 713.537 251.394 716.058 242.726 716.535C234.088 717.012 223.152 717.333 209.917 717.518C196.779 717.635 188.531 715.533 185.181 711.201C184.363 710.189 183.671 709.051 183.097 707.776C183.515 707.834 183.895 707.941 184.246 708.087C186.495 708.681 189.553 709.333 193.429 710.043C195.202 710.52 198.708 710.987 203.957 711.464C209.255 712 213.394 712.262 216.364 712.262C229.063 712.262 237.351 711.523 241.227 710.043C247.82 707.522 251.18 701.8 251.296 692.875C251.316 691.629 251.326 690.529 251.345 689.585C251.316 687.395 251.277 685.955 251.228 685.273C251.18 684.329 250.556 680.251 249.349 673.049L250.43 595.362L258.289 584.072C257.627 602.915 257.568 626.157 258.114 653.798C258.308 664.825 258.6 676.543 259 688.972L258.99 688.962Z" fill="#EFB207"/>
<path d="M230.543 562.417V562.466C245.95 562.884 255.192 570.087 258.269 584.072L250.41 595.363L249.329 673.049C250.537 680.252 251.16 684.33 251.209 685.274C251.257 685.955 251.296 687.395 251.326 689.585C251.316 690.529 251.296 691.629 251.277 692.875C251.15 701.8 247.79 707.523 241.207 710.043C237.331 711.523 229.043 712.263 216.344 712.263C213.374 712.263 209.245 712 203.937 711.464C198.698 710.988 195.182 710.52 193.41 710.043C189.534 709.333 186.476 708.681 184.226 708.087C183.876 707.941 183.486 707.834 183.077 707.776C181.295 703.805 180.711 698.812 181.324 692.787C182.152 684.816 187.099 679.668 196.176 677.361C199.662 676.475 203.158 675.599 206.664 674.733C206.469 667.375 206.304 660.397 206.158 653.788C205.359 621.777 204.931 598.535 204.862 584.063C207.589 569.298 216.15 562.076 230.524 562.407L230.543 562.417Z" fill="#FFC421"/>
<path d="M174.536 717.265L172.287 709.216V709.148C178.597 711.279 183.437 712.593 186.817 713.099C190.147 713.606 196.964 714.228 207.278 714.978C208.573 715.075 209.956 715.114 211.446 715.114C216.588 715.114 223.025 714.696 230.767 713.868C233.64 713.547 236.591 713.148 239.6 712.691C242.658 712.224 245.775 711.717 248.93 711.163C253.897 710.238 259.048 709.177 264.385 707.97C264.765 707.552 264.181 709.216 262.652 712.963C261.269 716.204 256.39 718.696 248.034 720.457C246.69 720.691 245.268 720.944 243.788 721.217C242.074 721.499 240.35 721.771 238.636 722.054C229.638 723.299 221.204 723.952 213.335 724H210.628C202.34 723.864 194.851 723.163 188.161 721.917C180.818 720.526 176.279 718.978 174.546 717.265H174.536Z" fill="#12644F"/>
<path d="M172.286 709.148C171.186 705.352 170.378 701.858 169.861 698.666C167.563 684.047 171.692 675.191 182.249 672.086C186.943 670.655 192.923 669.886 200.197 669.799C199.896 661.38 198.678 652.796 196.526 644.056C194.471 635.316 195.055 633.135 198.279 637.535C201.463 641.836 210.54 644.357 225.528 645.097C240.467 645.788 254.724 642.761 268.29 636.007C270.277 632.678 270.881 633.096 270.082 637.252C267.501 659.55 266.625 674.081 267.462 680.836C268.339 687.726 268.563 693.138 268.134 697.07C267.667 701.002 266.411 704.632 264.375 707.961C259.038 709.168 253.877 710.229 248.92 711.153C245.765 711.708 242.658 712.214 239.59 712.681C236.571 713.148 233.63 713.538 230.757 713.859C223.015 714.696 216.578 715.105 211.436 715.105C209.956 715.105 208.563 715.056 207.268 714.968C196.954 714.229 190.137 713.606 186.807 713.09C183.437 712.584 178.597 711.26 172.277 709.138L172.286 709.148Z" fill="#299C7F"/>
<path d="M215.653 559.001C208.699 561.609 203.918 566.689 201.278 572.091C198.639 577.502 197.889 583.293 197.159 589.016C196.633 593.172 196.098 597.328 195.572 601.474C195.464 602.302 195.367 603.168 195.835 603.917C196.614 605.173 198.62 605.679 200.431 606.029C219.801 609.805 240.223 610.662 260.051 608.54C261.337 608.404 262.817 608.151 263.382 607.285C263.684 606.818 263.645 606.282 263.596 605.766C262.807 597.464 262.009 589.162 261.22 580.851C260.772 576.13 260.246 571.235 257.061 567.137C253.098 562.027 245.307 558.884 237.36 558.29C229.413 557.696 221.379 559.429 214.406 562.31" fill="#635F35"/>
<path d="M296.133 553.619C289.55 556.899 285.021 563.274 282.528 570.067C280.025 576.861 279.324 584.141 278.633 591.333C278.136 596.55 277.63 601.776 277.133 606.993C277.036 608.025 276.948 609.115 277.386 610.069C278.117 611.645 280.025 612.278 281.739 612.726C300.087 617.466 319.418 618.546 338.194 615.879C339.412 615.704 340.814 615.392 341.35 614.302C341.632 613.718 341.593 613.047 341.544 612.395C340.795 601.961 340.045 591.528 339.295 581.094C338.866 575.167 338.37 569.016 335.36 563.858C331.601 557.444 324.239 553.492 316.711 552.743C309.183 551.993 301.577 554.173 294.984 557.794" fill="#635F35"/>
<path d="M292.646 322.076C288.868 321.346 284.856 321.191 280.59 321.599C276.324 322.008 271.786 322.982 267.053 324.519C257.617 327.478 248.599 334.68 239.99 346.126C231.449 357.543 227.855 367.266 229.199 375.295C230.553 383.393 236.562 389.232 247.245 392.804C258.103 396.405 270.511 393.048 284.456 382.731C302.999 389.408 316.857 389.524 326.031 383.062C333.451 377.806 336.811 372.035 336.13 365.738C335.945 364.248 335.545 362.74 334.932 361.231C331.679 353.202 325.69 345.007 316.974 336.637C308.394 328.344 300.282 323.488 292.656 322.096L292.646 322.076Z" fill="#FFC421"/>
<path d="M279.538 349.241C279.168 349.766 279.061 350.817 279.207 352.404L281.272 377.183C280.775 378.069 280.298 378.887 279.84 379.617C275.506 385.777 269.293 389.661 261.22 391.276C257.928 391.899 253.633 391.617 248.326 390.439C243.018 389.291 238.071 385.048 233.494 377.719C231.984 379.85 231.702 382.42 232.627 385.417C233.582 388.435 235.578 391.101 238.616 393.427C241.674 395.754 245.044 397.486 248.696 398.615C253.39 399.87 257.841 400.308 262.067 399.9C270.832 399.043 278.749 394.663 285.839 386.751C295.704 392.678 304.255 395.247 311.51 394.479C318.785 393.71 323.119 392.668 324.531 391.374C327.9 389.563 330.471 386.945 332.263 383.519C334.055 380.094 334.951 377.252 334.941 375.013C334.961 372.794 334.172 370.419 332.565 367.889C329.712 376.619 325.875 382.069 321.044 384.259C317.607 385.758 314.188 386.498 310.809 386.498C302.599 386.468 295.782 383.821 290.348 378.565C289.764 377.962 289.141 377.271 288.488 376.483L286.365 353.864C285.859 350.876 285.469 349.153 285.206 348.686C282.723 343.888 280.824 344.073 279.529 349.231L279.538 349.241Z" fill="#684E3A"/>
<path d="M267.092 342.681C265.671 343.712 264.58 344.783 263.801 345.893C266.187 355.09 272.965 360.19 284.135 361.183C294 359.986 299.941 354.35 301.957 344.277C300.389 342.467 298.451 341.016 296.143 339.907C291.984 337.912 287.018 337.182 281.252 337.737C275.487 338.282 270.764 339.936 267.083 342.681H267.092Z" fill="#684E3A"/>
<path d="M405.362 308.158C417.272 295.924 423.223 281.189 423.223 263.952C423.223 246.715 417.272 231.951 405.362 219.746C393.568 207.541 379.282 201.438 362.522 201.438C345.761 201.438 331.319 207.541 319.477 219.746C307.664 231.951 301.752 246.686 301.752 263.952C301.752 281.218 307.664 295.924 319.477 308.158C331.319 320.344 345.664 326.436 362.522 326.436C379.379 326.436 393.568 320.344 405.362 308.158Z" fill="white"/>
<path d="M198.114 265.723C196.828 265.587 195.835 265.519 195.124 265.538C193.877 265.47 192.942 265.431 192.309 265.431C174.429 264.409 159.51 268.439 147.56 277.529C143.636 280.507 140.49 283.787 138.114 287.398C137.977 287.632 138.698 286.659 140.276 284.498C136.721 289.802 136.224 294.435 138.795 298.396C152.361 292.323 159.354 289.179 159.782 288.965C170.096 284.109 182.016 282.172 195.543 283.135C208.777 283.914 226.911 291.943 249.933 307.204C251.774 296.537 248.696 288.06 240.711 281.782C232.744 275.495 224.924 271.349 217.25 269.334C209.644 267.349 204.366 266.22 201.415 265.957C200.149 265.821 199.049 265.743 198.094 265.714L198.114 265.723Z" fill="#684E3A"/>
<path d="M386.888 263.31C383.07 259.514 378.483 257.616 373.137 257.616C367.79 257.616 363.223 259.514 359.415 263.31C355.617 267.086 353.718 271.641 353.718 276.984C353.718 282.328 355.617 286.96 359.415 290.756C363.213 294.571 367.79 296.489 373.137 296.489C378.483 296.489 383.07 294.581 386.888 290.756C390.686 286.96 392.585 282.367 392.585 276.984C392.585 271.602 390.686 267.086 386.888 263.31Z" fill="#413535"/>
<path d="M471.77 519.963C477.408 516.43 481.216 510.922 483.193 503.437C485.17 495.943 484.527 488.147 481.265 480.039C478.002 471.932 472.89 467.903 465.917 467.942C458.924 467.981 452.195 469.888 445.738 473.674C439.369 477.528 435.269 483.037 433.448 490.21C431.588 497.549 432.542 504.41 436.321 510.785C440.216 517.092 445.719 521.092 452.828 522.795C459.82 524.44 466.141 523.496 471.779 519.963H471.77Z" fill="#F0B308"/>
<path d="M427.313 488.011C428.355 491.952 430.78 494.862 434.588 496.731C437.227 498.026 439.983 498.571 442.865 498.376C444.161 498.269 445.485 498.016 446.839 497.607C451.163 496.381 454.484 493.967 456.811 490.346C459.119 486.804 459.772 483.105 458.749 479.271C457.736 475.436 455.36 472.574 451.621 470.696C450.783 470.268 449.936 469.927 449.079 469.674C446.031 468.691 442.817 468.642 439.428 469.528C435.065 470.715 431.685 473.11 429.28 476.711C426.904 480.312 426.232 484.079 427.284 488.001L427.313 488.011Z" fill="#E6AD19"/>
<path d="M455.76 464.311L467.719 466.209L479.678 410.616L469.423 408.396L455.75 464.311H455.76Z" fill="#B0A29D"/>
<path d="M397.532 327.381C397.065 354.136 406.54 376.784 425.959 395.335C445.359 413.866 468.342 423.356 494.899 423.823C521.437 424.261 544.186 415.628 563.128 397.924C582.05 380.191 591.341 357.416 591 329.59C590.659 301.764 581.135 278.493 562.437 259.787C543.739 241.081 521.164 231.728 494.714 231.728C468.254 231.747 445.553 241.003 426.612 259.505C407.67 277.997 397.98 300.626 397.532 327.381ZM438.6 383.529C423.086 367.976 415.344 349.27 415.373 327.401C415.344 305.473 423.077 286.757 438.561 271.252C454.104 255.748 472.919 248.166 495.016 248.526C517.113 248.857 535.987 256.896 551.637 272.644C567.267 288.362 574.941 306.884 574.659 328.228C574.376 349.572 566.469 368.006 550.935 383.52C535.461 398.995 516.733 406.732 494.773 406.732C472.831 406.732 454.114 399.004 438.6 383.529Z" fill="#B0A29D"/>
<path d="M541.547 364.784C540.213 367.266 538.811 369.494 537.35 371.47C542.531 369.027 547.313 365.631 551.705 361.28C561.609 351.372 566.566 339.401 566.576 325.366C566.556 311.331 561.609 299.35 551.724 289.433C549.095 286.795 546.29 284.498 543.339 282.542C548.481 293.647 551.062 306.747 551.062 321.843C551.062 338.603 547.897 352.92 541.557 364.784H541.547Z" fill="white"/>
<path d="M429.884 528.81C437.743 537.589 447.296 539.837 458.545 535.555L473.065 463.941L450.023 458.325L429.894 528.81H429.884Z" fill="#AD6F59"/>
<path d="M441.658 470.569C438.278 469.732 435.084 470.355 432.085 472.438C430.059 473.927 428.55 475.786 427.556 478.014C427.04 479.036 426.65 480.146 426.397 481.343C425.569 485.09 426.037 488.604 427.8 491.884C429.523 495.047 432.046 497.032 435.386 497.84C438.687 498.677 441.804 498.064 444.745 495.981C445.436 495.543 446.069 495.057 446.644 494.511C448.621 492.614 449.955 490.21 450.666 487.28C451.562 483.533 451.153 480 449.429 476.681C447.666 473.401 445.086 471.367 441.667 470.569H441.658Z" fill="#F0B308"/>
<path d="M242.473 544.538C246.232 528.206 242.843 516.605 232.325 509.723C190.906 520.614 181.869 495.193 205.212 433.448C193.438 430.236 182.005 431.56 170.923 437.399C140.791 527.155 164.641 562.864 242.473 544.528V544.538Z" fill="#DCA824"/>
<path d="M204.813 434.47C203.596 430.528 200.898 427.648 196.73 425.818C192.62 424.008 188.287 423.764 183.729 425.117C179.171 426.46 175.656 429.02 173.163 432.786C170.66 436.582 169.949 440.466 171.049 444.446C172.189 448.485 174.857 451.483 179.035 453.43C183.203 455.337 187.634 455.59 192.328 454.199C197.022 452.807 200.606 450.189 203.06 446.325C205.505 442.412 206.089 438.461 204.804 434.461L204.813 434.47Z" fill="#DCA824"/>
<path d="M243.972 532.128C232.374 534.922 221.447 536.868 211.173 537.978C200.908 539.116 192.835 538.328 186.952 535.613C181.051 532.926 176.717 529.004 173.942 523.836C171.137 518.678 169.569 512.565 169.218 505.49C168.848 498.453 168.702 491.114 168.77 483.474C168.8 477.09 169.627 469.946 171.254 462.033C171.955 458.607 173.192 453.546 174.964 446.83C177.584 448.115 180.301 449.244 183.115 450.208C188.141 451.95 193.214 453.098 198.337 453.673C200.187 447.434 202.486 440.699 205.222 433.448C193.448 430.236 182.015 431.56 170.932 437.399C170.241 439.463 169.569 441.507 168.926 443.512C166.453 451.337 164.417 458.734 162.81 465.683C146.858 534.523 173.416 560.801 242.482 544.528C243.515 540.031 244.011 535.895 243.982 532.119L243.972 532.128Z" fill="#EFB207"/>
<path d="M193.857 472.486C194.812 466.821 196.302 460.553 198.327 453.682C193.205 453.108 188.131 451.95 183.106 450.217C180.282 449.244 177.565 448.125 174.955 446.84C173.182 453.555 171.945 458.616 171.244 462.042C169.618 469.955 168.79 477.109 168.761 483.484C168.693 491.124 168.839 498.462 169.209 505.499C169.559 512.565 171.137 518.687 173.932 523.845C176.708 529.013 181.041 532.936 186.943 535.622C192.825 538.337 200.898 539.126 211.163 537.987C221.428 536.878 232.364 534.931 243.963 532.138C243.826 522.191 239.941 514.726 232.315 509.733C201.103 517.938 188.277 505.528 193.848 472.486H193.857Z" fill="#FFD154"/>
<path d="M246.865 508.809C245.18 513.471 245.375 518.055 247.44 522.561C249.465 527 252.806 530.134 257.451 531.954C262.086 533.754 266.644 533.686 271.134 531.749C275.701 529.744 278.886 526.377 280.697 521.627C282.44 516.858 282.265 512.186 280.171 507.602C279.879 506.96 279.558 506.347 279.197 505.753C277.055 502.055 273.938 499.446 269.858 497.928C265.855 496.507 261.94 496.429 258.113 497.704C257.402 497.957 256.691 498.259 255.98 498.599C251.569 500.702 248.54 504.098 246.875 508.809H246.865Z" fill="#FFD154"/>
<path d="M226.336 516.556C224.3 522.21 224.524 527.748 227.008 533.179C227.212 533.627 227.426 534.055 227.641 534.474C230.143 539.174 233.971 542.523 239.122 544.537C244.722 546.737 250.215 546.659 255.62 544.304C261.142 541.89 264.998 537.822 267.189 532.099C269.303 526.327 269.098 520.663 266.556 515.125C266.362 514.697 266.157 514.268 265.943 513.86C263.333 508.876 259.379 505.402 254.081 503.426C248.345 501.402 242.755 501.674 237.311 504.244C231.994 506.784 228.332 510.891 226.336 516.556Z" fill="#FFD154"/>
<path d="M249.971 489.869C246.125 488.458 242.375 488.652 238.723 490.462C235.11 492.224 232.637 495.066 231.312 498.979C229.978 502.813 230.163 506.609 231.887 510.356C233.591 514.084 236.318 516.663 240.057 518.094C243.856 519.583 247.585 519.495 251.237 517.821C254.919 516.079 257.47 513.266 258.892 509.363C260.265 505.431 260.08 501.548 258.327 497.733C256.574 493.888 253.789 491.27 249.971 489.869Z" fill="#FFD154"/>
<path d="M248.15 532.158C247.965 532.683 247.8 533.199 247.654 533.715C247.527 534.318 247.43 534.922 247.352 535.525C247.05 538.221 247.508 540.888 248.715 543.535C250.419 547.263 253.146 549.842 256.886 551.273C260.684 552.762 264.414 552.674 268.066 551C271.747 549.258 274.299 546.445 275.72 542.542C276.587 540.051 276.821 537.579 276.422 535.136C276.324 534.386 276.149 533.647 275.906 532.907C275.711 532.235 275.458 531.574 275.156 530.912C273.403 527.067 270.617 524.449 266.8 523.048C263.693 521.909 260.655 521.821 257.675 522.795L256.73 523.096C256.584 523.165 256.428 523.233 256.282 523.301C256.263 523.31 256.233 523.32 256.214 523.33C256.058 523.398 255.912 523.466 255.766 523.534C255.698 523.564 255.63 523.593 255.561 523.632C251.948 525.393 249.475 528.235 248.15 532.148V532.158Z" fill="#FFD154"/>
<path d="M247.585 540.217C244.42 540.723 241.216 540.343 237.964 539.068C235.11 537.939 232.715 536.333 230.796 534.25L228.011 535.185C230.533 539.516 234.243 542.63 239.132 544.538C242.813 545.988 246.465 546.446 250.069 545.92C251.734 548.382 254.013 550.163 256.896 551.263C260.694 552.752 264.424 552.665 268.076 550.991C271.757 549.249 274.308 546.436 275.73 542.533C276.597 540.041 276.831 537.569 276.431 535.126C276.334 534.377 276.159 533.637 275.915 532.898C275.72 532.226 275.467 531.564 275.165 530.902C274.99 530.513 274.795 530.124 274.591 529.744C277.347 527.768 279.372 525.053 280.687 521.627C282.43 516.858 282.255 512.186 280.161 507.602C280.005 507.261 279.84 506.94 279.665 506.619C279.762 506.853 279.859 507.086 279.947 507.33C280.931 510.386 280.833 513.5 279.674 516.673C278.243 520.41 275.73 523.077 272.146 524.654C271.679 524.858 271.202 525.033 270.715 525.179C270.014 525.413 269.303 525.588 268.572 525.695C268.543 526.124 268.504 526.542 268.446 526.961C269.234 527.837 269.897 528.858 270.432 530.017C270.656 530.503 270.851 530.99 271.026 531.496C271.056 531.584 271.085 531.661 271.104 531.749C271.26 532.216 271.387 532.683 271.465 533.17C271.718 535 271.523 536.859 270.88 538.737C269.819 541.638 267.9 543.75 265.134 545.073C262.398 546.329 259.603 546.387 256.759 545.268C256.175 545.044 255.63 544.781 255.104 544.48C253.117 543.36 251.617 541.696 250.604 539.487C250.604 539.467 250.585 539.448 250.575 539.418C249.592 539.769 248.598 540.022 247.595 540.197L247.585 540.217Z" fill="#F0B308"/>
<path d="M188.092 423.206C182.602 424.012 178.511 425.466 175.817 427.556C173.089 429.658 170.577 432.94 168.293 437.405C165.974 441.869 163.871 447.082 161.985 453.057C160.075 459.044 158.234 465.461 156.472 472.322C163.815 475.991 171.521 478.627 179.591 480.228C186.649 481.614 192.798 482.193 198.026 481.943C200.788 477.093 203.232 471.834 205.346 466.177C207.46 460.509 209.187 456.067 210.529 452.853C211.881 449.672 212.734 446.117 213.097 442.209C213.438 438.325 212.495 434.86 210.29 431.793C208.062 428.772 205.175 426.375 201.629 424.603C198.072 422.865 193.559 422.399 188.104 423.206H188.092Z" fill="#F4DCB9"/>
</g>
<defs>
<clipPath id="clip0_440_9340">
<rect width="591" height="724" fill="white"/>
</clipPath>
</defs>
</svg>
