<svg width="826" height="634" viewBox="0 0 826 634" fill="none" xmlns="http://www.w3.org/2000/svg">
<g clip-path="url(#clip0_666_766)">
<path d="M245.363 540.887L249.975 560.523L307.358 557.741L315.631 538.712C315.712 533.127 303.475 530.79 278.909 531.711C254.172 532.591 242.986 535.646 245.353 540.887H245.363Z" fill="#106651"/>
<path d="M245.333 469.614C237.576 466.174 229.384 459.851 223.286 465.952C219.554 469.685 218.199 476.17 220.13 481.481C210.684 486.347 205.86 504.739 219.877 507.703C244.483 512.923 256.569 536.343 264.083 556.951C266.905 564.711 275.278 569.83 283.592 567.776C288.911 566.451 293.088 562.07 294.302 556.951C296.345 553.542 296.911 549.212 295.971 544.902C289.417 514.471 274.287 482.462 245.333 469.614Z" fill="#EFB207"/>
<path d="M131.082 610.5C127.279 612.301 125.125 614.213 124.619 616.277C124.306 617.39 124.488 618.492 125.186 619.605C125.782 620.637 126.703 621.527 127.977 622.296C129.727 623.328 132.528 624.279 136.381 625.149C154.252 629.186 175.024 631.796 198.659 632.99C213.081 633.728 234.501 634.032 262.91 633.9C279.101 633.839 291.379 633.556 299.753 633.03C313.386 632.16 325.441 630.43 335.949 627.85C340.257 626.798 343.766 625.463 346.467 623.854C349.885 621.851 351.695 619.595 351.887 617.076C352.039 614.941 350.937 612.959 348.58 611.138C346.659 609.64 344.1 608.345 340.874 607.263C336.222 605.685 331.286 604.612 326.078 604.056C323.621 603.793 320.779 603.621 317.583 603.54C315.995 603.479 313.133 603.449 308.997 603.429C293.361 603.368 269.878 602.984 238.557 602.235C210.583 601.83 187.07 602.205 168.016 603.297C160.188 603.783 153.827 604.42 148.922 605.24C141.964 606.393 136.027 608.163 131.102 610.5H131.092H131.082Z" fill="black" fill-opacity="0.15"/>
<path d="M340.985 606.292C341.875 602.619 342.502 599.251 342.856 596.185C344.434 582.143 340.156 573.939 330.012 571.561C325.492 570.448 319.777 570.054 312.87 570.357C312.809 562.325 313.629 554.1 315.297 545.663C316.885 537.225 316.248 535.192 313.366 539.552C310.514 543.821 301.998 546.715 287.789 548.222C273.63 549.689 259.957 547.585 246.799 541.899C244.777 538.834 244.22 539.269 245.151 543.184C248.508 564.257 249.944 578.036 249.429 584.51C248.883 591.117 248.893 596.286 249.449 599.999C250.056 603.722 251.391 607.101 253.464 610.156C258.591 611.016 263.517 611.745 268.28 612.352C271.304 612.706 274.277 613.029 277.2 613.303C280.082 613.576 282.894 613.798 285.645 613.94C293.038 614.314 299.166 614.365 304.051 614.082C305.457 614.001 306.772 613.889 307.995 613.727C317.765 612.473 324.217 611.492 327.352 610.834C330.528 610.166 335.089 608.649 340.985 606.282H340.975L340.985 606.292Z" fill="#208F74"/>
<path d="M339.175 614.142L340.985 606.362V606.291C335.069 608.658 330.528 610.166 327.352 610.844C324.217 611.511 317.765 612.472 307.995 613.737C306.772 613.899 305.457 614.01 304.051 614.091C299.166 614.364 293.038 614.324 285.645 613.949C282.904 613.798 280.082 613.585 277.2 613.312C274.267 613.039 271.294 612.715 268.28 612.361C263.517 611.754 258.591 611.026 253.464 610.166C253.09 609.791 253.707 611.339 255.315 614.819C256.771 617.824 261.494 619.928 269.514 621.163C270.808 621.314 272.153 621.466 273.579 621.658C275.228 621.83 276.866 622.002 278.515 622.174C287.121 622.872 295.151 623.034 302.635 622.65C303.515 622.609 304.375 622.549 305.204 622.498C313.062 621.911 320.162 620.849 326.462 619.291C333.38 617.571 337.628 615.851 339.205 614.131H339.195L339.175 614.142Z" fill="#0D5644"/>
<path d="M824.648 59.4442C819.925 42.7618 808.75 31.5121 796.462 21.4157C795.491 20.839 794.52 20.2725 793.529 19.7464C786.854 16.1853 779.684 15.2546 772.726 13.9091C757.354 10.9348 752.449 8.14259 745.126 8.80017C743.579 8.94181 740.646 12.25 739.099 12.1589C738.067 19.2406 737.036 26.3324 735.812 33.3736C732.798 50.8552 729.248 68.185 725.163 85.4036C710.812 145.922 679.157 390.35 665.514 451.111C656.837 489.747 652.437 564.782 661.185 564.6C679.652 564.205 704.45 569.911 722.816 566.917C739.746 564.155 759.457 562.526 774.293 551.964C791.193 539.935 792.123 525.752 794.298 504.517C797.625 472.113 800.963 433.215 803.784 400.76C806.838 365.666 822.352 145.092 824.678 109.947C825.841 92.4145 826.853 76.4908 824.628 59.4543L824.648 59.4442Z" fill="#9A9A9A"/>
<path d="M726.68 7.49456C726.659 7.71713 649.899 3.65023 645.034 3.40743C613.804 1.84946 582.402 1.22223 551.101 0.928844C536.75 0.797328 519.648 2.52728 505.429 6.10858C491.21 9.68988 475.969 18.1474 472.257 35.8921C470.619 43.6718 469.011 51.8764 468.414 59.8382C466.897 67.3144 466.442 75.3673 465.845 82.9447C462.002 131.07 440.632 390.33 439.065 441.125C438.074 473.195 428.921 524.042 466.29 539.985C483.099 547.158 496.266 550.365 514.046 552.237C540.897 555.059 567.798 557.336 594.7 559.217C635.477 562.06 681.887 569.678 713.846 557.993C720.298 555.636 725.83 553.41 730.3 550.699C735.893 547.027 740.242 542.494 743.346 537.143C745.369 533.642 747.038 529.454 748.342 524.588C749.061 521.28 749.86 516.717 750.739 510.91C753.905 490.879 756.929 466.407 759.427 447.63C768.954 372.858 785.196 149.917 784.67 74.9019C784.599 64.593 784.134 56.5402 783.294 50.7939C782.04 41.871 779.775 34.6275 776.518 29.0633C771.735 20.7676 764.403 15.0112 754.502 11.784C750.911 10.4082 746.633 9.35603 741.678 8.68833C737.258 8.08133 732.191 7.53503 726.68 7.49456Z" fill="#B2AFAF"/>
<path d="M715.555 81.2846C712.663 80.89 709.527 80.6776 706.17 80.6472L523.613 70.3586C517.798 70.0551 513.338 70.1664 510.202 70.6418C505.257 71.2994 501.191 73.0395 498.026 75.8823C494.962 78.3811 492.474 82.0433 490.542 86.869C489.035 90.3491 487.64 94.851 486.375 100.375C485.303 105.372 484.373 110.876 483.614 116.885C483.473 117.482 483.392 118.17 483.331 118.939C483.19 119.536 483.109 120.224 483.048 120.993C482.31 126.031 481.743 131.342 481.339 136.906C478.871 170.726 460.546 460.852 461.992 484.99C462.386 491.546 463.155 498.263 465.946 504.242C473.986 521.491 507.765 525.953 523.734 526.651C524.341 526.721 524.948 526.762 525.545 526.782C532.412 527.015 596.197 530.303 627.973 533.904C640.655 534.764 652.427 534.926 663.269 534.38C676.588 533.702 688.562 531.982 699.161 529.21C704.764 527.612 709.507 525.74 713.391 523.616C718.164 520.854 721.876 517.394 724.526 513.226C726.235 510.464 727.63 507.217 728.712 503.463C729.289 500.904 729.946 497.343 730.674 492.79C733.193 477.221 738.401 451.545 739.979 436.815C740.575 431.058 741.132 425.444 741.647 419.95C745.187 380.475 757.687 168.875 756.959 133.628C756.828 125.555 756.352 119.273 755.513 114.781C754.37 107.81 752.358 102.165 749.465 97.8152C745.238 91.3405 738.846 86.7982 730.28 84.1881C727.125 83.0752 723.423 82.2153 719.155 81.6488C718.012 81.497 716.819 81.3756 715.555 81.2745V81.3149V81.2846Z" fill="white"/>
<path d="M639.189 33.6462C634.961 20.3732 617.465 13.858 609.587 29.2253C606.259 35.71 605.521 49.1956 610.274 54.4562C617.404 62.3472 629.106 62.8025 635.76 52.9387C640.392 46.0493 640.969 39.261 639.189 33.6564V33.6462Z" fill="#808080"/>
<path opacity="0.8" d="M620.519 30.0647C620.327 29.4577 619.882 28.9317 619.377 28.6889C618.082 28.1021 616.403 28.7192 615.301 29.7309C613.582 31.3293 612.307 33.7776 611.721 36.2966C611.063 39.1293 610.972 43.095 611.913 45.7456C612.611 47.7487 614.674 49.4989 616.494 48.2646C617.819 47.3541 618.881 44.9565 618.001 43.2063C617.769 42.7308 617.587 42.225 617.425 41.7191C617.405 41.6281 617.394 41.5674 617.374 41.4763C617.324 41.2032 617.293 40.93 617.263 40.6367C617.263 40.5658 617.243 40.495 617.263 40.4343C617.263 40.1814 617.283 39.9285 617.283 39.6655C617.465 37.1262 618.436 34.6881 619.791 32.7153C620.115 32.2601 620.469 31.7947 620.6 31.218C620.691 30.8134 620.671 30.4087 620.55 30.0344V30.0546L620.519 30.0647Z" fill="white"/>
<path d="M622.127 27.1322L622.107 27.3552C622.107 27.3552 622.138 27.1829 622.158 26.9902V27.0308C622.158 27.0308 622.158 27.1018 622.148 27.1322H622.127Z" fill="white"/>
<path d="M622.552 25.6976V25.7385C622.644 25.5646 622.685 25.4521 622.696 25.4316C622.665 25.4828 622.644 25.5237 622.614 25.5851C622.603 25.626 622.583 25.6567 622.562 25.6976H622.552Z" fill="white"/>
<path d="M578.731 160.266C558.362 170.787 545.67 184.667 540.654 201.916C539.107 207.329 538.146 213.702 537.792 221.037C537.64 223.303 537.569 225.883 537.59 228.756C537.64 232.368 537.761 236.384 537.974 240.815C538.358 247.027 538.793 251.943 539.279 255.585C539.936 260.927 541.008 265.682 542.495 269.83C544.012 274.574 546.156 278.692 548.927 282.192C551.819 286.067 555.025 288.758 558.524 290.255C560.385 291.044 562.266 291.51 564.168 291.641C566.069 291.773 568.183 291.55 570.286 290.963C574.119 289.759 577.406 287.483 580.137 284.135C582.796 280.786 584.657 276.719 585.719 271.934C586.781 267.149 586.973 262.343 586.275 257.507C585.881 254.685 585.031 250.466 583.727 244.862C582.756 239.793 582.109 233.126 581.795 224.861C581.411 216.515 585.699 208.755 594.659 201.572C603.62 194.319 612.813 191.678 622.249 193.651C631.674 195.624 638.167 199.64 641.727 205.7C645.287 211.76 647.37 217.759 647.998 223.687C648.625 229.545 648.534 235.686 647.724 242.11C646.956 247.876 646.359 252.247 645.934 255.231C645.287 260.34 645.146 264.599 645.499 268.009C646.035 272.015 647.249 275.707 649.15 279.076C650.991 282.293 653.246 284.802 655.916 286.603C658.738 288.343 661.661 289.173 664.685 289.082C667.86 288.93 670.793 287.918 673.503 286.047C678.773 282.142 682.525 275.738 684.76 266.845C685.953 262.363 686.803 256.385 687.318 248.918C687.46 246.794 687.581 244.518 687.682 242.1C688.036 233.804 687.986 227.036 687.541 221.775C686.792 214.512 685.043 206.813 682.292 198.669C678.914 189.018 674.838 180.823 670.075 174.096C664.695 166.731 658.151 160.873 650.425 156.513C644.336 153.002 637.945 150.726 631.25 149.674C629.723 149.35 628.226 149.168 626.759 149.148C612.075 147.62 596.075 151.343 578.751 160.307L578.731 160.266Z" fill="#AC6BE7"/>
<path d="M679.632 236.607C673.756 235.534 669.236 234.735 666.07 234.219C658.495 232.661 652.235 231.74 647.269 231.467C646.855 231.295 646.501 231.194 646.207 231.174C645.702 231.144 645.328 231.154 645.105 231.204C643.952 231.053 642.789 230.931 641.626 230.85C641.05 230.739 640.503 230.698 639.988 230.739C636.215 230.405 631.897 230.253 627.043 230.284C618.588 229.768 609.86 229.09 600.869 228.24C598.27 227.916 595.802 227.704 593.456 227.613C586.913 227.087 580.936 227.036 575.505 227.481C567.808 227.835 562.924 228.088 560.85 228.24C559.809 228.2 558.777 228.2 557.766 228.24C554.256 228.341 551.05 228.898 548.158 229.909C543.647 231.154 539.481 233.642 535.648 237.365C531.147 241.2 527.345 246.298 524.24 252.672C521.418 258.104 519.072 264.903 517.201 273.067C515.977 277.053 514.925 281.939 514.046 287.726C513.681 288.738 513.459 289.8 513.378 290.903C512.933 292.501 512.609 294.292 512.407 296.275C511.537 300.878 510.779 305.531 510.122 310.215C509.879 311.976 509.666 313.736 509.495 315.506C508.928 319.017 508.402 322.538 507.907 326.058C506.258 337.864 504.994 349.478 504.134 360.89C502.617 368.558 502.011 376.328 502.304 384.199C502.405 390.795 503.275 396.925 504.913 402.591C506.43 408.023 508.463 412.384 511.022 415.672C512.549 417.23 514.288 418.646 516.271 419.921C516.746 420.224 517.221 420.517 517.686 420.801C518.607 421.084 519.648 421.458 520.842 421.903C521.863 422.49 523.35 423.148 525.302 423.876C528.852 425.303 532.543 426.749 536.386 428.196C565.422 431.838 592.303 434.337 617.03 435.682C619.609 435.642 622.198 435.784 624.797 436.107C646.167 436.775 665.817 436.552 683.769 435.429C686.449 435.692 690.545 434.57 696.036 432.061C700.071 430.068 703.207 425.768 705.452 419.162C706.038 417.422 706.564 415.5 707.029 413.385C708.364 405.929 709.426 399.707 710.195 394.72C710.286 394.073 710.377 393.455 710.458 392.848L710.842 390.097C710.862 388.913 710.913 387.729 711.004 386.556C711.095 383.824 711.307 380.688 711.661 377.157C711.924 372.656 712.238 367.536 712.602 361.79C712.733 356.621 712.885 351.077 713.057 345.158C713.188 335.325 713.209 324.146 713.118 311.622C712.976 300.584 712.44 291.803 711.51 285.298C710.731 256.223 700.102 239.975 679.632 236.556V236.607Z" fill="#B980EC"/>
<path d="M638.744 304.672C638.835 302.254 638.713 299.776 638.37 297.247C637.146 290.387 634.193 284.742 629.49 280.291C625.424 276.254 620.56 273.756 614.886 272.774C613.875 272.562 612.924 272.42 612.044 272.359C605.157 271.884 599.049 273.523 593.719 277.276C588.703 280.686 585.203 285.592 583.211 292.006C581.836 295.962 581.3 299.938 581.613 303.934C581.714 305.633 581.997 307.424 582.463 309.295C583.565 313.636 585.679 317.652 588.804 321.324C589.805 322.447 590.837 323.479 591.898 324.41C591.656 325.199 591.413 326.099 591.16 327.121C590.665 328.932 590.321 330.298 590.108 331.239C589.441 333.403 588.44 336.236 587.095 339.757C585.072 344.623 583.909 347.526 583.626 348.457C582.716 350.966 582.028 353.424 581.573 355.822C581.279 356.905 581.057 358.027 580.895 359.201C580.632 361.983 580.784 364.563 581.35 366.96C582.078 370.319 583.636 373.263 586.043 375.782C588.298 378.22 591.059 379.92 594.295 380.881C595.742 381.205 597.38 381.427 599.221 381.549C600.394 381.63 602.113 381.711 604.388 381.792L617.526 381.7C622.906 381.559 626.952 381.023 629.662 380.112C633.818 378.483 637.227 375.56 639.866 371.321C641.879 367.78 642.931 364.168 643.042 360.496C643.082 359.838 643.092 359.252 643.052 358.726C643.001 358.432 642.981 358.169 642.991 357.947C642.91 356.985 642.83 356.095 642.739 355.276C642.294 353.182 641.666 351.077 640.857 348.963C640.038 346.919 638.683 344.178 636.792 340.738L628.671 325.715C628.519 325.432 628.357 325.128 628.185 324.794C631.503 322.204 634.081 318.987 635.912 315.173C637.217 312.32 638.076 309.356 638.511 306.301C638.552 305.643 638.632 305.097 638.734 304.662L638.744 304.672Z" fill="#9D63DB"/>
<path d="M203.646 483.374L190.013 458.801C159.48 510.102 113.171 534.868 51.085 533.098L67.1754 562.092C122.931 562.365 168.421 536.133 203.656 483.394L203.646 483.374Z" fill="#EFB207"/>
<path d="M75.9942 539.854C73.3142 536.04 69.2587 533.804 63.848 533.126C58.4171 532.428 54.2706 532.843 51.4288 534.401C48.5363 535.949 46.4125 538.964 45.0674 543.466C43.7021 547.947 44.1572 552.206 46.4024 556.253C48.6476 560.3 52.5412 562.657 58.0834 563.335C63.5851 563.992 68.0451 563.375 71.4634 561.483C74.8918 559.581 77.1572 556.465 78.3102 552.095C79.4226 547.725 78.6439 543.648 76.0043 539.854H75.9942Z" fill="#EFB207"/>
<path d="M267.623 360.083C264.204 361.823 260.058 363.452 255.183 364.939C243.705 368.439 230.608 370.432 215.883 370.908C195.595 371.565 172.142 368.854 145.544 362.754C141.883 377.21 139.466 391.647 138.313 406.063C136.755 425.699 137.605 444.193 140.841 461.543C142.925 472.641 147.385 482.626 154.201 491.539C158.651 497.366 163.991 502.576 170.211 507.159C173.002 508.646 175.894 509.981 178.868 511.175C186.908 514.382 195.363 516.436 204.222 517.296C212.525 518.146 220.919 517.953 229.384 516.749C239.214 515.363 247.972 512.683 255.628 508.686C264.083 504.316 270.626 498.61 275.258 491.539C280.295 483.931 283.329 474.351 284.36 462.828C285.149 454.168 284.816 443.373 283.369 430.454C283.137 428.289 282.904 426.165 282.631 424.061C281.731 417.131 280.699 410.555 279.526 404.293C276.725 389.381 272.74 374.631 267.582 360.062L267.613 360.093L267.623 360.083Z" fill="#FFC421"/>
<path d="M233.106 314.861C228.767 313.899 223.104 313.404 216.085 313.373C202.068 313.252 190.619 313.92 181.73 315.387C169.533 317.339 159.359 321.011 151.258 326.404C146.717 329.408 142.773 332.949 139.466 337.016C137.484 339.313 135.754 341.811 134.257 344.472C132.103 348.458 130.505 353.233 129.464 358.787C129.12 360.224 128.857 361.751 128.655 363.37C128.007 367.882 127.623 374.771 127.441 384.038L126.925 412.264C126.814 418.496 126.834 424.121 126.955 429.108C127.127 435.431 127.481 440.732 128.017 445.042C129.595 457.192 132.912 467.764 138.009 476.727C140.629 481.259 143.754 485.519 147.405 489.464C149.862 492.226 152.603 494.836 155.607 497.294C157.822 499.166 160.097 500.896 162.453 502.464C164.962 504.164 167.551 505.722 170.21 507.148C163.991 502.565 158.651 497.355 154.201 491.528C147.374 482.615 142.925 472.63 140.841 461.532C137.585 444.192 136.735 425.699 138.313 406.052C139.456 391.636 141.863 377.199 145.544 362.743C172.142 368.843 195.585 371.554 215.883 370.897C230.598 370.421 243.704 368.438 255.183 364.928C260.058 363.421 264.204 361.812 267.623 360.072C265.094 353.112 262.333 346.202 259.32 339.343C257.681 335.61 256.205 332.615 254.849 330.329C252.898 327.102 250.774 324.461 248.488 322.377C244.473 318.725 239.336 316.226 233.136 314.861L233.116 314.881L233.106 314.861Z" fill="#EFB207"/>
<path d="M346.902 324.422C356.61 333.416 358.866 345.009 353.708 359.233C313.325 375.713 274.601 382.552 237.495 379.75L231.457 348.884C269.979 347.235 308.471 339.071 346.912 324.442V324.422H346.902Z" fill="#EFB207"/>
<path d="M341.38 326.394C344.616 321.437 349.086 318.341 354.78 317.117C360.585 315.913 366.036 316.925 371.083 320.192C376.099 323.571 379.194 328.265 380.367 334.285C381.52 340.193 380.407 345.656 377.039 350.714C373.601 355.712 368.949 358.727 363.083 359.759C357.349 360.78 352.039 359.576 347.165 356.187C342.26 352.778 339.276 348.296 338.133 342.499C336.99 336.703 338.062 331.361 341.329 326.394H341.37H341.38Z" fill="#EFB207"/>
<path d="M174.286 105.515C180.415 115.683 187.151 127.307 194.442 140.317L33.5787 235.049L22.9292 242.596C22.1101 195.969 23.6271 160.5 27.4904 136.189C31.3436 111.869 35.389 93.0315 39.6366 79.6572C43.8842 66.283 48.2026 55.1749 52.6222 46.3228C57.9115 35.6902 63.5548 27.87 69.5318 22.8623C70.4319 22.1136 71.3724 21.4055 72.2826 20.7883C75.5998 18.5526 79.0687 17.116 82.6792 16.4989C87.301 15.6592 92.1858 16.1549 97.3031 18.0063C104.656 20.6973 112.635 26.1401 121.242 34.4054C128.351 41.2139 135.663 49.4995 143.198 59.2722C152.583 71.483 162.939 86.9008 174.286 105.536V105.515Z" fill="#FFC421"/>
<path d="M202.533 119.284C198.214 129.906 193.552 141.945 188.556 155.451L345.02 217.051L367.3 227.31C357.773 168.441 351.028 133.7 347.084 123.108C339.66 102.875 332.551 86.0506 325.714 72.5752C320.425 61.8515 315.034 52.5948 309.502 44.8151C302.878 35.4571 296.345 28.8408 289.882 24.9763C288.911 24.3895 287.92 23.8634 286.949 23.4082C283.44 21.7794 279.931 20.96 276.391 20.8891C271.87 20.7677 267.289 21.9817 262.677 24.5008C256.093 28.1529 249.307 34.5264 242.339 43.682C236.615 51.229 230.891 60.1924 225.187 70.6126C218.077 83.6226 210.533 99.8599 202.533 119.294V119.284Z" fill="#FFC421"/>
<path d="M296.072 113.589C328.667 132.76 350.917 157.162 362.84 186.803C363.022 187.501 363.336 188.291 363.73 189.201C365.237 193.359 366.582 197.487 367.755 201.584C368.069 202.929 369.04 206.399 370.699 212.014C370.86 212.581 371.042 213.117 371.204 213.633C371.326 214.078 371.447 214.513 371.548 214.958C371.932 216.334 372.357 217.801 372.822 219.369L371.862 216.415C383.108 263.913 371.042 301.628 335.666 329.57C299.611 357.957 241.894 367.012 162.474 356.683L161.533 356.581C160.926 356.521 160.35 356.48 159.763 356.46C143.248 355.317 123.173 351.179 99.5685 344.027C75.9234 336.834 56.5361 326.333 41.4064 312.513C26.2262 298.684 15.2734 282.517 8.50755 264.024C1.75181 245.49 -0.473141 227.746 1.85294 210.841C1.83271 210.659 1.84283 210.507 1.85294 210.375C1.85294 210.153 1.91362 209.93 1.98441 209.708C2.33838 207.087 2.88451 204.518 3.66324 201.968C3.98687 200.238 4.42174 198.559 4.96786 196.9C5.39263 195.554 5.85784 194.209 6.37363 192.863C6.76805 191.69 7.23326 190.567 7.75916 189.494C9.34696 185.286 14.8284 175.503 24.1833 160.166C19.2176 167.663 17.0635 170.86 17.6804 169.757C19.5312 165.751 21.6954 161.896 24.1429 158.133C24.2642 157.87 24.426 157.607 24.6384 157.364C24.8306 156.878 25.1137 156.464 25.4576 156.099C28.1478 151.881 31.0908 147.844 34.2866 143.99C34.9642 143.12 35.7025 142.27 36.4711 141.45C50.7209 124.849 69.2587 111.546 92.0846 101.581C96.6053 99.5573 101.349 97.6756 106.304 95.9557C136.796 85.1511 169.189 81.3776 203.463 84.6453C237.525 87.7309 268.422 97.4024 296.112 113.63L296.092 113.609L296.072 113.589Z" fill="#FFC421"/>
<path d="M36.9768 289.751C98.4662 349.409 193.117 365.96 320.971 339.383C284.694 359.91 231.852 365.656 162.474 356.642L161.533 356.541C160.926 356.48 160.35 356.44 159.763 356.42C143.248 355.277 123.173 351.139 99.5685 343.986C75.9234 336.793 56.5361 326.292 41.4064 312.473C37.6442 309.053 34.145 305.482 30.8784 301.759C21.038 290.489 13.5946 277.894 8.50755 263.984C1.75181 245.45 -0.473141 227.705 1.85294 210.79C1.83271 210.608 1.84283 210.456 1.85294 210.325C1.85294 210.102 1.91362 209.88 1.98441 209.657C2.33838 207.037 2.88451 204.467 3.66324 201.918C3.98687 200.188 4.42174 198.509 4.96786 196.849C5.39263 195.504 5.85784 194.158 6.37363 192.813C6.76805 191.639 7.23326 190.516 7.75916 189.444C8.78061 186.753 11.4101 181.745 15.597 174.451C1.15512 215.14 8.28506 253.604 36.9768 289.751Z" fill="#EFB207"/>
<path d="M253.171 264.842C253.019 265.287 252.918 265.722 252.857 266.167C252.473 267.624 251.876 269.01 251.027 270.285C249.56 272.096 247.487 273.816 244.767 275.485C242.279 276.881 239.983 277.883 237.839 278.439C237.515 288.809 237.667 294.595 238.304 295.769C239.063 297.175 240.296 298.531 242.026 299.795C242.38 300.079 242.744 300.352 243.138 300.635C243.765 301.434 244.483 302.102 245.313 302.668C246.607 303.579 248.488 304.398 250.986 305.147C256.761 306.806 261.939 307.322 266.5 306.705C268.179 306.624 269.878 306.25 271.618 305.592C274.045 304.682 276.239 303.255 278.252 301.293C278.313 300.938 278.363 300.584 278.424 300.23C278.566 298.45 278.788 297.226 279.071 296.609C279.607 295.172 280.507 294.423 281.721 294.322C282.843 294.201 283.814 294.767 284.583 295.951C285.089 296.811 285.372 297.944 285.422 299.279C285.544 300.979 285.382 302.557 284.937 303.973C284.391 305.612 283.481 306.826 282.247 307.595C281.974 307.767 281.61 307.959 281.155 308.162C281.013 308.293 280.851 308.445 280.669 308.617C277.928 311.096 274.328 313.058 269.868 314.485L267.269 315.203C267.259 315.648 267.127 316.184 266.885 316.801C266.591 317.591 266.207 318.481 265.732 319.401C264.923 320.919 263.881 322.558 262.667 324.369C259.755 328.81 258.126 331.258 257.843 331.693L255.912 334.799C255.254 335.76 254.324 337.004 253.151 338.481C252.099 339.807 251.29 340.748 250.683 341.304C250.41 341.567 249.56 342.255 248.175 343.327C247.012 344.096 246.213 344.562 245.758 344.723C245.262 344.936 244.767 345.047 244.271 345.077C241.47 346.595 238.294 347.748 234.754 348.487C229.323 349.61 223.589 349.65 217.572 348.618C211.251 347.505 205.628 345.411 200.662 342.285C195.17 338.785 191.257 334.465 188.89 329.306C187.444 326.291 186.503 322.71 186.048 318.572C185.977 317.965 185.927 317.408 185.896 316.872C185.684 314.97 185.694 313.23 185.927 311.672C185.927 311.45 185.967 311.247 186.008 311.075C184.137 310.124 182.448 308.84 180.971 307.282C180.84 307.231 180.708 307.18 180.577 307.14C179.474 305.815 178.676 304.307 178.14 302.618C177.199 301.293 176.724 300.048 176.714 298.935C176.633 298.753 176.572 298.571 176.532 298.399C176.38 297.681 176.36 296.76 176.481 295.698C176.623 293.958 176.794 292.764 176.997 292.147C177.199 291.328 177.533 290.731 177.998 290.346C178.696 289.658 179.636 289.436 180.799 289.699C181.932 289.911 182.66 290.468 182.984 291.378C183.045 292.248 183.115 292.875 183.196 293.28C183.449 293.918 183.591 294.383 183.621 294.696C183.56 295.233 183.52 295.627 183.52 295.9L183.692 296.912C183.934 297.792 184.248 298.581 184.622 299.31C185.178 300.22 186.038 301.252 187.171 302.355L188.212 303.458L190.083 304.591C191.358 305.299 192.42 305.805 193.219 306.098C194.301 306.442 194.948 306.685 195.17 306.826C195.302 306.917 195.433 307.008 195.565 307.11C197.436 307.433 199.782 307.666 202.573 307.798C205.769 307.99 208.166 307.97 209.744 307.757C212.04 307.474 214.78 306.553 217.936 304.975C220.909 303.599 223.174 302.102 224.702 300.544C226.229 298.854 227.493 296.437 228.444 293.321C229.02 292.086 229.465 290.812 229.768 289.527L230.658 278.368L229.313 278.388C226.886 277.781 224.6 276.608 222.396 274.868C220.343 273.259 218.896 271.57 218.098 269.729C217.642 268.555 217.43 267.321 217.471 266.066C217.39 265.793 217.349 265.55 217.359 265.328C217.359 264.124 217.632 263.102 218.189 262.323C219.038 260.3 220.858 258.772 223.68 257.791C225.177 257.214 226.785 256.769 228.514 256.466C228.696 256.385 228.878 256.364 229.05 256.415C229.141 256.324 229.283 256.314 229.455 256.364C230.062 256.253 230.648 256.182 231.235 256.152C231.548 256.152 231.882 256.132 232.246 256.051C232.337 256.051 232.519 256.041 232.782 256H233.116C233.743 255.94 234.552 255.97 235.493 256.081C236.15 255.879 236.868 255.788 237.677 255.818C237.95 255.737 238.324 255.798 238.81 255.99C241.925 255.909 244.827 256.314 247.507 257.204C250.501 258.236 252.331 259.814 252.979 261.949C253.181 262.758 253.242 263.719 253.161 264.792V264.862L253.171 264.842Z" fill="#684E3A"/>
<path d="M190.174 181.947C199.539 196.687 202.29 212.55 198.417 229.546C194.543 246.542 185.219 259.684 170.393 268.951C155.678 278.238 139.779 280.979 122.718 277.115C105.616 273.25 92.398 263.973 83.0735 249.233C73.8197 234.523 71.0891 218.661 74.9625 201.665C78.836 184.669 88.1201 171.527 102.855 162.23C117.621 152.943 133.56 150.231 150.661 154.096C167.723 157.94 180.89 167.238 190.164 181.947H190.174Z" fill="white"/>
<path d="M155.657 200.804C160.825 197.557 166.408 196.586 172.344 197.941C178.281 199.287 182.883 202.534 186.129 207.704C189.396 212.853 190.367 218.377 189.011 224.265C187.656 230.224 184.4 234.806 179.232 238.064C174.064 241.291 168.532 242.252 162.565 240.907C156.608 239.561 152.006 236.314 148.74 231.164C145.473 226.015 144.553 220.41 145.878 214.512C147.203 208.614 150.459 204.052 155.627 200.804H155.647H155.657Z" fill="#413535"/>
<path d="M144.118 357.047C143.036 358.149 142.024 359.424 141.074 360.84C141.306 374.032 143.268 386.516 146.96 398.262C150.803 411.171 156.962 421.935 165.467 430.564C173.7 439.052 184.066 444.981 196.596 448.36C207.64 451.132 220.181 451.607 234.178 449.806C234.36 449.624 234.613 449.432 234.946 449.23C236.858 444.283 236.645 439.255 234.319 434.136C233.429 432.487 232.388 430.838 231.194 429.219C224.469 429.209 216.297 428.369 206.679 426.7C197.102 425.02 188.789 420.488 181.75 413.103C174.731 405.758 170.585 396.926 169.31 386.628C168.066 376.359 167.085 366.566 166.377 357.269C159.955 354.022 154.12 353.253 148.881 354.942C148.497 355.013 148.163 355.104 147.9 355.226L146.909 355.661C146.474 355.752 146.06 355.934 145.655 356.217C145.089 356.47 144.573 356.753 144.138 357.047H144.118Z" fill="#FFD154"/>
<path d="M141.074 360.841C142.024 359.424 143.036 358.16 144.118 357.047C140.366 359.131 136.907 362.449 133.731 367.022C133.873 380.619 135.855 393.528 139.658 405.769C140.376 408.915 141.357 411.98 142.621 414.934C142.935 415.643 143.309 416.411 143.744 417.281C147.324 425.466 152.148 432.578 158.226 438.587C166.681 447.237 177.351 453.186 190.255 456.453C201.562 459.316 214.477 459.68 229.02 457.536C231.771 454.733 233.753 451.972 234.946 449.23C234.613 449.422 234.35 449.625 234.178 449.807C220.16 451.607 207.64 451.132 196.596 448.36C184.076 444.981 173.7 439.053 165.467 430.565C156.972 421.935 150.803 411.171 146.96 398.262C143.268 386.496 141.296 374.023 141.074 360.841Z" fill="#EFB207"/>
<path d="M396.326 442.574C397.671 439.417 398.601 436.311 399.127 433.236C399.734 430.95 400.179 428.643 400.462 426.336C401.221 420.307 401.15 414.035 400.26 407.519C400.037 406.235 399.805 404.909 399.562 403.544C399.248 401.945 398.895 400.326 398.48 398.698C395.79 387.934 391.471 377.635 385.525 367.791C379.568 357.806 372.094 348.883 363.093 341.012C355.822 334.416 348.51 329.611 341.167 326.596C337.243 324.836 333.299 323.662 329.324 323.065C328 322.641 326.624 322.327 325.218 322.135C319.868 321.022 313.457 320.718 305.993 321.204C302.049 321.356 298.175 321.801 294.393 322.539C286.343 323.925 278.666 326.202 271.365 329.378C259.856 334.305 250.592 340.932 243.573 349.237C234.066 360.528 228.767 374.863 227.675 392.223C227.574 394.327 227.432 397.646 227.25 402.168C227.29 409.978 227.584 415.926 228.13 420.014C228.787 424.141 229.788 429.392 231.123 435.775C232.469 442.199 236.362 451.041 242.794 462.281C249.186 473.571 258.814 482.423 271.688 488.857C278.383 492.115 285.857 494.32 294.089 495.474C301.856 496.536 309.866 496.546 318.099 495.514C320.485 495.14 322.791 494.776 325.016 494.422C337.85 492.014 350.724 487.32 363.629 480.349C372.428 475.584 379.184 470.698 383.896 465.68C389.671 459.448 393.818 451.739 396.326 442.564V442.574ZM299.844 365.201C311.768 363.471 322.781 366.112 332.905 373.143C343.17 380.053 349.248 389.967 351.129 402.866C353.02 415.765 350.34 425.932 343.109 433.337C335.918 440.652 329.122 445.214 322.72 447.035C316.42 448.745 309.826 449.079 302.929 448.016C295.991 446.964 289.245 444.142 282.702 439.549C276.158 434.956 271.284 427.014 268.068 415.734C264.852 404.393 266.379 393.609 272.649 383.361C278.909 372.971 287.971 366.921 299.834 365.191L299.844 365.201Z" fill="#45D5FF"/>
<path d="M550.12 337.694C551.516 336.652 552.537 335.478 553.184 334.163C553.811 332.595 553.852 330.41 553.296 327.607C552.234 322.347 550.282 316.864 547.46 311.168C545.195 306.727 542.151 301.628 538.328 295.882C536.062 292.492 534.06 289.872 532.331 288.041C529.853 285.32 527.284 283.236 524.655 281.789C524.533 281.698 524.392 281.617 524.21 281.526C523.239 280.12 522.207 279.138 521.095 278.592C520.053 278.137 518.647 277.924 516.867 277.945C516.018 278.329 515.077 278.693 514.066 279.047C465.238 298.37 417.695 322.316 371.426 350.876C371.214 352.697 371.143 354.862 371.224 357.361C371.406 363.208 372.074 368.742 373.247 373.942C373.004 374.316 372.802 374.741 372.62 375.206C372.023 377.068 371.851 378.99 372.094 380.973C372.559 384.089 374.258 387.539 377.171 391.312C381.196 396.795 385.434 399.587 389.883 399.709C391.613 399.79 393.464 399.486 395.456 398.788C396.69 398.363 398.48 397.615 400.816 396.542C413.114 390.634 433.351 381.701 461.537 369.743C462.68 370.684 463.822 372.404 464.945 374.903C466.179 377.392 467.322 379.061 468.343 379.911C470.619 381.6 473.45 382.197 476.838 381.721C478.598 381.549 481.4 380.7 485.243 379.182L493.718 375.581C497.449 374.063 499.937 372.495 501.161 370.876C502.779 368.661 503.153 365.343 502.274 360.911C501.232 354.74 499.24 349.591 496.286 345.473C501.616 343.248 506.946 341.032 512.286 338.807C514.066 341.69 515.461 343.814 516.483 345.17C518.101 347.568 519.932 348.994 521.974 349.449C523.4 349.813 525.029 349.733 526.859 349.206C528.103 348.883 529.701 348.256 531.663 347.315L545.953 340.213C547.804 339.231 549.19 338.392 550.12 337.704V337.694Z" fill="#45D5FF"/>
<path d="M210.017 446.659C207.418 440.811 206.821 435.176 208.227 429.724C209.693 424.271 212.687 420.598 217.197 418.686C221.617 416.815 226.299 417.229 231.225 419.9C236.119 422.51 239.821 426.628 242.329 432.232C244.797 437.756 245.373 443.239 244.079 448.702C242.764 454.135 239.952 457.888 235.614 459.962C231.174 462.046 226.441 461.793 221.374 459.204C216.348 456.553 212.565 452.365 210.017 446.659Z" fill="#EFB207"/>
<path d="M236.403 425.567C235.027 429.34 232.539 432.031 228.929 433.64C225.258 435.228 221.516 435.279 217.713 433.781C213.921 432.233 211.18 429.563 209.491 425.799C207.792 422.005 207.681 418.242 209.117 414.529C210.583 410.766 213.152 408.136 216.864 406.618C220.515 405.101 224.216 405.121 227.968 406.689C231.67 408.206 234.34 410.806 235.988 414.519C237.626 418.202 237.758 421.884 236.382 425.587V425.567H236.403Z" fill="#EFB207"/>
<path d="M249.934 459.578C248.559 463.352 246.071 466.043 242.461 467.651C238.789 469.24 235.047 469.29 231.245 467.793C227.452 466.245 224.712 463.574 223.023 459.811C221.324 456.017 221.212 452.254 222.648 448.541C224.105 444.778 226.684 442.147 230.395 440.63C234.046 439.112 237.748 439.132 241.5 440.701C245.201 442.218 247.871 444.818 249.52 448.531C251.158 452.213 251.29 455.896 249.914 459.599V459.578H249.934Z" fill="#FFD154"/>
<path d="M214.932 446.79C212.889 442.197 213.091 437.453 215.559 432.536C218.097 427.67 222.092 424.048 227.523 421.691C232.843 419.395 238.102 419.02 243.28 420.548C248.458 422.035 252.038 424.969 253.99 429.38C255.942 433.74 255.729 438.363 253.373 443.229C251.057 448.106 247.264 451.768 241.995 454.196C236.615 456.685 231.255 457.201 225.905 455.774C220.595 454.297 216.934 451.323 214.922 446.821V446.801L214.932 446.79Z" fill="#FFD154"/>
<path d="M211.301 449.562C209.117 444.656 208.864 439.78 210.543 434.934C212.303 430.149 215.438 426.8 219.958 424.878C224.378 422.986 228.899 423.057 233.531 425.07C238.152 427.073 241.51 430.422 243.614 435.126C245.677 439.759 245.919 444.484 244.342 449.31C242.734 454.085 239.771 457.514 235.432 459.578C230.972 461.621 226.36 461.662 221.597 459.699C216.864 457.696 213.425 454.307 211.301 449.532V449.552V449.562Z" fill="#FFD154"/>
<path d="M221.222 436.959C218.006 435.482 215.64 433.043 214.123 429.654C212.596 426.245 212.404 422.907 213.496 419.629C214.598 416.361 216.671 414.095 219.716 412.851C222.709 411.626 225.804 411.758 228.969 413.265C232.064 414.712 234.37 417.11 235.856 420.448C237.323 423.736 237.545 427.004 236.544 430.231C235.513 433.529 233.51 435.836 230.567 437.151C227.543 438.446 224.438 438.385 221.233 436.938V436.959H221.222Z" fill="#FFD154"/>
<path d="M328.687 319.109C329.871 315.73 332.267 313.383 335.827 312.017C339.397 310.702 343.129 310.803 347.013 312.341C350.846 313.869 353.667 316.357 355.478 319.807C357.268 323.257 357.541 326.646 356.277 329.985C354.972 333.273 352.525 335.539 348.914 336.813C345.415 338.098 341.784 337.977 338.002 336.49C334.229 335.002 331.438 332.595 329.648 329.236C327.807 325.806 327.484 322.417 328.697 319.119H328.677L328.687 319.109Z" fill="#EFB207"/>
<path d="M357.409 348.144C353.445 347.689 350.209 345.918 347.68 342.802C345.111 339.656 344.009 336.075 344.363 332.068C344.707 327.991 346.426 324.683 349.531 322.114C352.636 319.544 356.216 318.502 360.282 318.957C364.317 319.423 367.624 321.264 370.183 324.471C372.134 326.919 373.207 329.62 373.399 332.584C375.947 331.148 378.769 330.622 381.874 330.976C385.909 331.441 389.216 333.282 391.775 336.489C394.313 339.696 395.375 343.338 394.92 347.395C394.455 351.401 392.634 354.639 389.499 357.138C386.435 359.606 382.936 360.618 378.991 360.162C375.027 359.707 371.791 357.937 369.262 354.821C367.199 352.322 366.077 349.56 365.884 346.505C363.336 347.941 360.514 348.488 357.409 348.144Z" fill="#EFB207"/>
<path d="M414.843 239.217C414.712 239.257 414.611 239.298 414.54 239.318C414.338 239.389 414.156 239.48 414.014 239.611C412.922 240.046 412.133 240.745 411.648 241.706C411.304 242.343 410.99 243.476 410.727 245.105C410.131 247.452 409.716 249.222 409.483 250.436C409.352 251.043 409.261 251.61 409.21 252.106C406.389 254.513 403.436 257.022 400.341 259.632C398.824 260.846 397.812 261.949 397.297 262.92C396.852 263.75 396.67 264.509 396.73 265.176C396.751 265.247 396.771 265.348 396.801 265.46C396.862 265.682 396.973 265.915 397.145 266.137C397.185 266.289 397.236 266.491 397.307 266.754C397.469 267.392 397.914 268.161 398.632 269.071C401.059 271.904 403.901 274.018 407.167 275.414C407.582 275.607 407.926 275.779 408.189 275.94C408.937 277.974 410.232 280.887 412.072 284.691C413.144 286.826 414.085 288.475 414.904 289.628C415.561 290.599 416.239 291.217 416.927 291.48C417.847 291.793 418.909 291.763 420.092 291.378C421.124 290.964 422.014 290.397 422.782 289.669C423.157 289.264 423.763 288.364 424.603 286.957L428.921 280.766C429.154 280.817 429.407 280.817 429.69 280.766C432.764 280.756 435.09 280.726 436.648 280.665C439.338 280.574 441.624 280.331 443.495 279.936C444.729 279.623 445.689 279.087 446.377 278.348C447.186 277.357 447.459 276.092 447.196 274.554C447.014 273.563 446.589 272.308 445.942 270.811L445.568 270.012C445.396 269.617 445.224 269.193 445.062 268.707C444.395 267.26 443.464 265.318 442.281 262.9L441.108 260.29C441.108 260.128 441.138 259.997 441.219 259.885L442.15 256.911C442.605 255.302 442.878 254.422 442.949 254.281C443.211 253.178 443.414 251.842 443.545 250.254C443.828 248.383 443.879 246.835 443.707 245.631C443.667 245.479 443.636 245.348 443.606 245.236C443.576 245.125 443.565 245.004 443.565 244.882C443.535 244.366 443.474 243.901 443.363 243.486C443.12 242.545 442.716 241.867 442.17 241.432C441.341 240.765 440.076 240.643 438.387 241.058C436.901 241.412 435.06 241.999 432.855 242.829C429.386 244.144 427.546 244.832 427.344 244.902C427.141 244.973 426.969 245.024 426.838 245.064C424.441 243.031 422.186 241.432 420.092 240.279C418.939 239.672 417.948 239.318 417.119 239.217C416.381 239.045 415.622 239.045 414.864 239.217H414.843Z" fill="#F584FF"/>
<path d="M530.5 424.747C530.581 424.849 530.632 424.919 530.672 424.96C530.783 425.101 530.915 425.213 531.056 425.294C531.734 426.042 532.482 426.447 533.302 426.498C533.848 426.558 534.717 426.407 535.911 426.063C537.691 425.729 539.036 425.445 539.926 425.213C540.381 425.112 540.785 424.99 541.15 424.849C543.759 426.315 546.479 427.863 549.331 429.492C550.686 430.312 551.779 430.757 552.608 430.838C553.326 430.908 553.892 430.797 554.317 430.514C554.358 430.473 554.418 430.423 554.479 430.352C554.61 430.221 554.722 430.049 554.813 429.826C554.904 429.745 555.015 429.624 555.167 429.472C555.531 429.108 555.895 428.48 556.259 427.57C557.311 424.575 557.725 421.49 557.513 418.323C557.493 417.909 557.493 417.575 557.513 417.302C558.615 415.966 560.112 413.882 562.013 411.029C563.065 409.4 563.844 408.045 564.329 406.962C564.744 406.082 564.926 405.313 564.855 404.646C564.744 403.776 564.35 402.916 563.672 402.076C563.035 401.378 562.337 400.842 561.579 400.467C561.174 400.306 560.355 400.123 559.111 399.931L553.427 398.555C553.377 398.353 553.286 398.141 553.154 397.928C552.062 395.399 551.222 393.507 550.636 392.243C549.625 390.067 548.664 388.267 547.733 386.871C547.086 385.96 546.388 385.363 545.65 385.06C544.699 384.746 543.759 384.969 542.808 385.717C542.201 386.223 541.514 387.002 540.735 388.064L540.33 388.651C540.128 388.934 539.895 389.228 539.632 389.521C538.894 390.583 537.923 392.03 536.72 393.851L535.385 395.733C535.284 395.793 535.172 395.814 535.071 395.783L532.745 396.067C531.501 396.259 530.824 396.35 530.702 396.34C529.873 396.512 528.902 396.815 527.79 397.271C526.434 397.695 525.383 398.201 524.634 398.758C524.543 398.839 524.473 398.92 524.402 398.98C524.341 399.041 524.26 399.092 524.179 399.132C523.835 399.334 523.552 399.557 523.309 399.79C522.763 400.326 522.45 400.892 522.349 401.499C522.197 402.42 522.561 403.502 523.431 404.737C524.189 405.829 525.241 407.144 526.566 408.662C528.67 411.049 529.782 412.324 529.893 412.466C530.005 412.607 530.106 412.729 530.176 412.83C529.661 415.521 529.378 417.929 529.347 420.063C529.347 421.217 529.458 422.158 529.681 422.876C529.833 423.543 530.096 424.161 530.47 424.737L530.5 424.747Z" fill="#FFF680"/>
<path d="M504.913 161.501C504.782 161.46 504.681 161.43 504.62 161.41C504.428 161.349 504.236 161.329 504.054 161.349C502.961 161.076 502.001 161.197 501.161 161.713C500.585 162.037 499.806 162.785 498.835 163.959C497.268 165.527 496.105 166.731 495.356 167.581C494.962 168.006 494.628 168.4 494.355 168.785C490.947 169.139 487.387 169.503 483.665 169.877C481.875 170.009 480.54 170.322 479.67 170.828C478.922 171.253 478.426 171.759 478.163 172.336C478.143 172.406 478.123 172.497 478.093 172.609C478.032 172.821 478.022 173.074 478.052 173.357C478.012 173.499 477.961 173.701 477.9 173.954C477.739 174.561 477.739 175.441 477.9 176.585C478.558 180.267 479.893 183.595 481.905 186.58C482.158 186.974 482.35 187.308 482.492 187.581C482.158 189.655 481.865 192.761 481.602 196.889C481.481 199.226 481.491 201.107 481.622 202.503C481.713 203.657 481.976 204.547 482.411 205.154C483.018 205.933 483.888 206.5 485.03 206.864C486.062 207.117 487.053 207.157 488.004 206.995C488.489 206.884 489.409 206.489 490.744 205.822L497.126 203.232C497.288 203.404 497.5 203.545 497.753 203.667C500.261 205.407 502.162 206.692 503.457 207.531C505.682 208.978 507.654 210.081 509.363 210.819C510.516 211.265 511.538 211.376 512.448 211.163C513.56 210.819 514.369 209.939 514.875 208.543C515.178 207.633 515.421 206.378 515.583 204.79L515.644 203.93C515.684 203.515 515.745 203.07 515.836 202.584C515.957 201.026 516.099 198.922 516.261 196.292L516.513 193.51C516.584 193.378 516.675 193.287 516.797 193.247L518.93 191.355C520.043 190.313 520.67 189.746 520.801 189.665C521.519 188.927 522.308 187.946 523.148 186.732C524.24 185.366 524.999 184.142 525.423 183.069C525.464 182.928 525.494 182.796 525.524 182.695C525.555 182.594 525.595 182.483 525.656 182.392C525.878 181.957 526.04 181.542 526.141 181.147C526.374 180.247 526.364 179.468 526.121 178.8C525.747 177.788 524.786 176.969 523.219 176.352C521.843 175.795 520.073 175.229 517.899 174.652C514.47 173.752 512.66 173.276 512.458 173.206C512.266 173.145 512.104 173.094 511.972 173.054C510.961 170.039 509.869 167.469 508.696 165.345C508.038 164.202 507.401 163.352 506.774 162.796C506.248 162.239 505.641 161.814 504.944 161.511L504.913 161.501Z" fill="#8FFC46"/>
<path d="M299.318 198.194C298.266 198.487 297.467 198.76 296.911 199.003C295.91 199.347 295.161 199.62 294.676 199.833C280.325 204.749 270.181 213.085 264.245 224.851C262.293 228.706 261.069 232.58 260.564 236.485C260.533 236.738 260.735 235.656 261.17 233.258C260.381 239.014 261.737 243.203 265.226 245.803C273.539 236.131 277.827 231.134 278.09 230.81C284.33 223.253 292.916 217.699 303.839 214.158C314.468 210.546 331.64 211.629 355.346 217.425C352.788 207.562 347.215 201.208 338.619 198.335C330.043 195.462 322.387 194.39 315.641 195.128C308.946 195.867 304.415 196.605 301.998 197.334C300.967 197.627 300.066 197.921 299.308 198.204L299.318 198.194Z" fill="#684E3A"/>
<path d="M154.798 533.583L148.709 556.022L204.434 581.921L222.386 566.563C225.43 560.888 215.094 552.35 191.408 540.978C167.551 529.476 155.364 527.017 154.808 533.563H154.798V533.583Z" fill="#106651"/>
<path d="M160.299 478.953L170.858 502.828L170.807 502.99C170.807 502.99 170.898 503.102 170.908 503.193C174.802 513.501 176.329 523.011 175.47 531.711C173.983 546.694 165.053 559.239 148.659 569.345L145.413 582.558C145.271 582.973 145.069 583.519 144.775 584.197C144.401 584.935 144.078 585.896 143.805 587.07C142.935 589.457 142.47 591.734 142.399 593.899L140.912 599.706C141.64 600.97 142.712 602.113 144.138 603.125C146.899 605.209 153.908 607.617 165.154 610.358C167.702 611.006 171.404 611.653 176.258 612.301C180.981 613.07 184.208 613.444 185.917 613.434C189.527 613.626 192.369 613.747 194.422 613.788C194.867 613.818 195.221 613.768 195.494 613.626C195.848 613.373 196.151 613.11 196.394 612.827C198.842 609.812 200.551 606.008 201.522 601.395C203.312 594.364 200.531 588.84 193.158 584.844C190.468 583.286 187.737 581.779 184.976 580.332C197.608 578.885 207.094 565.764 213.445 540.978C218.988 529.111 219.109 514.695 213.82 497.74C212.697 495.15 206.629 481.593 195.605 457.061L160.269 478.973H160.289L160.299 478.953Z" fill="#FFC421"/>
<path d="M170.544 530.325C168.876 536.122 166.003 541.261 161.918 545.763C155.465 553.078 149.883 559.886 145.15 566.189L146.131 566.341L144.624 572.38C142.186 575.749 140.083 579.007 138.313 582.173L138.161 582.639C137.969 583.013 137.807 583.357 137.655 583.67C135.967 588.678 134.783 593.059 134.116 596.792C133.974 597.844 133.883 598.815 133.823 599.705C133.489 601.719 134.207 603.6 135.997 605.34L135.795 606.403C137.221 607.07 138.92 607.718 140.872 608.355C148.315 610.56 157.791 613.191 169.3 616.266C180.819 619.129 188.678 619.069 192.895 616.074C193.926 615.427 194.847 614.597 195.686 613.595C195.413 613.737 195.059 613.788 194.614 613.757C192.541 613.727 189.709 613.616 186.099 613.424C184.379 613.434 181.163 613.069 176.44 612.311C171.586 611.673 167.884 611.026 165.336 610.389C154.08 607.677 147.081 605.29 144.31 603.206C142.884 602.204 141.802 601.051 141.074 599.796L142.55 593.979C142.621 591.804 143.076 589.528 143.946 587.151C144.209 585.987 144.533 585.026 144.907 584.277C145.19 583.589 145.412 583.053 145.534 582.639L148.75 569.426C165.123 559.289 174.033 546.724 175.49 531.731C176.319 523.011 174.792 513.511 170.868 503.223C173.113 513.188 173.022 522.222 170.575 530.356V530.335L170.544 530.325Z" fill="#EFB207"/>
<path d="M213.071 582.598C212.859 582.598 212.747 582.618 212.737 582.689C212.383 582.608 212.141 582.538 212.009 582.477C209.683 582.275 207.994 582.052 206.932 581.85C200.834 585.927 196.991 590.074 195.393 594.334C201.39 590.064 208.055 586.321 215.387 583.114L213.991 582.699C213.83 582.689 213.658 582.669 213.486 582.639C213.334 582.639 213.192 582.618 213.051 582.618H213.071V582.598Z" fill="#1F9478"/>
<path d="M223.144 615.781C225.409 611.937 226.775 608.416 227.25 605.199C227.766 602.002 227.139 597.804 225.359 592.574C223.589 587.343 221.05 584.329 217.743 583.509C216.075 583.094 215.286 582.963 215.397 583.084C208.065 586.311 201.39 590.055 195.403 594.304C197.001 590.065 200.844 585.897 206.942 581.82L206.872 581.799C206.973 581.739 207.074 581.688 207.165 581.617C207.397 581.455 207.61 581.273 207.832 581.071C212.626 577.51 216.621 573.999 219.776 570.529C223.134 566.867 222.709 565.562 218.472 566.594C214.275 567.687 205.152 565.795 191.105 560.929C177.118 556.042 165.649 547.635 156.719 535.688C155.222 532.663 154.039 533.209 153.19 537.296C147.031 558.632 142.277 572.239 138.93 578.107C135.491 584.076 133.206 588.952 132.103 592.705C131.031 596.469 130.799 600.252 131.395 604.056C132.083 604.542 132.761 605.007 133.418 605.462C162.858 626.272 192.733 629.742 223.053 615.862C223.083 615.832 223.124 615.791 223.164 615.761H223.144V615.781Z" fill="#25A384"/>
<path d="M223.184 615.871L223.205 615.8L223.134 615.78C223.134 615.78 223.053 615.851 223.023 615.881C192.703 629.761 162.828 626.291 133.388 605.481C132.72 605.016 132.053 604.541 131.365 604.075C131.183 603.559 131.082 605.289 131.041 609.285C131.061 611.582 132.609 614.141 135.673 616.923C163.708 636.378 191.246 638.968 218.269 624.723L221.93 622.639C222.183 622.224 222.456 621.719 222.77 621.112L223.174 615.861H223.184V615.871Z" fill="#106651"/>
</g>
<defs>
<clipPath id="clip0_666_766">
<rect width="825" height="633" fill="white" transform="translate(0.962891 0.929688)"/>
</clipPath>
</defs>
</svg>
