<svg width="833" height="694" viewBox="0 0 833 694" fill="none" xmlns="http://www.w3.org/2000/svg">
<path d="M339.903 383.894L339.823 376.213C339.657 369.878 338.881 363.448 337.863 357.03C334.05 336.588 326.336 320.105 314.72 307.579C293.493 284.876 267.359 269.471 236.196 261.245C222.753 257.707 210.088 256.085 197.96 256.39C186.074 256.684 176.421 258.829 168.877 262.708C166.596 263.665 164.328 265.109 161.824 266.808C158.481 268.911 155.885 271.712 153.917 275.339C151.949 278.965 151.317 282.653 151.892 286.042C152.061 287.864 152.591 289.548 153.356 290.977C154.632 293.359 156.754 295.581 160.081 297.504C165.386 300.801 172.344 302.315 180.718 302.302C192.492 302.379 204.528 303.176 216.714 305.063C230.97 307.224 243.188 310.33 253.492 314.498C276.792 323.689 296.245 334.275 311.976 346.37C329.062 359.258 338.495 371.882 339.903 383.894Z" fill="#FF952D"/>
<path d="M74.0413 652.604C71.4078 654.556 69.9763 656.648 69.7467 658.881C69.5846 660.084 69.8007 661.288 70.3679 662.492C70.8676 663.614 71.5969 664.584 72.5558 665.414C73.8793 666.536 75.9591 667.565 78.8087 668.511C91.9762 672.894 107.143 675.734 124.294 677.02C134.761 677.826 150.251 678.153 170.752 678.013C182.434 677.955 191.293 677.639 197.303 677.066C207.094 676.12 215.697 674.25 223.111 671.433C226.164 670.288 228.608 668.838 230.458 667.097C232.795 664.923 233.956 662.469 233.929 659.746C233.902 657.431 232.984 655.281 231.161 653.306C229.675 651.67 227.744 650.267 225.34 649.098C221.882 647.38 218.25 646.223 214.441 645.615C212.645 645.323 210.592 645.148 208.269 645.054C207.121 644.996 205.055 644.949 202.057 644.926C190.753 644.867 173.777 644.435 151.102 643.64C130.871 643.208 113.922 643.593 100.228 644.797C94.6097 645.311 90.045 646.013 86.5606 646.901C81.6177 648.163 77.4311 650.068 74.0278 652.616L74.0413 652.604Z" fill="black" fill-opacity="0.15"/>
<path d="M157.42 606.965C156.212 603.554 155.489 601.085 155.252 599.557C154.779 596.648 155.113 594.238 156.256 592.329C157.329 590.64 159.204 589.086 161.884 587.668C167.026 585.054 172.477 583.748 178.234 583.75C178.153 583.022 178.547 582.471 179.417 582.095C180.287 581.72 181.088 581.71 181.822 582.066C182.701 582.492 183.628 583.756 184.601 585.858C185.43 588.034 186.527 591.301 187.892 595.657L201.641 637.907C205.205 637.353 208.046 637.172 210.162 637.364C213.299 637.617 215.789 638.571 217.631 640.224C219.106 641.591 220.112 643.401 220.65 645.654C221.639 649.067 221.279 652.351 219.568 655.506C218.57 657.341 216.81 659.367 214.286 661.584C209.596 665.432 204.31 668.23 198.428 669.979C192.473 671.728 186.539 672.239 180.626 671.51C176.101 670.982 172.913 669.564 171.062 667.254C169.804 665.666 168.935 663.163 168.456 659.743C166.633 647.885 165.175 638.975 164.082 633.012C162.208 622.904 159.987 614.221 157.42 606.965Z" fill="#58B1CC"/>
<path d="M134.47 321.231C134.981 318.676 135.901 314.281 137.23 307.944C138.047 304.418 138.865 301.453 139.683 299.051C140.296 297.263 140.909 295.781 141.574 294.656C142.902 292.05 144.793 289.443 147.144 286.837C149.546 284.18 151.692 282.289 153.685 281.267C157.263 279.273 161.096 278.865 165.184 279.989C167.637 280.756 170.192 282.187 172.798 284.333C173.923 285.304 176.069 287.45 179.238 290.67C181.435 292.714 183.326 294.605 185.063 296.241C187.465 298.591 189.407 300.585 190.889 302.169C200.65 312.748 207.192 325.218 210.513 339.629C211.229 343.002 211.433 345.558 211.127 347.346C210.769 350.311 209.491 352.406 207.345 353.684C206.221 354.297 204.432 354.757 201.979 355.063C193.342 356.034 186.954 356.648 182.866 356.852C179.084 357.057 173.514 357.261 166.206 357.363C161.504 357.363 158.234 357.21 156.394 356.852C153.634 356.341 150.261 355.217 146.173 353.377C140.807 351.179 137.281 348.675 135.492 345.864C133.959 343.462 133.192 339.732 133.192 334.672C133.244 330.737 133.704 326.24 134.572 321.282L134.47 321.231Z" fill="#58B1CC"/>
<path d="M5.48601 337.691C9.47215 333.347 16.5245 330.996 26.5921 330.638C29.9138 330.434 33.2867 330.382 36.6596 330.485C44.683 330.638 52.7064 331.456 60.7809 332.989C64.5626 333.704 67.2201 334.062 68.7021 334.164C69.9797 334.113 71.9217 333.909 74.6302 333.653C77.0321 333.5 78.9741 333.755 80.4561 334.369C82.5003 335.135 84.1357 336.668 85.4133 339.019C86.4865 341.064 87.0997 343.363 87.3041 345.97C87.4574 349.394 86.8441 353.176 85.5154 357.264C84.6466 360.075 83.2157 363.755 81.0694 368.252C73.9147 383.124 67.1178 394.367 60.6787 402.033C56.2326 407.45 51.8887 411.181 47.596 413.225C44.7852 414.503 41.9234 415.116 39.0615 415.116C35.9442 415.116 33.2357 414.4 30.936 413.021C28.6363 411.59 26.1322 409.085 23.5258 405.406C15.5536 394.009 9.11442 381.846 4.2084 368.865C4.10619 368.559 4.00399 368.303 3.90179 368.047C1.70429 362.068 0.579979 357.111 0.528877 353.073C0.324455 346.736 1.95981 341.626 5.48601 337.793V337.691Z" fill="#62C1DC"/>
<path d="M267.446 457.579C267.65 459.981 267.242 462.28 266.168 464.427C268.008 465.193 269.184 466.778 269.746 469.18C270.308 471.275 270.154 473.422 269.337 475.517C268.059 478.634 265.913 481.087 262.898 483.029C259.883 484.869 256.663 485.585 253.29 485.227C252.115 485.074 251.195 484.971 250.53 484.92C249.253 484.767 248.282 484.767 247.566 484.92C246.442 485.227 244.909 485.994 243.018 487.373C238.368 490.695 230.651 494.886 219.817 499.945L192.578 512.824C190.125 514.102 188.132 514.715 186.548 514.613C183.737 514.613 181.386 513.182 179.598 510.269C178.32 508.173 177.604 505.414 177.502 502.041C177.451 498.31 178.064 495.346 179.393 493.046C180.517 491.002 183.022 488.702 186.905 486.096L223.19 460.747C224.927 459.419 225.949 458.448 226.256 457.783C226.46 457.221 226.767 455.688 227.125 453.235C227.482 450.424 228.556 447.869 230.293 445.62C232.184 443.167 234.535 441.532 237.243 440.765C240.003 439.896 242.814 440.101 245.676 441.276C248.435 442.349 250.479 444.138 251.808 446.642C254.108 446.029 256.51 446.08 258.86 446.846C261.16 447.715 263.102 449.044 264.584 450.986C266.117 452.826 267.088 454.972 267.446 457.528V457.579Z" fill="#419CB7"/>
<path d="M44.1187 535.682C46.3162 534.558 48.3603 534.149 50.2512 534.507C53.4708 535.12 56.1794 537.88 58.2746 542.735C58.7857 544.064 59.45 546.057 60.2677 548.663C61.1365 551.321 61.8008 553.314 62.3629 554.591C65.0203 560.928 69.3131 566.192 75.2412 570.434C81.1694 574.574 87.5574 576.925 94.4565 577.385C98.2382 577.691 102.991 577.282 108.612 576.209C111.014 575.647 112.854 575.698 114.081 576.413C114.796 576.771 115.563 577.64 116.38 579.071C118.373 582.24 119.293 585.05 119.242 587.503C119.038 591.081 117.249 593.994 113.876 596.14C111.576 597.776 108.204 598.798 103.86 599.309C100.998 599.667 96.5518 599.718 90.6748 599.411C79.534 598.696 71.1018 597.214 65.327 594.965C57.3547 591.95 50.7111 586.839 45.2941 579.684C39.877 572.529 36.7597 564.659 35.9931 556.124C35.6354 551.474 35.9931 547.641 37.0663 544.626C38.4972 540.486 40.848 537.471 44.1187 535.631V535.682Z" fill="#58B1CC"/>
<path d="M99.6238 524.512C102.639 514.087 107.187 505.552 113.32 498.857C118.379 493.542 124.205 489.505 130.951 486.592C137.083 484.139 143.267 482.912 149.502 482.912C150.779 482.912 152.006 482.963 153.181 483.116C160.336 483.679 166.315 485.672 171.119 489.147C175.718 492.367 179.755 497.477 183.231 504.428C183.844 505.654 184.508 507.187 185.224 508.976C160.898 525.534 128.549 531.36 99.5726 524.512H99.6238Z" fill="#62C1DC"/>
<path d="M99.6229 524.513C128.599 531.361 160.948 525.535 185.274 508.977C187.011 513.269 189.158 519.044 191.662 526.404C194.626 535.449 196.67 542.349 197.692 547.101C199.021 552.723 199.685 557.936 199.685 562.74C199.787 563.2 199.787 563.609 199.685 564.017C199.839 565.295 199.787 566.471 199.583 567.595C199.174 580.678 189.158 596.265 177.761 602.551C173.469 604.902 168.767 606.435 164.014 607.713C148.325 612.006 130.337 613.846 116.794 604.8C101.156 594.374 96.9655 573.574 96.0456 556.045C95.9945 554.665 95.9434 553.234 95.9434 551.803C95.9434 546.539 96.3522 541.02 97.221 535.347C97.8853 531.514 98.703 527.937 99.674 524.513H99.6229Z" fill="#62C1DC"/>
<path d="M247.057 400.394C247.261 401.007 247.363 401.723 247.363 402.489C247.517 402.796 247.517 403.154 247.466 403.665C249.152 419.508 245.728 435.095 237.143 450.529C235.098 454.055 231.266 458.655 225.644 464.379C194.062 484.208 163.501 496.371 134.014 500.817C126.706 501.788 119.5 502.35 112.499 502.401C96.1967 502.146 80.201 498.875 64.5631 492.691C41.3617 481.346 24.3439 461.466 13.4587 433.051C13.3054 431.569 13.152 430.036 13.0498 428.4C12.3854 418.894 12.4877 409.44 13.2542 400.087C14.8385 394.415 16.8827 388.844 19.3868 383.427C24.1906 372.797 30.0677 363.547 37.1201 355.676C42.8438 349.288 49.1806 343.564 56.233 338.556C57.1529 338.045 57.9195 337.636 58.5327 337.278C70.1334 330.226 82.654 324.604 96.0945 320.414C101.665 318.88 107.337 317.654 113.214 316.836C115.208 316.427 117.098 316.121 119.04 316.018C129.619 314.741 140.606 314.383 152.054 314.945C166.21 315.303 178.066 317.245 187.725 320.873C204.282 326.904 218.592 338.658 230.806 356.034C235.15 364.007 239.085 372.746 242.509 382.303C244.604 387.515 246.086 392.728 246.955 397.941C247.108 398.657 247.108 399.474 247.057 400.496V400.394Z" fill="#62C1DC"/>
<path d="M81.8351 373.309C82.3973 372.9 83.0105 372.543 83.5215 372.236C84.2881 371.725 85.0036 371.316 85.719 370.958C86.3834 370.601 86.9966 370.345 87.5076 370.192C87.8143 369.987 88.1209 369.885 88.4786 369.834C88.8875 369.528 89.2963 369.323 89.7562 369.272C90.0629 369.068 90.4206 368.914 90.8805 368.914C91.1872 368.659 91.5449 368.505 91.9026 368.454C91.9537 368.454 92.0049 368.454 92.056 368.454C92.2093 368.454 92.3115 368.403 92.4648 368.352C92.567 368.301 92.6692 368.301 92.8225 368.352C93.0781 368.25 93.3335 368.148 93.5891 368.199C94.2023 367.994 94.8156 367.79 95.3778 367.637C96.0421 367.432 96.7575 367.279 97.4219 367.126C97.984 366.972 98.5462 366.87 99.0061 366.921C99.8238 366.819 100.539 366.717 101.204 366.717C107.847 366.155 115.819 368.557 125.12 373.923C132.377 377.96 137.692 384.042 141.116 392.167C141.525 393.036 141.883 393.956 142.189 394.927C142.343 395.285 142.496 395.694 142.598 396.154C142.7 396.307 142.803 396.46 142.854 396.716V396.92C143.058 397.227 143.109 397.585 143.211 398.045C143.723 399.527 144.131 401.213 144.438 403.053C147.198 417.516 145.051 428.964 138.101 437.396C134.881 441.127 130.946 444.295 126.296 446.851C125.069 447.515 123.741 448.23 122.259 448.844C121.185 449.304 120.061 449.764 118.886 450.172C118.221 450.428 117.506 450.632 116.791 450.888C116.075 451.143 115.308 451.348 114.542 451.552C112.344 452.115 109.994 452.626 107.592 453.137C107.336 453.137 107.081 453.137 106.825 453.137C106.365 453.137 105.292 453.239 103.657 453.494C85.719 455.947 73.3007 449.304 66.4016 433.512C65.9416 432.439 65.4817 431.314 65.0728 430.19C64.4596 428.452 63.8974 426.613 63.3353 424.722C62.3643 421.042 61.5978 417.056 60.9845 412.763C60.9334 410.719 60.8312 408.726 60.7801 406.835C60.6268 401.52 62.6198 395.029 66.7082 387.363C71.9208 380.771 76.9291 376.018 81.784 373.105L81.8351 373.309Z" fill="white"/>
<path d="M154.151 379.287C153.896 377.498 153.793 375.812 153.793 374.227C153.793 366.05 156.502 359.202 161.868 353.683C168.46 346.988 174.746 343.053 180.725 341.928C181.441 341.775 182.105 341.673 182.719 341.622C183.23 341.469 183.69 341.417 184.149 341.417C184.609 341.315 185.018 341.264 185.427 341.264C185.632 341.264 185.836 341.264 186.04 341.264C186.654 341.162 187.216 341.162 187.778 341.264C188.033 341.162 188.289 341.162 188.493 341.264C188.596 341.162 188.698 341.162 188.698 341.264C189.311 341.264 189.822 341.264 190.282 341.264C190.64 341.213 190.895 341.264 191.151 341.366C191.662 341.366 192.071 341.366 192.428 341.469C192.786 341.469 193.042 341.469 193.246 341.469C194.626 341.571 195.955 341.826 197.232 342.133C197.948 342.235 198.714 342.44 199.481 342.644C200.758 342.899 202.036 343.257 203.314 343.717C206.942 344.893 210.877 346.732 215.17 349.134C220.894 353.274 224.726 357.158 226.617 360.735C227.384 362.064 228.099 363.444 228.764 364.773C231.063 369.832 232.648 374.534 233.516 378.878C233.67 379.594 233.772 380.309 233.874 381.024C236.02 394.465 230.45 404.073 217.316 409.848C216.09 410.461 215.221 410.921 214.812 411.177C214.608 411.177 214.352 411.228 214.097 411.432C212.052 412.25 209.957 412.966 207.862 413.63C202.905 415.061 198.05 415.828 193.297 415.879C192.275 415.879 191.202 415.879 190.078 415.828C189.618 415.725 189.158 415.674 188.647 415.674C185.58 415.316 182.565 414.703 179.652 413.783C167.898 409.95 159.824 400.598 155.48 385.88C154.918 383.784 154.509 381.791 154.202 379.9C154.202 379.645 154.151 379.44 154.1 379.236L154.151 379.287Z" fill="white"/>
<path d="M225.644 464.328C220.84 471.636 212.05 478.842 199.274 485.946C198.201 486.355 197.077 486.968 195.799 487.735C195.595 487.735 195.186 487.99 194.522 488.45C194.011 488.45 193.5 488.655 192.937 489.063C191.66 489.574 190.331 490.239 188.951 491.057C184.863 492.692 180.57 494.327 176.073 496.014C174.233 496.525 172.393 497.189 170.503 498.007C160.435 501.124 149.294 503.731 137.029 505.928C137.029 505.724 136.876 505.775 136.518 506.03C136.212 505.979 135.905 506.031 135.445 506.235C132.634 506.797 129.568 507.41 126.246 508.024C126.042 508.024 125.735 508.075 125.275 508.228C124.202 508.228 123.129 508.33 122.004 508.535C116.843 509.046 111.119 509.404 104.68 509.608C103.198 509.557 101.461 509.608 99.5186 509.71C85.6693 509.301 73.0465 506.388 61.6502 500.971C61.7013 500.767 61.6503 500.715 61.4458 500.869C61.4458 500.613 61.4458 500.562 61.3436 500.767C60.066 500.153 58.8395 499.54 57.6641 498.978L54.189 496.883C54.1379 496.627 53.9846 496.474 53.7802 496.576C53.4736 496.218 53.1158 495.963 52.6048 495.86C46.83 491.516 42.7416 488.348 40.3397 486.457C38.1422 484.208 36.9157 483.135 36.6602 483.186C36.4558 482.471 36.0469 482.011 35.3826 481.806C34.5138 480.478 33.4918 479.251 32.3164 478.229C28.1258 473.17 24.4974 467.957 21.4311 462.693C18.2626 454.363 16.3718 448.945 15.7074 446.543C14.7365 442.915 13.9699 438.366 13.51 432.949C24.3441 461.364 41.4129 481.244 64.6143 492.59C80.2522 498.774 96.1968 502.044 112.55 502.3C119.603 502.249 126.757 501.687 134.065 500.716C163.552 496.269 194.062 484.157 225.695 464.277L225.644 464.328Z" fill="#55B3CF"/>
<path d="M139.265 404.84C139.316 405.249 139.316 405.658 139.265 406.016C139.214 407.958 138.754 409.849 137.936 411.739C136.25 416.492 132.928 419.712 128.073 421.347C126.233 422.012 124.342 422.369 122.349 422.421H120.714C118.312 422.165 115.91 421.552 113.508 420.632C108.704 418.332 105.076 414.806 102.674 410.053C101.856 408.06 101.294 406.169 101.039 404.329C100.988 403.665 100.885 403.051 100.834 402.438C100.885 400.19 101.294 398.043 102.061 395.897C103.952 391.195 107.222 387.873 111.873 386.033C113.662 385.369 115.348 385.011 116.932 385.011C117.188 384.909 117.494 384.858 117.801 384.909C118.261 384.858 118.67 384.807 119.027 384.807C121.583 384.807 124.087 385.42 126.54 386.595C131.752 388.691 135.432 392.268 137.578 397.276C138.549 399.065 139.06 401.007 139.214 403.051C139.316 403.614 139.367 404.176 139.316 404.789L139.265 404.84Z" fill="black"/>
<path d="M203.62 356.187C203.977 356.084 204.386 356.033 204.846 356.033C207.197 355.88 209.599 356.289 211.95 357.26C217.06 358.997 220.791 362.166 223.09 366.817C224.164 368.605 224.828 370.496 225.032 372.438C225.134 372.949 225.237 373.511 225.237 374.125C225.288 374.534 225.339 374.942 225.339 375.3C225.339 377.191 224.981 379.082 224.215 381.024C222.681 385.777 219.462 388.997 214.607 390.734C212.665 391.399 210.774 391.756 208.883 391.807H207.299C204.948 391.654 202.546 391.041 200.196 390.121C195.545 387.923 192.07 384.55 189.924 379.951C189.157 378.06 188.697 376.322 188.441 374.687C188.39 374.023 188.339 373.46 188.237 373C188.288 370.854 188.697 368.861 189.361 366.919C191.048 362.473 194.012 359.304 198.254 357.464C199.787 356.749 201.32 356.34 202.853 356.289C203.108 356.187 203.364 356.136 203.671 356.187H203.62Z" fill="black"/>
<path d="M67.0662 512.312L44.6314 497.593C39.3165 494.118 35.6881 491.41 33.695 489.468C32.7241 488.445 31.9064 487.832 31.0887 487.628C30.5266 487.526 29.4534 487.628 27.8181 487.934C25.2117 488.599 22.6565 488.599 20.1012 488.088C17.3927 487.372 15.2464 486.146 13.6622 484.255C12.2313 482.568 11.2602 480.166 10.6981 477.049C14.1221 480.933 18.1083 482.824 22.6055 482.722C23.9342 482.722 25.6717 482.108 27.7158 480.984C29.7089 479.86 31.8553 479.297 34.1039 479.195C45.8068 486.35 57.8163 493.658 70.1325 501.12C94.867 515.991 109.227 524.066 113.111 525.344L118.682 525.19C118.273 525.548 117.864 525.957 117.455 526.264C115.513 527.746 113.367 528.666 111.016 529.126C107.439 529.79 102.839 529.33 97.2689 527.644C91.8007 525.957 86.6392 523.862 81.8865 521.358C77.9515 519.313 72.9943 516.298 67.0151 512.312H67.0662Z" fill="#62C1DC"/>
<path d="M117.302 507.1C117.916 508.071 118.427 509.042 118.887 510.013C120.471 513.642 121.34 517.117 121.544 520.49V520.694C121.033 522.381 120.164 523.863 118.835 525.191L113.265 525.345C109.33 524.067 95.0208 515.992 70.2863 501.121C57.9701 493.659 45.9094 486.402 34.2577 479.196C32.0091 479.247 29.8627 479.861 27.8696 480.985C25.7743 482.109 24.088 482.671 22.7592 482.723C18.2621 482.876 14.2758 480.985 10.8518 477.05C10.5963 475.568 10.443 473.932 10.3919 472.093C10.0853 467.544 10.6475 464.018 12.0784 461.565C12.9472 459.929 14.2248 458.703 15.8601 457.834C17.6488 456.914 19.3864 456.761 21.0217 457.374C20.664 455.33 20.8683 453.286 21.5838 451.241C22.3503 449.248 23.5258 447.613 25.11 446.284C26.592 444.904 28.4318 443.984 30.5271 443.575C32.6223 443.064 34.6665 443.116 36.6596 443.678C37.2217 443.882 38.1416 444.189 39.317 444.649C40.288 444.955 41.2079 445.058 41.9745 445.007C42.3833 445.007 43.8142 444.495 46.2672 443.524C48.0048 442.86 49.8445 442.656 51.8376 442.911C53.8306 443.269 55.5682 444.036 57.1013 445.16C58.5322 446.386 59.6566 447.919 60.4231 449.81C61.1386 451.701 61.2919 453.541 61.0364 455.381C60.4231 457.63 60.1165 459.367 60.2698 460.594C60.4743 462.076 61.4963 463.813 63.3872 465.909C79.3829 482.876 97.4227 496.572 117.456 506.998L117.302 507.1Z" fill="#74CFEB"/>
<path d="M193.188 438.614C193.495 437.336 193.699 436.621 193.75 436.416C194.21 435.905 194.721 435.701 195.232 435.803C196.152 435.752 196.765 435.956 197.174 436.519C197.787 437.03 198.043 437.745 197.992 438.716C198.145 438.869 198.247 439.125 198.35 439.432L198.247 439.738C198.299 440.096 198.299 440.454 198.247 440.812C197.634 443.673 196.868 446.126 194.772 448.375C190.531 452.924 184.245 454.866 178.112 454.355C175.762 454.15 173.922 453.486 172.542 452.361C171.162 453.23 170.498 455.172 169.118 456.194C167.483 457.472 165.592 458.29 163.65 458.903C161.452 459.618 159.204 460.027 156.955 460.181C154.707 460.334 152.509 459.874 150.26 459.874C147.296 459.312 145.303 458.136 144.23 456.297C144.026 455.53 143.821 454.252 143.668 452.515C143.668 451.953 143.668 451.544 143.77 451.339C144.077 450.93 144.23 450.675 144.23 450.624C144.997 449.857 145.865 449.806 146.836 450.522C147.347 450.777 148.012 451.442 148.778 452.413C151.794 454.712 155.882 454.763 159.459 454.559C162.781 454.355 166.103 452.157 166.972 448.835C167.278 447.66 167.227 446.331 166.869 444.951L165.847 432.686C165.541 431.255 165.336 430.182 165.285 429.415C165.643 427.933 166.512 427.217 167.789 427.32C167.943 427.268 168.045 427.268 168.147 427.32C168.198 427.268 168.3 427.268 168.351 427.32C169.118 427.371 169.731 427.728 170.191 428.393C170.549 428.751 170.855 429.568 171.111 430.846C171.878 433.452 172.337 435.65 172.491 437.49C173.002 441.067 173.513 443.622 173.973 445.104C174.893 446.586 175.864 447.609 176.937 448.171C178.061 448.58 179.39 448.784 180.923 448.784C183.274 448.375 185.114 447.762 187.209 446.689C187.822 446.382 188.384 446.075 188.895 445.667C189.713 445.002 190.275 444.185 190.837 443.316C191.655 442.089 192.984 440.249 193.341 438.818L193.188 438.614Z" fill="#113F5B"/>
<path d="M155.577 431.515C155.169 430.39 155.22 429.42 155.782 428.551C156.344 427.784 157.417 427.171 158.95 426.762C164.93 424.922 169.836 424.207 173.617 424.667C175.15 424.82 176.173 425.229 176.684 425.944C177.246 426.711 177.297 427.835 176.888 429.215C176.581 430.748 176.121 432.333 175.406 433.968C174.639 435.859 173.668 437.188 172.544 437.954C170.704 439.13 167.894 439.027 164.112 437.545C160.995 436.421 158.797 435.297 157.468 434.172C156.548 433.406 155.935 432.537 155.577 431.515Z" fill="#113F5B"/>
<path d="M147.145 454.664C149.598 456.248 152.459 457.219 155.474 457.474C160.994 457.934 166.411 455.635 170.499 452.057C171.47 451.188 171.879 450.013 171.828 448.838C171.828 448.838 171.93 448.838 171.981 448.838C174.128 449.604 176.376 449.911 178.574 449.911C178.983 450.013 179.442 450.217 179.851 450.269C184.4 451.035 188.897 450.217 192.678 447.662C192.832 447.918 192.985 448.071 193.036 448.429C195.387 460.847 188.795 472.704 178.267 479.143C171.112 483.487 160.994 484.049 153.328 479.757C145.662 475.464 142.852 461.87 147.093 454.664H147.145Z" fill="#113F5B"/>
<path d="M104.121 593.508C104.704 592.272 105.396 591.291 106.197 590.564C107.872 589.038 110.75 588.492 114.829 588.929C123.061 589.801 129.507 592.236 134.17 596.234C135.918 597.76 136.938 599.25 137.229 600.704C137.52 602.085 137.156 604.011 136.136 606.483C133.732 612.371 131.766 616.805 130.236 619.785C127.686 624.582 124.882 628.507 121.822 631.56C118.326 635.122 113.081 638.647 106.088 642.136C97.7834 646.062 90.4625 648.17 84.1249 648.46C83.1051 654.13 80.9926 658.346 77.7874 661.108C75.8934 662.78 73.7445 663.87 71.3406 664.379C68.7182 664.815 66.3871 664.452 64.3475 663.289C61.288 661.617 59.3212 658.673 58.447 654.457C58.0828 652.858 57.8278 649.187 57.6821 643.445C57.4636 639.738 57.3543 636.976 57.3543 635.158C57.2815 631.887 57.5364 629.125 58.1192 626.872C58.8477 624.037 60.1225 621.566 61.9436 619.458C63.9832 617.204 66.3143 615.896 68.9367 615.533C70.1751 615.387 71.8505 615.46 73.963 615.751C76.2941 616.114 77.9695 616.296 78.9893 616.296C82.8501 616.15 87.2573 614.006 92.2107 609.863C97.5284 605.356 101.025 601.068 102.7 596.997C103.283 595.471 103.757 594.308 104.121 593.508Z" fill="#62C1DC"/>
<path d="M722.213 667.334C725.613 669.349 727.461 671.513 727.765 673.823C727.966 675.067 727.697 676.314 726.957 677.559C726.318 678.714 725.377 679.72 724.133 680.58C722.417 681.738 719.725 682.804 716.057 683.78C699.033 688.317 679.437 691.249 657.266 692.585C643.742 693.413 623.725 693.754 597.214 693.608C582.109 693.548 570.671 693.221 562.899 692.628C550.25 691.649 539.131 689.71 529.543 686.805C525.606 685.62 522.444 684.121 520.056 682.314C517.028 680.061 515.53 677.529 515.564 674.713C515.598 672.311 516.792 670.09 519.147 668.045C521.065 666.355 523.571 664.902 526.666 663.687C531.141 661.91 535.834 660.709 540.746 660.087C543.067 659.79 545.725 659.597 548.719 659.508C550.199 659.449 552.874 659.405 556.743 659.376C571.343 659.316 593.295 658.873 622.598 658.042C648.738 657.598 670.657 657.999 688.353 659.243C695.621 659.776 701.506 660.501 706.014 661.421C712.406 662.724 717.806 664.696 722.213 667.334Z" fill="black" fill-opacity="0.14902"/>
<path d="M627.253 597.005L623.317 618.802L564.653 618.332L555.464 597.787C555.167 591.655 567.564 588.539 592.656 588.433C617.928 588.284 629.46 591.144 627.253 597.005Z" fill="#106651"/>
<path d="M569.98 542.232C571.282 529.724 578.507 523.573 591.656 523.77C609.884 524.233 618.1 536.411 616.303 560.304C614.213 580.586 613.714 609.46 614.809 646.919L614.842 647.465C614.837 647.83 614.831 648.196 614.823 648.558C614.658 654.945 614.132 660.122 613.251 664.085C612.37 667.994 608.203 670.095 600.757 670.388C593.309 670.68 583.899 670.799 572.525 670.745C561.209 670.661 554.109 668.732 551.225 664.956C550.538 664.074 549.951 663.084 549.464 661.983C547.923 658.537 547.435 654.241 548.001 649.094C548.71 642.239 552.983 637.884 560.823 636.028C563.812 635.325 566.815 634.619 569.832 633.913C568.973 595.756 569.023 565.198 569.98 542.232Z" fill="#EFB207"/>
<path d="M534.179 666.098C540.242 668.245 544.894 669.593 548.135 670.136C551.332 670.68 557.887 671.391 567.802 672.273C569.047 672.384 570.381 672.452 571.806 672.476C576.747 672.56 582.941 672.268 590.389 671.594C593.154 671.332 595.987 671.002 598.888 670.607C601.834 670.215 604.824 669.776 607.861 669.295C612.64 668.489 617.598 667.55 622.737 666.484C623.101 666.09 622.539 667.68 621.051 671.253C619.707 674.343 615.014 676.661 606.971 678.211C605.678 678.411 604.315 678.633 602.886 678.873C601.235 679.111 599.585 679.35 597.932 679.588C589.276 680.64 581.163 681.124 573.595 681.037C572.705 681.021 571.837 681.008 570.991 680.994C563.025 680.724 555.825 679.934 549.392 678.622C542.337 677.169 537.978 675.606 536.315 673.934L534.178 666.165L534.179 666.098Z" fill="#106651"/>
<path d="M531.882 655.99C529.72 641.913 533.717 633.471 543.873 630.668C548.392 629.37 554.147 628.734 561.138 628.767C560.876 620.673 559.727 612.412 557.691 603.981C555.743 595.549 556.313 593.469 559.401 597.743C562.446 601.928 571.173 604.5 585.584 605.458C599.951 606.372 613.667 603.697 626.733 597.432C628.658 594.267 629.227 594.676 628.446 598.663C625.898 620.035 625.012 633.971 625.79 640.471C626.611 647.107 626.812 652.309 626.389 656.079C625.923 659.848 624.705 663.315 622.737 666.48C617.598 667.549 612.64 668.485 607.861 669.291C604.824 669.772 601.835 670.21 598.888 670.603C595.987 670.998 593.154 671.328 590.389 671.59C582.941 672.264 576.747 672.556 571.806 672.472C570.381 672.448 569.047 672.38 567.802 672.269C557.887 671.387 551.332 670.676 548.135 670.132C544.894 669.588 540.242 668.241 534.179 666.093C533.129 662.434 532.363 659.066 531.882 655.99Z" fill="#25A384"/>
<path d="M659.455 536.926L665.461 509.978C708.635 549.773 759.276 560.182 817.39 541.203L810.307 572.985C757.757 588.787 707.475 576.766 659.455 536.926Z" fill="#EFB207"/>
<path d="M796.755 553.55C798.223 549.217 801.417 545.977 806.341 543.827C811.273 541.65 815.304 540.898 818.434 541.566C821.595 542.212 824.442 544.467 826.971 548.329C829.507 552.162 830.281 556.3 829.291 560.738C828.302 565.178 825.287 568.484 820.243 570.665C815.235 572.822 810.85 573.483 807.089 572.649C803.331 571.814 800.301 569.504 798.005 565.723C795.74 561.918 795.322 557.861 796.755 553.55Z" fill="#EFB207"/>
<path d="M459.762 451.945C454.854 447.885 451.273 443.566 449.02 438.987C444.818 430.461 445.201 421.077 450.167 410.838C487.342 412.699 518.933 399.226 544.94 370.41L562.313 405.695C550.923 423.202 536.226 435.772 518.219 443.403C501.549 450.47 482.063 453.318 459.762 451.945Z" fill="#EFB207"/>
<path d="M533.794 362.366C537.425 359.461 541.764 358.444 546.812 359.315C551.832 360.208 556.059 362.713 559.491 366.827C562.925 370.941 564.618 375.532 564.571 380.598C564.552 385.754 562.773 389.838 559.233 392.855C555.639 395.96 551.279 397.104 546.15 396.287C541.028 395.489 536.693 392.965 533.147 388.716C529.601 384.466 527.899 379.754 528.04 374.585C528.164 369.402 530.082 365.331 533.794 362.366Z" fill="#EFB207"/>
<path d="M571.452 358.26C575.499 357.024 580.945 356.177 587.79 355.72C601.48 354.763 612.827 354.779 621.837 355.766C634.196 357.062 644.912 360.235 653.985 365.285C659.07 368.109 663.662 371.512 667.758 375.494C670.184 377.739 672.407 380.187 674.429 382.838C677.376 386.804 679.943 391.61 682.131 397.258C682.776 398.719 683.359 400.275 683.879 401.925C685.454 406.526 687.3 413.581 689.415 423.086L695.872 452.057C697.297 458.465 698.469 464.229 699.385 469.358C700.553 475.864 701.328 481.341 701.705 485.788C702.73 498.375 701.694 509.419 698.604 518.922C696.994 523.745 694.825 528.295 692.093 532.572C690.263 535.552 688.135 538.39 685.709 541.087C683.941 543.143 682.071 545.052 680.1 546.813C678.008 548.707 675.809 550.46 673.5 552.077C671.076 553.773 668.536 555.318 665.874 556.711C658.682 560.479 650.843 563.076 642.353 564.499C634.402 565.862 626.153 566.168 617.606 565.421C607.69 564.572 598.56 562.327 590.22 558.688C581.024 554.701 573.416 549.218 567.396 542.239C560.862 534.717 555.878 525.065 552.445 513.282C549.847 504.437 547.896 493.33 546.59 479.967C546.358 477.733 546.148 475.534 545.961 473.367C545.383 466.199 545.008 459.371 544.838 452.884C544.431 437.395 545.221 422.015 547.207 406.742C548.209 399.441 549.462 392.178 550.964 384.956C551.773 381.031 552.601 377.855 553.449 375.432C554.682 372.004 556.202 369.159 558.009 366.892C561.181 362.907 565.662 360.029 571.452 358.26Z" fill="#FFC421"/>
<path d="M571.452 358.26C575.499 357.024 580.945 356.177 587.79 355.72C601.479 354.763 612.827 354.779 621.837 355.766C634.196 357.062 644.911 360.235 653.984 365.285C659.07 368.109 663.662 371.512 667.758 375.494C670.184 377.739 672.407 380.187 674.429 382.838C677.376 386.804 679.943 391.61 682.13 397.258C682.776 398.719 683.358 400.275 683.879 401.925C685.454 406.526 687.3 413.581 689.414 423.086L695.871 452.057C697.297 458.465 698.468 464.229 699.385 469.358C700.553 475.864 701.328 481.341 701.705 485.788C702.73 498.375 701.694 509.419 698.604 518.922C696.994 523.745 694.825 528.295 692.093 532.572C690.263 535.552 688.135 538.39 685.709 541.087C683.941 543.143 682.071 545.052 680.1 546.813C678.007 548.707 675.809 550.46 673.499 552.077C678.623 547.008 682.749 541.344 685.877 535.09C690.683 525.538 692.936 515.005 692.632 503.487C692.16 485.483 689.089 466.439 683.418 446.354C679.262 431.609 673.865 416.921 667.224 402.29C642.477 410.121 620.108 414.297 600.113 414.819C585.608 415.198 572.371 413.927 560.403 411.005C555.315 409.753 550.916 408.33 547.207 406.742C548.209 399.441 549.461 392.178 550.964 384.956C551.773 381.031 552.6 377.855 553.448 375.432C554.682 372.004 556.202 369.159 558.009 366.892C561.181 362.907 565.662 360.029 571.452 358.26Z" fill="#EFB207"/>
<path d="M436.516 404.024C438.706 404.555 440.963 405.322 443.284 406.33C452.534 410.098 459.38 414.933 463.821 420.833C465.982 423.72 467.723 427.023 469.041 430.741C469.303 431.492 469.542 432.24 469.756 432.982C470.222 434.52 470.542 436.051 470.716 437.571C471.12 440.18 471.215 442.738 471.001 445.247C470.765 447.65 470.206 449.953 469.327 452.153C468.666 453.863 467.801 455.499 466.731 457.063C464.374 460.477 461.092 463.228 456.888 465.309C452.729 467.404 448.597 468.37 444.49 468.213C444.106 468.17 443.653 468.107 443.129 468.03C442.163 467.944 440.947 467.771 439.479 467.516C434.763 466.617 431.253 465.324 428.949 463.633C427.417 462.424 426.283 460.994 425.55 459.338C424.804 457.532 424.697 455.733 425.229 453.944C424.788 453.934 424.34 453.948 423.887 453.986C422.739 454.448 421.694 454.687 420.753 454.704C419.8 454.768 418.554 454.614 417.017 454.241C415.712 453.925 414.726 453.614 414.061 453.305C413.478 453.063 412.602 452.506 411.432 451.632C410.44 451.046 409.591 450.373 408.888 449.612L408.22 449.008C406.898 447.947 405.949 446.98 405.372 446.102C404.641 444.842 404.239 443.044 404.163 440.713C404.119 438.044 404.226 436.074 404.483 434.809C404.785 433.159 405.378 431.627 406.262 430.219C406.767 429.356 407.493 428.399 408.438 427.348C408.39 427.139 408.318 426.926 408.224 426.706C407.83 425.28 407.644 423.807 407.667 422.287C407.714 420.871 407.947 419.402 408.366 417.878C408.559 417.285 408.746 416.715 408.928 416.169C409.934 413.852 411.36 411.735 413.206 409.819C415.526 407.576 418.257 405.875 421.399 404.716C424.53 403.605 427.707 403.119 430.929 403.26C432.697 403.293 434.559 403.55 436.516 404.024Z" fill="#EFB207"/>
<path d="M564.717 491.079L564.452 491.887C564.251 492.196 564.12 492.37 564.064 492.412C563.916 492.525 563.763 492.592 563.607 492.615C563.055 492.844 562.615 492.955 562.291 492.947C561.916 492.915 561.571 492.785 561.254 492.555C560.938 492.291 560.714 491.975 560.582 491.606C560.285 490.829 560.401 490.134 560.926 489.521C561.126 489.246 561.461 488.995 561.93 488.767C561.926 488.8 561.949 488.832 561.997 488.858C562.046 488.882 562.089 488.884 562.126 488.854C562.791 488.697 563.343 488.753 563.776 489.02C564.127 489.257 564.383 489.614 564.539 490.09C564.693 490.409 564.752 490.74 564.717 491.079ZM671.184 408.331C672.805 409.83 674.05 411.269 674.915 412.65C675.576 413.717 676.172 415.033 676.712 416.597C676.741 416.637 677.181 418.026 678.023 420.766C678.434 422.083 679.108 424.057 680.049 426.695C680.846 429.064 681.398 431.071 681.707 432.714C682.445 436.662 682.342 440.846 681.401 445.265C681.574 449.673 680.939 454.114 679.499 458.591C677.695 464.257 674.811 469.434 670.849 474.126C667.329 478.327 662.944 482.164 657.686 485.641C653.313 488.548 648.126 491.348 642.131 494.036C635.886 496.816 630.114 498.853 624.812 500.145C618.398 501.738 612.294 502.369 606.492 502.037C601.418 501.751 597.347 500.606 594.272 498.606C593.169 497.883 592.194 497.052 591.35 496.114C589.481 494.018 588.011 491.045 586.939 487.193C585.697 482.693 585.068 478.229 585.047 473.808C585.017 471.147 585.258 468.825 585.773 466.846L595.21 465.948C600.864 465.392 604.934 464.931 607.42 464.565C611.95 463.945 615.939 463.186 619.386 462.283C622.878 461.352 626.095 460.22 629.03 458.889C633.469 457.391 637.015 455.447 639.674 453.056C641.262 451.616 642.504 450.042 643.399 448.34C643.599 447.972 643.774 447.607 643.927 447.243C644.556 446.267 645.032 445.301 645.358 444.343C646.131 442.169 646.334 439.659 645.962 436.813C645.692 434.643 645.052 432.061 644.047 429.067C642.556 424.66 641.724 422.128 641.552 421.476C640.759 418.572 640.411 416.006 640.506 413.78C640.593 411.967 640.613 410.797 640.564 410.272C640.522 409.878 640.457 409.522 640.368 409.201C640.595 408.711 640.868 408.224 641.186 407.741C642.702 405.51 644.794 403.816 647.466 402.656C649.468 401.784 651.553 401.312 653.722 401.241C654.36 401.203 655 401.206 655.646 401.249C658.365 401.424 661.114 402.159 663.888 403.45C666.465 404.672 668.895 406.298 671.184 408.331Z" fill="#FFD154"/>
<path d="M671.182 408.329C672.804 409.829 674.049 411.267 674.914 412.649C675.574 413.715 676.171 415.032 676.711 416.596C676.739 416.635 677.179 418.024 678.021 420.764C678.433 422.081 679.107 424.056 680.047 426.694C680.844 429.062 681.396 431.069 681.705 432.712C682.444 436.66 682.341 440.844 681.399 445.264C681.572 449.671 680.938 454.112 679.498 458.589C677.693 464.255 674.809 469.432 670.848 474.124C667.328 478.325 662.942 482.163 657.685 485.639C653.311 488.547 648.125 491.346 642.13 494.034C635.884 496.814 630.112 498.852 624.81 500.143C618.397 501.736 612.293 502.368 606.49 502.035C601.416 501.75 597.346 500.604 594.271 498.604C600.142 498.524 607.876 497.797 617.47 496.421C627.085 495.026 638.367 491.024 651.32 484.421C656.283 482.092 661.098 478.071 665.77 472.358C670.436 466.643 674.028 458.218 676.537 447.084C679.053 435.919 675.8 424.352 666.78 412.382C665.804 411.083 663.142 408.708 658.796 405.254L653.72 401.239C654.358 401.201 654.999 401.204 655.645 401.247C658.363 401.423 661.112 402.157 663.886 403.449C666.463 404.67 668.893 406.296 671.182 408.329Z" fill="#EFB207"/>
<path d="M710.185 566.463L718.022 588.844L660.233 614.8L640.194 599.507C636.609 593.844 647.096 585.315 671.649 573.924C696.356 562.411 709.202 559.926 710.185 566.463Z" fill="#106651"/>
<path d="M640.5 532.188L640.522 532.224C653.57 525.622 665.107 527.135 675.13 536.763C684.623 551.889 696.968 570.206 712.166 591.712C718.202 600.3 724.7 609.396 731.659 618.993L732.021 619.465C732.238 619.796 732.454 620.123 732.67 620.453C736.504 626.384 739.237 631.407 740.876 635.526C742.465 639.574 739.781 643.733 732.818 648.005C725.88 652.262 716.95 657.435 706.031 663.523C695.152 669.526 687.164 671.579 682.068 669.677C680.85 669.253 679.661 668.666 678.504 667.923C674.9 665.598 671.751 661.929 669.058 656.916C665.49 650.27 666.87 643.997 673.196 638.093C675.621 635.828 678.065 633.566 680.532 631.312C676.45 625.611 672.585 620.191 668.941 615.058C651.208 590.226 638.456 572.131 630.683 560.768C625.082 547.92 628.354 538.393 640.5 532.188Z" fill="#EFB207"/>
<path d="M640.5 532.188L640.522 532.222C653.57 525.622 665.107 527.136 675.13 536.763L674.614 549.184L715.133 610.807C719.978 615.935 722.672 618.86 723.215 619.585C723.621 620.1 724.419 621.214 725.613 622.929C726.11 623.68 726.682 624.549 727.33 625.537C731.985 632.615 732.241 638.628 728.096 643.573C725.659 646.484 719.158 650.793 708.588 656.5C706.119 657.835 702.537 659.484 697.839 661.447C693.22 663.433 690.045 664.635 688.317 665.061C684.711 666.242 681.815 667.107 679.628 667.651C679.256 667.693 678.881 667.784 678.504 667.924C674.9 665.598 671.751 661.929 669.058 656.917C665.49 650.271 666.87 643.997 673.196 638.093C675.621 635.829 678.065 633.566 680.532 631.313C676.45 625.611 672.585 620.191 668.941 615.058C651.208 590.226 638.456 572.132 630.683 560.769C625.082 547.92 628.354 538.393 640.5 532.188Z" fill="#FFC421"/>
<path d="M656.253 676.729C663.354 676.031 668.64 675.213 672.112 674.267C675.538 673.343 682.35 671.068 692.549 667.44C693.829 666.985 695.173 666.446 696.582 665.83C701.474 663.686 707.394 660.622 714.337 656.633C716.908 655.14 719.511 653.556 722.145 651.876C724.823 650.178 727.521 648.418 730.239 646.598C734.493 643.686 738.855 640.567 743.321 637.246C743.468 636.71 743.768 638.468 744.23 642.516C744.569 646.04 741.211 650.345 734.154 655.43C732.991 656.202 731.776 657.022 730.503 657.896C729.011 658.861 727.52 659.83 726.027 660.799C718.1 665.689 710.403 669.795 702.936 673.12C702.054 673.508 701.194 673.884 700.357 674.25C692.398 677.578 684.913 680.072 677.898 681.729C670.2 683.528 665.084 684.01 662.555 683.178L656.29 676.793L656.253 676.729Z" fill="#106651"/>
<path d="M648.577 668.211C638.901 655.873 638.289 646.093 646.746 638.872C650.481 635.609 655.787 632.42 662.658 629.303C658.06 621.77 652.498 614.474 645.973 607.415C639.537 600.321 638.98 598.097 644.304 600.75C649.535 603.337 659.476 601.84 674.126 596.265C688.706 590.663 700.722 581.962 710.176 570.159C710.365 566.301 711.145 566.43 712.518 570.548C721.489 591.909 728.103 605.485 732.355 611.281C736.723 617.187 739.71 622.017 741.322 625.771C742.887 629.544 743.555 633.371 743.322 637.248C738.855 640.569 734.494 643.688 730.24 646.6C727.522 648.42 724.823 650.18 722.145 651.879C719.512 653.558 716.908 655.145 714.338 656.636C707.395 660.624 701.475 663.689 696.583 665.832C695.174 666.448 693.829 666.987 692.547 667.442C682.351 671.07 675.539 673.346 672.112 674.27C668.641 675.215 663.355 676.034 656.254 676.731C653.259 673.741 650.7 670.902 648.577 668.211Z" fill="#25A384"/>
<path d="M529.444 41.1071C530.452 40.2095 531.46 39.3839 532.465 38.6301C536.113 35.9552 539.957 34.1817 543.996 33.3096C549.174 32.1408 554.7 32.4903 560.574 34.358C568.975 37.0247 578.224 42.8158 588.32 51.7315C596.633 59.0707 605.267 68.0795 614.221 78.7576C625.362 92.0957 637.759 109.018 651.413 129.524C658.827 140.714 666.948 153.489 675.78 167.847L498.874 282.315L487.207 291.326C484.094 238.749 484.148 198.641 487.369 171.003C490.591 143.365 494.279 121.907 498.434 106.63C502.59 91.3521 506.942 78.6115 511.491 68.4074C516.95 56.1336 522.934 47.0334 529.444 41.1071Z" fill="#EFB207"/>
<path d="M749.702 148.728C754.381 151.603 758.818 154.591 763.02 157.692C784.15 173.05 800.149 190.883 811.02 211.193C811.627 212.218 812.183 213.257 812.69 214.311C815.061 218.977 817.162 223.798 818.995 228.773C819.296 229.237 819.472 229.726 819.521 230.24C819.681 230.558 819.805 230.857 819.897 231.139C821.565 235.579 823.188 240.781 824.766 246.744C827.588 257.358 829.228 264.174 829.686 267.191C829.968 268.397 830.185 269.651 830.331 270.952C830.583 272.465 830.751 273.974 830.835 275.481C831.028 277.319 831.101 279.16 831.052 281.002C831.283 283.809 831.277 286.597 831.033 289.366C831.036 289.607 831.028 289.846 831.009 290.083C831.006 290.227 830.966 290.388 830.884 290.565C829.48 308.58 823.253 326.412 812.204 344.059C810.808 346.28 809.366 348.434 807.875 350.516C807.347 351.287 806.799 352.039 806.23 352.778C805.969 353.14 804.205 355.21 800.933 358.986C797.707 362.773 791.591 368.721 782.584 376.836C782.001 377.258 781.412 377.694 780.827 378.137C780.545 378.351 780.279 378.554 780.027 378.749L774.215 382.844C772.237 384.164 770.22 385.444 768.162 386.677C768.116 386.669 768.046 386.718 767.956 386.82C767.899 386.858 767.821 386.891 767.72 386.921C749.184 397.838 727.004 404.408 701.176 406.632C675.424 408.823 653.96 408.672 636.782 406.18C636.174 406.069 635.575 405.983 634.984 405.923C634.629 405.883 634.298 405.845 633.992 405.812C613.054 404.1 593.778 401.427 576.155 397.795C572.858 397.121 569.581 396.402 566.324 395.636C558.894 393.845 551.755 391.914 544.907 389.845C542.64 389.068 540.347 388.3 538.029 387.54C537.029 387.213 536.008 386.869 534.966 386.512C534.447 386.32 533.916 386.128 533.374 385.93C531.409 385.211 529.471 384.483 527.558 383.75C506.679 375.554 489.35 365.28 475.573 352.927C470.902 348.707 466.639 344.235 462.784 339.515C440.713 312.492 432.536 283.154 438.254 251.499C446.798 203.147 466.973 166.443 498.778 141.388C512.3 130.733 530.696 122.34 553.966 116.209C582.049 108.795 614.987 108.592 652.783 115.601C688.587 119.794 720.894 130.836 749.702 148.728Z" fill="#EFB207"/>
<path d="M749.702 148.728C754.381 151.603 758.818 154.591 763.02 157.692C784.151 173.05 800.15 190.883 811.02 211.193C811.627 212.218 812.183 213.257 812.69 214.311C815.062 218.977 817.163 223.798 818.995 228.773C819.296 229.237 819.472 229.726 819.521 230.24C819.681 230.557 819.806 230.857 819.898 231.138C821.565 235.579 823.189 240.781 824.766 246.744C824.867 305.359 802.511 347.709 757.696 373.798C680.39 411.379 586.348 404.419 475.572 352.926C470.902 348.707 466.639 344.235 462.784 339.515C440.713 312.492 432.536 283.154 438.254 251.499C446.798 203.147 466.973 166.443 498.778 141.388C512.3 130.733 530.696 122.34 553.966 116.209C582.049 108.795 614.987 108.592 652.783 115.601C688.587 119.794 720.895 130.836 749.702 148.728Z" fill="#FFC421"/>
<path d="M541.898 333.408C541.733 329.809 541.891 326.369 542.372 323.09C543.443 316.128 546.051 309.822 550.198 304.177C554.886 297.798 560.539 293.649 567.156 291.733C571.747 290.324 576.621 290.082 581.776 291.007C584.111 291.334 586.345 291.918 588.476 292.762C598.396 296.257 606.123 303.486 611.654 314.446C616.872 324.764 618.661 335.384 617.021 346.308C616.855 347.568 616.6 348.868 616.258 350.207C615.851 352.167 615.364 354.028 614.796 355.794C614.547 356.578 614.274 357.355 613.976 358.13C611.7 364.11 608.523 368.669 604.443 371.814C599.677 375.497 594.78 377.678 589.753 378.361C584.862 379.001 580.401 379.026 576.37 378.436C572.41 377.796 568.108 376.485 563.462 374.506C558.76 372.431 554.486 368.591 550.64 362.981C546.508 356.797 543.733 348.357 542.316 337.661C542.173 336.201 542.034 334.781 541.898 333.408Z" fill="#684E3A"/>
<path d="M729.979 96.2402C743.691 88.2426 755.735 82.2829 766.117 78.3611C778.727 73.5984 789.432 71.4571 798.237 71.937C804.39 72.2694 809.682 73.8984 814.109 76.8239C817.576 79.0688 820.539 82.0873 822.997 85.8795C823.672 86.9401 824.32 88.0686 824.944 89.2645C828.923 97.1096 831.284 107.736 832.027 121.144C832.653 132.295 832.192 145.748 830.65 161.503C829.102 177.256 820.522 206.788 804.905 250.097C789.297 293.408 769.039 313.903 744.135 311.582L617.441 288.445C622.183 226.523 638.699 181.011 666.986 151.909C695.249 122.808 716.247 104.252 729.979 96.2402Z" fill="#FFC421"/>
<path d="M698.256 194.777C716.305 198.047 730.472 207.297 740.755 222.525C751.013 237.75 754.446 254.505 751.057 272.791C747.671 291.054 738.447 305.515 723.389 316.177C708.316 326.79 691.753 330.458 673.705 327.19C655.747 323.935 641.651 314.712 631.412 299.514C621.063 284.249 617.581 267.485 620.967 249.222C624.359 230.936 633.629 216.482 648.776 205.861C663.807 195.219 680.301 191.524 698.256 194.777Z" fill="white"/>
<path d="M531.997 167.205C548.118 170.113 560.434 178.869 568.945 193.473C577.436 208.073 579.692 224.254 575.714 242.017C571.74 259.756 562.693 273.898 548.571 284.443C534.438 294.938 519.311 298.732 503.19 295.823C487.154 292.93 474.899 284.197 466.424 269.624C457.855 254.985 455.556 238.797 459.529 221.057C463.508 203.295 472.597 189.16 486.799 178.654C500.895 168.129 515.961 164.312 531.997 167.205Z" fill="white"/>
<path d="M643.897 255.241C648.665 251.977 653.869 250.861 659.511 251.893C665.152 252.925 669.608 255.808 672.883 260.543C676.163 265.254 677.285 270.425 676.252 276.054C675.209 281.73 672.316 286.202 667.57 289.47C662.823 292.761 657.627 293.891 651.985 292.858C646.344 291.827 641.877 288.93 638.583 284.168C635.309 279.433 634.192 274.228 635.236 268.552C636.268 262.922 639.155 258.485 643.897 255.241Z" fill="#413535"/>
<path d="M481.412 231.03C486.18 227.766 491.385 226.651 497.026 227.682C502.667 228.714 507.126 231.597 510.4 236.332C513.679 241.043 514.802 246.214 513.768 251.843C512.725 257.519 509.831 261.991 505.087 265.259C500.338 268.55 495.143 269.679 489.502 268.648C483.86 267.616 479.393 264.719 476.099 259.957C472.824 255.222 471.708 250.017 472.751 244.341C473.785 238.711 476.672 234.274 481.412 231.03Z" fill="#413535"/>
<path d="M572.74 272.758C573.747 270.509 576.529 269.744 581.084 270.462C585.591 271.227 590.362 272.567 595.397 274.481C605.321 278.309 614.457 286.634 622.8 299.457C631.239 312.233 634.427 322.88 632.364 331.395C630.399 339.913 623.543 345.702 611.795 348.764C599.951 351.924 586.933 347.52 572.74 335.558C552.41 341.347 537.546 340.511 528.148 333.045C520.524 326.921 517.311 320.486 518.51 313.74C518.798 312.16 522.226 309.506 528.795 305.773C535.364 301.946 544.091 296.108 554.975 288.261C565.908 280.27 571.829 275.103 572.74 272.758Z" fill="#FFC421"/>
<path d="M571.157 326.788L572.813 337.692C571.843 338.492 570.843 339.255 569.814 339.975C562.403 345.128 555.077 347.3 547.838 346.494C543.878 346.047 539.934 344.681 536.007 342.396C533.013 340.426 530.405 337.922 528.185 334.881C526.015 331.824 525.008 329.076 525.163 326.634C525.257 325.162 525.413 323.75 525.633 322.397C525.788 321.44 525.972 320.523 526.186 319.646C530.927 327.432 535.484 332.501 539.855 334.857C542.984 336.439 546.13 337.248 549.294 337.278C557.071 337.286 563.723 334.524 569.251 328.995C569.859 328.351 570.495 327.615 571.157 326.788Z" fill="#684E3A"/>
<path d="M580.149 300.137C580.508 300.724 580.553 301.858 580.283 303.537L576.342 329.887C576.806 330.872 577.261 331.772 577.705 332.587C581.92 339.471 588.296 344.056 596.831 346.342C600.311 347.237 604.047 347.372 608.037 346.747C613.643 345.782 620.376 342.292 628.24 336.276C628.064 338.549 627.652 340.878 627.002 343.263C626.332 345.622 624.288 347.94 620.87 350.215C617.43 352.487 613.711 354.105 609.715 355.065C604.605 356.085 599.804 356.234 595.313 355.512C585.993 353.986 577.814 348.749 570.775 339.806C568.922 334.926 568.216 331.207 568.656 328.648L572.51 304.619C573.262 301.46 573.797 299.642 574.113 299.166C577.11 294.213 579.122 294.538 580.149 300.137Z" fill="#684E3A"/>
<path d="M592.185 298.381C593.706 299.481 594.882 300.628 595.714 301.816C593.15 311.668 585.879 317.129 573.9 318.2C563.315 316.915 556.939 310.88 554.773 300.095C556.457 298.159 558.535 296.601 561.006 295.413C565.472 293.273 570.796 292.497 576.977 293.084C583.159 293.674 588.228 295.437 592.185 298.381Z" fill="#684E3A"/>
<path d="M724.795 114.152C724.861 113.855 724.91 113.54 724.993 113.244C725.041 112.964 725.107 112.667 725.157 112.334C725.223 112.037 725.272 111.722 725.355 111.426C725.368 111.127 725.435 110.812 725.519 110.516C725.524 110.393 725.565 110.271 725.586 110.184L717.26 109.448C717.26 109.448 717.212 109.745 717.186 109.938C717.12 110.235 717.071 110.55 716.987 110.846C716.937 111.179 716.906 111.477 716.824 111.756C716.758 112.053 716.708 112.368 716.625 112.664C716.612 112.963 716.545 113.278 716.46 113.609C716.412 113.889 716.382 114.188 716.332 114.503C716.266 114.8 716.217 115.115 716.132 115.446C716.066 115.743 716.017 116.058 715.969 116.356C715.921 116.636 715.855 116.933 715.807 117.231C715.757 117.564 715.725 117.88 715.642 118.176C715.576 118.473 715.528 118.753 715.48 119.05C715.467 119.349 715.4 119.664 715.315 119.995C715.249 120.292 715.2 120.607 715.116 120.903C715.103 121.203 715.036 121.517 714.989 121.797C714.921 122.129 714.873 122.427 714.824 122.742C714.652 123.034 714.499 123.31 714.327 123.62C714.314 123.919 714.247 124.233 714.163 124.529C714.097 124.826 714.048 125.142 713.965 125.438C713.951 125.737 713.885 126.051 713.801 126.347C713.735 126.644 713.686 126.96 713.603 127.256C713.589 127.555 713.523 127.869 713.439 128.165C713.372 128.497 713.322 128.813 713.276 129.075C713.21 129.372 713.161 129.687 713.077 129.983C713.011 130.28 712.962 130.596 712.912 130.928C712.864 131.208 712.798 131.505 712.749 131.821C712.736 132.12 712.669 132.434 712.584 132.766C712.518 133.062 712.469 133.378 712.386 133.674C712.373 133.955 712.307 134.252 712.258 134.567C712.191 134.9 712.141 135.215 712.093 135.512C712.027 135.809 711.98 136.089 711.931 136.387C711.865 136.684 711.816 136.999 711.766 137.332C711.7 137.629 711.651 137.944 711.568 138.24C711.52 138.52 711.489 138.819 711.441 139.116C711.373 139.448 711.324 139.764 711.241 140.06C711.227 140.359 711.161 140.673 711.077 140.97C711.03 141.25 710.964 141.547 710.914 141.879C710.848 142.176 710.799 142.491 710.715 142.788C710.649 143.084 710.6 143.4 710.552 143.697C710.486 143.994 710.437 144.309 710.353 144.606C710.287 144.902 710.238 145.218 710.19 145.515C710.122 145.847 710.074 146.127 709.991 146.424C709.978 146.723 709.911 147.037 709.827 147.333C709.761 147.63 709.712 147.945 709.662 148.278C709.615 148.558 709.549 148.855 709.5 149.153C709.452 149.451 709.385 149.765 709.302 150.061C709.252 150.394 709.22 150.71 709.137 151.006C709.089 151.286 709.058 151.585 709.01 151.882C708.943 152.214 708.893 152.53 708.81 152.826C708.797 153.125 708.73 153.439 708.683 153.702C708.617 153.999 708.568 154.314 708.483 154.645C708.47 154.944 708.403 155.259 708.32 155.555C708.272 155.835 708.206 156.132 708.157 156.447C708.107 156.78 708.075 157.096 707.992 157.392C707.926 157.689 707.877 158.004 707.828 158.302C707.781 158.582 707.715 158.879 707.63 159.21C707.617 159.509 707.55 159.824 707.466 160.12C707.4 160.417 707.351 160.732 707.268 161.028C707.255 161.31 707.189 161.607 707.141 161.904C706.367 162.664 705.695 163.498 705.126 164.425C704.498 165.474 703.814 166.978 703.111 168.939C702.934 169.355 702.774 169.789 702.633 170.17C702.488 170.658 702.344 171.145 702.196 171.685C701.579 173.704 701.212 175.222 701.042 176.272C700.61 178.493 700.647 180.452 701.153 182.167C701.396 183.059 701.86 184.155 702.577 185.474C704.018 188.394 705.209 190.598 706.22 192.071C706.766 192.888 707.628 194.125 708.917 195.681L709.233 196.118C709.873 195.6 710.419 195.218 710.907 194.94C710.997 194.908 711.79 194.52 713.286 193.792C714.26 193.288 714.987 192.791 715.502 192.32C716.182 191.68 716.931 190.69 717.698 189.296C718.235 188.314 718.641 187.503 718.914 186.898C719.975 184.423 720.399 181.62 720.185 178.454C720.049 175.927 719.505 173.064 718.501 169.828C717.989 168.236 717.637 167.021 717.515 166.187C717.479 165.815 717.425 165.443 717.406 165.054C716.935 163.746 716.681 162.694 716.68 161.918C716.699 161.496 716.724 160.933 716.908 160.341C717.073 159.396 717.185 158.872 717.224 158.786C717.231 158.627 717.237 158.487 717.277 158.365C717.156 158.324 717.033 158.301 716.947 158.262L716.954 158.104C717.02 157.807 717.067 157.527 717.117 157.212C717.183 156.915 717.232 156.599 717.28 156.302C717.348 155.97 717.396 155.672 717.48 155.358C717.528 155.078 717.559 154.78 717.608 154.465C717.674 154.168 717.723 153.853 717.808 153.521C717.821 153.222 717.888 152.908 717.935 152.628C718.001 152.331 718.05 152.015 718.1 151.683C718.166 151.386 718.215 151.07 718.299 150.774C718.365 150.477 718.413 150.197 718.461 149.9C718.511 149.567 718.542 149.251 718.626 148.955C718.692 148.658 718.741 148.343 718.789 148.045C718.837 147.765 718.903 147.468 718.988 147.137C719.001 146.838 719.068 146.523 719.152 146.227C719.235 145.931 719.267 145.615 719.35 145.319C719.363 145.02 719.43 144.705 719.514 144.409C719.58 144.112 719.629 143.797 719.712 143.501C719.762 143.168 719.794 142.852 719.876 142.591C719.942 142.294 719.991 141.979 720.039 141.681C720.105 141.384 720.154 141.069 720.239 140.738C720.253 140.439 720.319 140.124 720.366 139.862C720.432 139.565 720.481 139.25 720.565 138.953C720.615 138.621 720.646 138.305 720.73 138.008C720.777 137.728 720.843 137.432 720.892 137.134C720.905 136.835 720.972 136.52 721.057 136.189C721.123 135.892 721.172 135.577 721.183 135.313C721.249 135.016 721.299 134.701 721.382 134.405C721.45 134.072 721.498 133.775 721.547 133.46C721.613 133.163 721.661 132.883 721.71 132.567C721.76 132.235 721.791 131.919 721.875 131.622C721.941 131.326 721.99 131.01 722.073 130.714C722.086 130.433 722.152 130.136 722.237 129.804C722.303 129.508 722.352 129.192 722.4 128.895C722.466 128.598 722.515 128.282 722.599 127.986C722.665 127.69 722.714 127.374 722.762 127.077C722.828 126.78 722.878 126.464 722.961 126.168C723.027 125.872 723.076 125.556 723.125 125.259C723.085 124.957 723.029 124.62 722.992 124.265C723.005 123.966 723.072 123.652 723.157 123.32C723.204 123.04 723.235 122.742 723.284 122.444C723.35 122.147 723.399 121.832 723.482 121.536C723.55 121.204 723.599 120.889 723.647 120.591C723.695 120.311 723.761 120.014 723.81 119.699C723.876 119.402 723.925 119.087 723.975 118.754C724.041 118.457 724.088 118.177 724.138 117.862C724.151 117.562 724.218 117.248 724.301 116.952C724.369 116.62 724.418 116.305 724.501 116.008C724.514 115.709 724.581 115.395 724.628 115.132C724.696 114.8 724.745 114.485 724.793 114.187L724.795 114.135L724.795 114.152Z" fill="#8226F3"/>
<path d="M621.469 75.4317C621.469 75.4317 621.29 75.5119 621.181 75.5777C619.449 75.2547 617.86 74.9026 616.395 74.5384C615.175 74.2026 614.266 74.0215 613.65 73.9944C613.001 73.9306 612.418 73.9402 611.867 74.0394C611.65 74.9821 611.414 75.924 611.194 76.9194C611.104 76.9508 610.979 76.9981 610.889 77.0295C610.462 77.1341 608.316 77.0045 604.402 76.5854L598.676 141.826C621.143 158.614 649.509 165.999 683.682 164.028L709.409 98.3093C699.325 96.2434 693.758 94.9228 692.759 94.3851C677.139 86.2742 658.812 80.795 637.846 77.9507C635.988 77.7103 633.411 77.3501 630.078 76.9742C629.422 76.6455 628.661 76.2947 627.811 75.9928C626.544 75.5314 625.481 75.2378 624.656 75.1486C623.428 75.0065 622.383 75.1016 621.502 75.5036L621.469 75.4317Z" fill="#6A2EB4"/>
<path d="M577.699 61.9231C571.119 64.7725 570.038 68.9218 574.504 74.4261L617.478 115.711C625.235 118.168 632.482 119.774 639.236 120.565C645.994 121.285 653.41 121.858 661.45 122.283L722.026 117.805C738.721 116.3 739.135 110.482 723.254 100.314L666.993 71.2468C660.404 67.4831 652.093 65.6187 642.006 65.6158L577.697 61.9583L577.699 61.9231Z" fill="#8226F3"/>
<path d="M561.167 405.462C559.785 403.211 557.932 401.255 555.619 399.597C553.531 398.113 551.146 396.915 548.464 396.015C546.212 395.267 543.612 394.674 540.664 394.234C538.822 393.968 536.14 393.681 532.619 393.384C479.557 389.106 426.269 387.713 372.694 389.126C366.277 389.31 361.466 389.474 358.241 389.597C342.703 390.293 327.79 391.583 313.48 393.435C310.849 393.763 308.823 394.101 307.369 394.438C306.428 394.653 305.547 394.899 304.698 395.186C304.473 395.155 304.227 395.165 303.981 395.216C301.965 395.595 300.051 396.434 298.239 397.755C296.417 399.065 294.963 400.652 293.858 402.525C292.875 404.193 292.138 406.179 291.647 408.482C291.34 409.946 291.053 412.034 290.797 414.726C289.15 431.707 287.809 448.115 286.806 463.929C285.26 478.362 284.124 489.857 283.407 498.414C281.636 519.469 280.777 538.365 280.838 555.1C280.859 561.733 281.145 567.107 281.688 571.232C282.445 577.066 283.847 582.092 285.895 586.319C288.085 590.833 290.838 594.037 294.145 595.91C295.813 596.842 297.83 597.558 300.194 598.05C301.77 598.377 303.94 598.664 306.724 598.92C329.387 601.028 358.661 601.837 394.548 601.325C404.364 601.182 419.073 600.905 438.685 600.506C455.901 600.22 470.59 600.179 482.75 600.404C488.4 600.527 492.474 600.557 494.961 600.486C497.838 600.424 501.062 600.24 504.645 599.943C506.855 599.759 510.07 599.442 514.317 599.002C517.982 598.623 520.848 598.306 522.885 598.05C526.037 597.671 528.883 597.231 531.432 596.729C537.041 595.665 541.821 594.201 545.772 592.328C546.089 592.215 546.397 592.092 546.693 591.97C551.279 590.158 555.322 587.486 558.843 583.965C562.549 580.26 565.19 576.073 566.756 571.416C567.452 569.359 567.994 567.025 568.383 564.404C568.639 562.644 568.885 560.259 569.11 557.239C570.441 539.695 570.901 520.442 570.543 499.499C570.277 484.012 569.458 464.881 568.097 442.117C567.779 436.702 567.472 432.587 567.165 429.762C566.684 425.34 566.029 421.113 565.179 417.06C564.688 414.654 564.176 412.627 563.634 410.99C562.938 408.85 562.119 407.008 561.157 405.452L561.167 405.462Z" fill="#CECECE"/>
<path d="M564.463 411.44C563.112 409.249 561.32 407.335 559.079 405.728C557.052 404.275 554.728 403.118 552.118 402.238C549.928 401.511 547.4 400.938 544.533 400.508C542.742 400.252 540.132 399.975 536.713 399.689C485.145 395.564 433.352 394.264 381.292 395.687C375.059 395.871 370.371 396.024 367.249 396.157C352.161 396.854 337.657 398.113 323.757 399.945C321.208 400.272 319.222 400.6 317.82 400.927C316.909 401.132 316.039 401.378 315.23 401.664C315.005 401.634 314.77 401.644 314.534 401.695C312.579 402.064 310.716 402.893 308.956 404.172C307.185 405.452 305.762 407.007 304.708 408.829C303.756 410.457 303.039 412.392 302.558 414.643C302.262 416.076 301.985 418.103 301.729 420.734C300.132 437.295 298.833 453.294 297.86 468.709C296.355 482.783 295.26 493.992 294.554 502.334C292.834 522.867 292.005 541.291 292.067 557.607C292.087 564.076 292.363 569.317 292.896 573.34C293.633 579.021 294.994 583.924 296.98 588.038C299.109 592.44 301.78 595.552 304.994 597.384C306.622 598.295 308.577 598.991 310.87 599.462C312.395 599.789 314.514 600.066 317.226 600.301C339.244 602.338 367.699 603.095 402.573 602.563C412.113 602.42 426.412 602.133 445.471 601.724C462.207 601.427 476.475 601.376 488.298 601.58C493.794 601.693 497.746 601.724 500.161 601.652C502.956 601.591 506.088 601.406 509.568 601.12C511.717 600.936 514.85 600.629 518.964 600.188C522.537 599.82 525.311 599.503 527.296 599.257C530.357 598.878 533.131 598.448 535.598 597.967C541.043 596.923 545.69 595.49 549.539 593.658C549.846 593.545 550.143 593.433 550.429 593.31C554.882 591.539 558.823 588.929 562.241 585.5C565.845 581.887 568.403 577.792 569.939 573.248C570.614 571.241 571.147 568.959 571.515 566.41C571.771 564.691 572.006 562.367 572.211 559.419C573.501 542.315 573.951 523.542 573.593 503.122C573.337 488.024 572.539 469.374 571.208 447.183C570.901 441.901 570.604 437.889 570.297 435.146C569.836 430.837 569.192 426.711 568.362 422.76C567.892 420.416 567.39 418.441 566.858 416.844C566.182 414.756 565.384 412.965 564.452 411.45L564.463 411.44Z" fill="#B8B8B8"/>
<path d="M450.528 474.934C451.132 476.07 452.104 477.308 453.415 478.68C455.953 481.044 458.604 482.344 461.368 482.6C463.139 482.703 464.991 482.314 466.905 481.413C468.686 480.543 470.16 479.335 471.286 477.8C472.504 476.111 473.262 474.432 473.559 472.794C473.682 471.863 473.733 471.013 473.712 470.225C473.487 468.076 472.525 466.192 470.775 464.575C469.024 463.009 466.916 462.036 464.49 461.627C462.504 461.31 460.518 461.402 458.553 461.965C456.455 462.507 454.715 463.408 453.292 464.728C451.879 466.028 450.866 467.646 450.252 469.529C449.709 471.494 449.801 473.286 450.528 474.934ZM411.499 498.046C409.155 501.557 407.609 505.385 406.821 509.561C406.105 512.571 406.094 515.171 406.821 517.361C407.804 520.381 410.352 523.267 414.488 526.051C417.845 528.324 421.121 529.777 424.355 530.412C425.01 530.453 425.778 530.514 426.627 530.586C428.112 530.473 430.026 530.156 432.349 529.634C435.318 528.856 437.293 528.416 438.214 528.293C439.422 528.119 441.828 528.047 445.431 528.047C448.43 527.996 450.804 527.781 452.504 527.372C455.267 526.635 457.611 525.314 459.536 523.431C461.388 521.589 462.739 519.46 463.62 517.034C464.869 512.857 464.551 508.036 462.627 502.57C459.74 495.16 455.134 489.95 448.819 486.981C444.561 484.975 439.811 484.187 434.581 484.658C429.565 485.098 425.041 486.541 421.008 489.018C417.159 491.331 413.976 494.331 411.489 498.026L411.499 498.046ZM437.191 455.526C435.471 455.332 433.803 455.516 432.124 456.089C430.2 456.673 428.654 457.778 427.487 459.406C426.515 460.634 425.798 462.518 425.338 465.056C424.724 468.219 424.672 470.686 425.143 472.436C425.757 474.34 427.139 475.855 429.319 477.022C431.356 478.107 433.557 478.547 435.922 478.311C438.716 478.056 440.937 477.032 442.626 475.241C444.1 473.787 445.103 471.464 445.656 468.28C446.352 464.237 445.942 461.105 444.428 458.874C443.24 457.256 441.418 456.233 438.951 455.782C438.777 455.619 438.583 455.578 438.368 455.598C438.194 455.506 438.02 455.475 437.887 455.526C437.631 455.414 437.406 455.404 437.191 455.496V455.516V455.526ZM420.199 477.308C420.537 475.578 420.496 473.982 420.066 472.446C419.534 470.88 418.613 469.519 417.313 468.352C415.931 467.206 414.385 466.51 412.707 466.295C410.721 466.028 408.715 466.274 406.719 467.062C404.661 467.83 402.993 468.987 401.672 470.481C399.4 472.825 398.018 475.742 397.506 479.222C397.414 479.396 397.353 479.581 397.322 479.826C397.23 480.307 397.23 480.778 397.24 481.249C396.933 484.054 397.373 486.244 398.54 487.81C399.472 488.895 400.751 489.632 402.338 490.011C403.822 490.4 405.265 490.267 406.668 489.612C407.22 489.305 407.957 488.844 408.858 488.25C409.779 487.473 410.465 486.889 410.885 486.5C414.17 484.699 416.412 483.102 417.61 481.72C418.848 480.461 419.708 478.987 420.199 477.278V477.298V477.308Z" fill="#DBDBDB"/>
<path d="M563.287 513.345C558.991 512.262 555.008 510.001 551.338 506.565C549.635 504.997 548.226 503.343 547.113 501.601C546.715 500.985 546.353 500.361 546.021 499.721C544.591 496.876 543.956 493.829 544.115 490.583C544.244 488.001 544.913 485.844 546.122 484.116C546.489 483.572 546.779 483.168 546.987 482.902C547.33 482.44 547.55 481.983 547.655 481.532C547.845 480.989 547.844 480.397 547.65 479.754C547.519 479.615 547.244 479.125 546.825 478.284C545.876 476.476 545.437 474.428 545.512 472.135C545.569 469.828 546.152 467.578 547.264 465.384C548.357 463.257 549.809 461.443 551.619 459.939C553.386 458.421 555.247 457.417 557.199 456.926C557.13 454.177 557.794 451.388 559.192 448.558C560.512 445.812 562.228 443.525 564.34 441.696C564.568 441.558 564.817 441.387 565.085 441.178C566.887 439.818 568.848 438.84 570.967 438.242C573.155 437.542 575.388 437.318 577.662 437.568C581.408 438.011 585.106 439.586 588.751 442.297C591.202 444.187 593.351 446.359 595.199 448.813C595.698 449.509 596.196 450.223 596.692 450.956C598.772 454.302 600.256 457.971 601.146 461.969C601.7 464.134 602.099 466.938 602.342 470.378C602.74 474.872 602.749 478.766 602.366 482.063C601.917 485.844 601.015 489.246 599.656 492.273C599.372 492.837 599.083 493.402 598.79 493.969C597.625 496.175 596.02 498.452 593.979 500.798C592.798 502.244 591.582 503.548 590.329 504.71C589.155 505.821 587.962 506.834 586.75 507.745C585.895 508.388 585.03 508.978 584.158 509.515C581.449 511.309 578.633 512.567 575.709 513.287C572.791 514.05 569.868 514.286 566.936 513.999C565.658 513.885 564.44 513.665 563.287 513.345Z" fill="#FFD154"/>
<path d="M253.905 169.925C255.445 176.347 258.343 181.614 262.465 185.723C267.118 190.42 272.875 192.793 279.6 192.841C292.108 193.077 302.979 195.195 312.08 199.195C321.581 203.489 331.451 210.7 341.688 221.12C351.924 231.539 360.417 241.509 367.165 251.174C379.072 268.308 385.513 292.834 386.221 324.459C386.385 333.494 386.108 345.732 385.389 361.318C384.678 376.175 384.428 386.082 384.639 391.038L390.201 375.487C394.52 362.695 398.032 349.898 401.004 337.242C410.218 296.801 410.86 264.749 402.792 241.377C395.764 221.072 390.005 207.334 385.519 199.87C383.538 196.65 381.022 193.281 377.964 190.199C374.109 186.237 370.92 182.863 368.394 180.222C356.036 167.164 343.106 157.017 329.469 149.779C310.752 139.881 293.699 137.281 278.442 142.125C275.472 142.978 272.77 143.978 270.334 145.272C266.141 147.282 262.201 150.605 258.648 155.388C254.41 161.186 252.877 165.837 253.905 169.925Z" fill="#0099D3"/>
<path d="M57.9707 183.597C57.2483 182.832 56.6753 182.465 56.2081 182.489C55.8095 182.726 55.5602 183.361 55.4292 184.426L50.779 206.539L31.4058 219.14C29.0262 220.661 28.9948 222.099 31.349 223.44L51.4968 235.102L56.0399 258.69C56.5004 261.011 57.5655 261.239 59.2787 259.381L75.9429 243.51L98.6895 246.529C101.162 247.022 101.91 246.204 100.926 244.054L90.8143 222.281L100.304 200.954C101.407 198.486 100.56 197.335 97.7446 197.508L74.6984 198.739L57.9707 183.597Z" fill="#E15FF2"/>
<path d="M396.214 13.2633C395.958 12.0526 395.608 11.3333 395.124 11.0716C394.579 11.0646 393.94 11.5489 393.156 12.5372L374.939 31.8725L347.781 32.6412C344.461 32.7093 343.549 34.132 345.089 36.9202L358.154 60.9685L348.255 87.4179C347.295 90.0283 348.224 90.9095 351.081 90.0955L377.526 84.3858L398.495 101.356C400.673 103.366 401.925 103.002 402.256 100.242L405.455 72.2019L428.046 56.6213C430.665 54.8209 430.521 53.1472 427.59 51.5949L403.715 38.7065L396.214 13.2633Z" fill="#FCC248"/>
</svg>
