<svg width="362" height="592" viewBox="0 0 362 592" fill="none" xmlns="http://www.w3.org/2000/svg">
<g clip-path="url(#clip0_425_9303)">
<path d="M234.13 570.15C236.57 571.79 237.9 573.56 238.12 575.45C238.27 576.47 238.07 577.48 237.54 578.5C237.08 579.44 236.4 580.27 235.51 580.97C234.28 581.91 232.34 582.78 229.71 583.58C217.47 587.28 203.39 589.67 187.45 590.76C177.73 591.44 163.34 591.72 144.28 591.59C133.42 591.54 125.2 591.28 119.61 590.79C110.52 589.99 102.52 588.41 95.6299 586.04C92.7999 585.07 90.5299 583.85 88.8099 582.38C86.6299 580.54 85.5599 578.47 85.5799 576.18C85.5999 574.22 86.4599 572.41 88.1599 570.74C89.5399 569.36 91.3399 568.18 93.5699 567.18C96.7899 565.73 100.16 564.75 103.69 564.24C105.36 564 107.27 563.84 109.42 563.77C110.48 563.72 112.41 563.69 115.19 563.66C125.69 563.61 141.47 563.25 162.53 562.57C181.32 562.21 197.08 562.53 209.8 563.55C215.02 563.99 219.26 564.58 222.5 565.33C227.1 566.39 230.98 568 234.14 570.15H234.13Z" fill="black" fill-opacity="0.2"/>
<path d="M156.27 509.73L151.21 526.23L107.1 524.76L100.61 508.6C100.51 503.82 109.9 501.63 128.77 502.02C147.78 502.38 156.95 504.95 156.27 509.73Z" fill="#106651"/>
<path d="M157.36 508.79L160.72 527.02L210.42 527.48L219.98 510.16C220.76 504.96 210.54 502.13 189.31 501.67C167.93 501.18 157.29 503.55 157.37 508.79H157.36Z" fill="#106651"/>
<path d="M185.99 468.81L185.29 444.99C229.77 469.13 274.25 467.11 318.74 438.92L319.57 467.01C279.05 491.37 234.53 491.96 185.99 468.81Z" fill="#EFB207"/>
<path d="M303.53 453.25C303.83 449.31 305.81 445.93 309.47 443.08C313.12 440.21 316.33 438.73 319.08 438.63C321.86 438.5 324.71 439.78 327.64 442.48C330.57 445.15 332.09 448.45 332.21 452.37C332.33 456.29 330.51 459.7 326.76 462.59C323.04 465.46 319.51 466.94 316.2 467.04C312.88 467.14 309.87 465.85 307.15 463.17C304.45 460.47 303.25 457.16 303.53 453.25Z" fill="#EFB207"/>
<path d="M112.44 457.66C114.16 446.9 120.67 441.75 131.97 442.21C147.63 443.01 154.12 453.7 151.43 474.28C148.67 491.73 146.86 516.64 146.02 548.98V549.45C146 549.76 145.98 550.08 145.95 550.39C145.5 555.9 144.81 560.35 143.86 563.75C142.92 567.1 139.23 568.82 132.81 568.91C126.39 569 118.29 568.89 108.5 568.59C98.7702 568.27 92.7502 566.45 90.4502 563.12C89.9002 562.35 89.4402 561.48 89.0802 560.52C87.9202 557.51 87.7002 553.8 88.4402 549.37C89.3802 543.47 93.2602 539.81 100.09 538.38C102.7 537.84 105.31 537.3 107.94 536.75C109.02 503.81 110.52 477.44 112.43 457.65L112.44 457.66Z" fill="#EFB207"/>
<path d="M98.0799 332.04C101.59 333.66 105.76 335.13 110.6 336.46C121.98 339.56 134.61 341.11 148.49 341.11C167.63 341.11 189.13 337.67 213.01 330.78C218.99 344.97 223.79 359.19 227.4 373.43C232.32 392.83 234.78 411.16 234.78 428.43C234.78 439.48 232.36 449.52 227.52 458.56C224.37 464.48 220.28 469.8 215.25 474.54C212.89 476.11 210.42 477.52 207.84 478.79C200.87 482.22 193.3 484.51 185.14 485.67C177.5 486.78 169.6 486.87 161.44 485.94C151.97 484.88 143.3 482.5 135.41 478.8C126.71 474.75 119.57 469.3 113.99 462.46C107.93 455.09 103.4 445.71 100.41 434.33C98.1499 425.78 96.5599 415.09 95.6499 402.24C95.4799 400.09 95.3399 397.98 95.2099 395.9C94.8399 389.01 94.6499 382.46 94.6499 376.24C94.6499 361.38 95.7899 346.66 98.0799 332.06V332.04Z" fill="#FFC421"/>
<path d="M122.49 286.17C126.39 285.08 131.62 284.41 138.18 284.14C151.3 283.56 162.16 283.86 170.75 285.04C182.54 286.59 192.71 289.9 201.26 294.97C206.06 297.8 210.36 301.18 214.18 305.1C216.44 307.31 218.51 309.72 220.38 312.31C223.1 316.18 225.43 320.86 227.39 326.33C227.97 327.75 228.49 329.25 228.95 330.85C230.34 335.3 231.93 342.11 233.71 351.28L239.16 379.21C240.36 385.39 241.34 390.95 242.09 395.88C243.04 402.15 243.65 407.42 243.9 411.69C244.56 423.78 243.3 434.34 240.1 443.38C238.44 447.96 236.25 452.27 233.53 456.3C231.7 459.11 229.6 461.78 227.21 464.3C225.47 466.23 223.63 468.01 221.7 469.65C219.65 471.41 217.5 473.04 215.25 474.53C220.28 469.8 224.37 464.47 227.52 458.55C232.36 449.52 234.78 439.47 234.78 428.42C234.78 411.15 232.32 392.81 227.4 373.42C223.79 359.18 219 344.97 213.01 330.77C189.14 337.66 167.63 341.1 148.49 341.1C134.6 341.1 121.97 339.55 110.6 336.45C105.76 335.12 101.59 333.65 98.0801 332.03C99.2201 325.06 100.6 318.12 102.22 311.24C103.09 307.5 103.96 304.48 104.84 302.17C106.11 298.91 107.63 296.22 109.42 294.1C112.55 290.36 116.91 287.71 122.5 286.16L122.49 286.17Z" fill="#EFB207"/>
<path d="M170.17 551.64V552.15C170.22 552.49 170.25 552.83 170.28 553.17C170.92 559.24 171.81 564.18 172.96 567.97C174.1 571.69 178.22 573.75 185.32 574.14C192.4 574.53 201.34 574.79 212.14 574.94C222.86 575.04 229.45 573.32 231.88 569.79C232.48 568.97 232.97 568.04 233.35 567C233.02 567.05 232.71 567.13 232.43 567.25C230.64 567.73 228.19 568.27 225.08 568.85C223.67 569.24 220.84 569.62 216.59 570.01C212.3 570.45 208.95 570.66 206.53 570.66C196.18 570.66 189.37 570.06 186.11 568.85C180.56 566.79 177.44 562.13 176.73 554.85C176.63 553.83 176.54 552.94 176.47 552.17C176.34 550.38 176.28 549.21 176.27 548.65C176.24 547.88 176.47 544.55 176.97 538.67L170.79 475.29L163.61 466.07C165.44 481.44 167.07 500.41 168.5 522.96C169.1 531.96 169.65 541.52 170.17 551.66V551.64Z" fill="#EFB207"/>
<path d="M184.73 448.38V448.42C172.2 448.76 165.15 454.64 163.6 466.05L170.78 475.27L176.96 538.65C176.47 544.53 176.24 547.85 176.26 548.63C176.26 549.19 176.33 550.36 176.46 552.15C176.54 552.92 176.62 553.82 176.72 554.83C177.43 562.11 180.56 566.78 186.1 568.83C189.36 570.04 196.17 570.64 206.52 570.64C208.94 570.64 212.29 570.42 216.58 569.99C220.82 569.6 223.65 569.22 225.07 568.83C228.18 568.25 230.63 567.72 232.42 567.23C232.7 567.11 233 567.02 233.34 566.98C234.52 563.74 234.66 559.66 233.74 554.75C232.52 548.24 228.14 544.05 220.58 542.16C217.68 541.43 214.77 540.72 211.85 540.02C211.51 534.02 211.17 528.32 210.84 522.93C209.31 496.81 208.08 477.85 207.14 466.04C203.91 453.99 196.44 448.1 184.74 448.37L184.73 448.38Z" fill="#FFC421"/>
<path d="M81.2599 567.44L79.9399 561.35V561.3C84.5599 563.09 88.1099 564.23 90.5999 564.72C93.0599 565.21 98.1099 565.89 105.77 566.77C106.73 566.88 107.76 566.96 108.87 567.01C112.7 567.17 117.52 567.07 123.32 566.7C125.48 566.55 127.69 566.35 129.96 566.1C132.26 565.85 134.6 565.57 136.98 565.26C140.72 564.73 144.61 564.1 148.64 563.37C148.94 563.07 148.43 564.3 147.13 567.05C145.95 569.43 142.21 571.14 135.91 572.18C134.9 572.31 133.83 572.45 132.71 572.61C131.42 572.76 130.13 572.91 128.84 573.07C122.08 573.72 115.76 573.93 109.9 573.71C109.21 573.68 108.54 573.65 107.88 573.62C101.71 573.25 96.1599 572.49 91.2199 571.35C85.8099 570.08 82.4899 568.77 81.2799 567.44H81.2599Z" fill="#106651"/>
<path d="M79.9399 561.3C79.2799 558.43 78.8299 555.79 78.5899 553.39C77.5199 542.39 80.9799 535.91 88.9799 533.93C92.5399 533.01 97.0299 532.63 102.46 532.79C102.6 526.49 102.07 520.04 100.85 513.44C99.6999 506.84 100.23 505.24 102.44 508.62C104.62 511.94 111.28 514.11 122.42 515.14C133.53 516.14 144.28 514.33 154.69 509.72C156.32 507.29 156.75 507.63 155.97 510.71C153.07 527.29 151.79 538.11 152.11 543.19C152.46 548.37 152.39 552.42 151.9 555.34C151.38 558.26 150.28 560.94 148.62 563.36C144.59 564.09 140.7 564.72 136.96 565.25C134.58 565.56 132.24 565.84 129.94 566.09C127.67 566.34 125.46 566.54 123.3 566.69C117.49 567.06 112.67 567.17 108.85 567C107.75 566.95 106.71 566.87 105.75 566.76C98.0999 565.88 93.0399 565.19 90.5799 564.71C88.0899 564.22 84.5399 563.08 79.9299 561.29L79.9399 561.3Z" fill="#25A384"/>
<path d="M240.99 574.73L242.27 568.16V568.1C237.26 569.84 233.4 570.91 230.69 571.33C228.01 571.75 222.49 572.25 214.14 572.86C213.09 572.94 211.96 572.97 210.75 572.97C206.56 572.97 201.28 572.63 194.91 571.95C192.54 571.69 190.12 571.36 187.63 570.99C185.1 570.61 182.53 570.2 179.92 569.74C175.81 568.99 171.53 568.12 167.1 567.14C166.76 566.8 167.35 568.16 168.86 571.22C170.21 573.86 174.36 575.9 181.29 577.33C182.4 577.52 183.57 577.73 184.8 577.95L189.06 578.63C196.48 579.65 203.4 580.18 209.82 580.22H212.03C218.78 580.11 224.84 579.54 230.21 578.52C236.1 577.39 239.7 576.12 240.99 574.73Z" fill="#106651"/>
<path d="M242.27 568.11C242.91 565.01 243.33 562.16 243.53 559.56C244.41 547.63 240.44 540.4 231.62 537.87C227.69 536.7 222.76 536.08 216.83 536C216.5 529.13 216.91 522.13 218.07 514.99C219.15 507.86 218.52 506.08 216.19 509.67C213.89 513.18 206.65 515.24 194.48 515.84C182.34 516.41 170.51 513.93 158.99 508.42C157.14 505.7 156.68 506.04 157.62 509.44C161.24 527.63 162.95 539.49 162.73 545C162.49 550.62 162.67 555.04 163.29 558.25C163.94 561.46 165.21 564.42 167.1 567.14C171.54 568.12 175.81 568.99 179.92 569.74C182.53 570.19 185.1 570.61 187.63 570.99C190.12 571.37 192.55 571.69 194.91 571.95C201.28 572.63 206.56 572.97 210.75 572.97C211.96 572.97 213.09 572.93 214.14 572.86C222.5 572.26 228.02 571.75 230.69 571.33C233.4 570.91 237.26 569.84 242.27 568.1V568.11Z" fill="#25A384"/>
<path d="M153.27 49.16C145.06 37.18 137.42 27.55 130.37 20.25C121.8 11.38 113.78 5.43 106.31 2.4C101.09 0.269997 96.0804 -0.440003 91.2704 0.259997C87.5204 0.769997 83.8904 2.12 80.3804 4.3C79.4104 4.92 78.4304 5.6 77.4504 6.35C71.0904 11.3 64.9904 19.19 59.1304 30.01C54.2504 39.01 49.3804 50.34 44.5004 64C39.6204 77.66 35.1804 105.49 31.1704 147.48C27.1604 189.47 35.9004 214.36 57.4104 222.15L195.36 242.63C199.56 195.95 195.65 155.03 183.62 119.88C171.62 84.74 161.5 61.16 153.27 49.17V49.16Z" fill="#FFC421"/>
<path d="M256.99 61.8799C268.51 53.0399 278.76 46.2399 287.73 41.4899C298.62 35.7199 308.09 32.5399 316.13 31.9699C321.75 31.5699 326.74 32.4399 331.09 34.5999C334.49 36.2399 337.53 38.6499 340.19 41.8199C340.92 42.7099 341.64 43.6599 342.34 44.6799C346.85 51.3599 350.21 60.7499 352.42 72.8599C354.27 82.9299 355.39 95.2099 355.8 109.71C356.2 124.21 351.8 152.04 342.6 193.21C333.4 234.38 317.37 255.33 294.51 256.07L157 232.79C167.47 187.11 183.87 149.41 206.2 119.72C228.51 90.0299 245.43 70.7499 256.97 61.8999L256.99 61.8799Z" fill="#FFC421"/>
<path d="M279.88 93.9C284.3 96.29 288.5 98.8 292.5 101.42C312.58 114.39 328.1 129.89 339.07 147.92C339.68 148.83 340.24 149.75 340.75 150.69C343.15 154.84 345.32 159.14 347.25 163.6C347.55 164.01 347.73 164.45 347.81 164.92C347.97 165.2 348.1 165.47 348.2 165.72C349.95 169.7 351.7 174.37 353.45 179.75C356.55 233.38 338.31 273.27 298.73 299.44C230.07 337.78 143.84 336.23 40.0602 294.78C35.5802 291.16 31.4602 287.28 27.7002 283.16C6.15024 259.56 -2.82976 233.13 0.770243 203.88C6.09024 159.2 22.6302 124.58 50.3902 100.03C62.1902 89.59 78.5602 80.97 99.4902 74.17C124.75 65.95 154.82 64.08 189.69 68.56C222.6 70.56 252.66 79.01 279.89 93.91L279.88 93.9Z" fill="#FFC421"/>
<path d="M353.45 179.74C356.57 189.31 358.42 195.46 358.99 198.2C359.31 199.29 359.57 200.43 359.77 201.61C360.08 202.98 360.31 204.35 360.46 205.73C360.73 207.4 360.89 209.08 360.94 210.77C361.3 213.33 361.43 215.88 361.35 218.42C361.37 218.64 361.37 218.86 361.37 219.08C361.37 219.21 361.35 219.36 361.28 219.53C360.92 236.09 356.15 252.72 346.97 269.43C345.81 271.53 344.6 273.58 343.35 275.56C342.91 276.29 342.45 277.01 341.96 277.71C341.74 278.05 340.24 280.04 337.44 283.66C334.69 287.29 329.41 293.05 321.6 300.93C321.09 301.35 320.58 301.77 320.06 302.21C319.82 302.42 319.58 302.62 319.36 302.81L314.26 306.85C312.52 308.16 310.75 309.43 308.93 310.67C308.89 310.67 308.83 310.71 308.75 310.81C308.7 310.85 308.63 310.88 308.54 310.91C292.18 321.85 272.26 328.99 248.79 332.35C225.39 335.67 205.78 336.63 189.97 335.23C189.41 335.16 188.86 335.11 188.32 335.09C187.99 335.07 187.69 335.05 187.41 335.04C168.21 334.54 150.46 333.08 134.19 330.66C131.14 330.21 128.12 329.72 125.1 329.19C118.22 327.93 111.61 326.53 105.25 324.99C103.14 324.4 101.01 323.81 98.8503 323.23C97.9203 322.98 96.9703 322.72 96.0003 322.45C95.5203 322.3 95.0203 322.15 94.5203 322C92.6903 321.44 90.8803 320.88 89.1003 320.3C69.6203 313.87 53.2703 305.36 40.0503 294.76C143.84 336.21 230.06 337.76 298.72 299.42C338.3 273.25 356.54 233.36 353.44 179.73L353.45 179.74Z" fill="#EFB207"/>
<path d="M254.72 142.27C271.13 144.34 284.35 152.04 294.37 165.39C304.38 178.73 308.32 193.81 306.2 210.63C304.08 227.42 296.52 241.05 283.52 251.52C270.5 261.94 255.78 266.11 239.38 264.05C223.06 261.99 209.9 254.31 199.92 240.99C189.83 227.62 185.84 212.53 187.96 195.74C190.08 178.92 197.68 165.3 210.77 154.87C223.75 144.42 238.4 140.23 254.72 142.29V142.27Z" fill="white"/>
<path d="M98.5603 122.61C114.97 124.68 128.19 132.38 138.21 145.73C148.22 159.07 152.16 174.15 150.04 190.97C147.92 207.76 140.36 221.39 127.36 231.86C114.34 242.28 99.6203 246.45 83.2203 244.39C66.9003 242.33 53.7403 234.65 43.7603 221.33C33.6703 207.96 29.6803 192.87 31.8003 176.08C33.9203 159.26 41.5203 145.64 54.6103 135.21C67.5903 124.76 82.2403 120.57 98.5603 122.63V122.61Z" fill="white"/>
<path d="M221.22 196.42C225.41 193.19 230.1 191.9 235.31 192.56C240.52 193.22 244.73 195.63 247.97 199.79C251.21 203.93 252.5 208.61 251.84 213.81C251.18 219.06 248.77 223.3 244.6 226.53C240.43 229.78 235.75 231.08 230.54 230.43C225.34 229.77 221.11 227.35 217.86 223.16C214.63 219 213.34 214.29 214 209.04C214.66 203.84 217.06 199.63 221.23 196.42H221.22Z" fill="#413535"/>
<path d="M97.7201 186.01C101.91 182.78 106.6 181.49 111.81 182.15C117.01 182.81 121.23 185.22 124.47 189.38C127.71 193.52 129 198.2 128.34 203.4C127.68 208.65 125.27 212.89 121.1 216.12C116.93 219.37 112.25 220.67 107.04 220.02C101.84 219.36 97.6101 216.94 94.3601 212.75C91.1301 208.59 89.8401 203.88 90.5001 198.63C91.1601 193.43 93.5601 189.22 97.7301 186.01H97.7201Z" fill="#413535"/>
<path d="M149.93 262.21C151.58 262.3 153.19 262.49 154.76 262.77C162.09 264.06 168.5 267.28 174 272.44C180.47 278.56 183.88 285.58 184.22 293.5C184.32 295.56 184.25 297.49 184.02 299.29C183.37 304.07 181.52 307.9 178.47 310.79C174.68 314.4 170.4 316.73 165.63 317.79C160.83 318.85 156.37 319.29 152.27 319.11C148.15 318.92 143.69 318.12 138.91 316.7C134.1 315.29 129.85 312.34 126.16 307.85C122.39 303.25 120.14 297.18 119.42 289.62C119.33 288.68 119.29 287.75 119.3 286.84C119.34 280.16 121.91 274.44 127.01 269.69C130.56 266.4 134.74 264.18 139.55 263.04C142.76 262.26 146.22 261.99 149.95 262.2L149.93 262.21Z" fill="#684E3A"/>
<path d="M145.28 221.93C148.96 221.12 152.9 220.87 157.1 221.16C161.32 221.45 165.77 222.3 170.45 223.69C179.78 226.36 188.81 233.21 197.53 244.23C206.19 255.22 209.96 264.68 208.84 272.59C207.72 280.57 201.96 286.45 191.57 290.22C181.01 294.02 168.75 291.04 154.81 281.26C136.79 288.28 123.2 288.73 114.04 282.61C106.63 277.64 103.19 272.05 103.71 265.85C103.86 264.38 104.21 262.9 104.77 261.39C107.76 253.43 113.43 245.23 121.77 236.8C129.98 228.44 137.81 223.48 145.27 221.92L145.28 221.93Z" fill="#FFC421"/>
<path d="M158.82 248.26C159.2 248.77 159.33 249.8 159.22 251.35L157.81 275.73C158.31 276.59 158.8 277.37 159.28 278.08C163.69 284.02 169.87 287.67 177.84 289.06C181.08 289.59 185.29 289.21 190.47 287.92C195.65 286.66 200.4 282.37 204.7 275.06C206.23 277.12 206.58 279.63 205.74 282.6C204.88 285.58 202.99 288.25 200.06 290.61C197.11 292.97 193.86 294.75 190.3 295.96C185.73 297.31 181.37 297.84 177.22 297.55C168.61 296.93 160.72 292.82 153.57 285.24C144.04 291.3 135.72 294.04 128.58 293.47C121.43 292.89 117.15 291.99 115.73 290.75C112.38 289.06 109.79 286.55 107.95 283.23C106.11 279.91 105.16 277.15 105.11 274.95C105.04 272.77 105.75 270.42 107.27 267.9C110.28 276.39 114.18 281.65 118.97 283.68C122.38 285.06 125.75 285.71 129.07 285.62C137.12 285.38 143.75 282.62 148.94 277.33C149.5 276.72 150.09 276.03 150.72 275.24L152.24 252.99C152.66 250.04 153 248.34 153.25 247.88C155.57 243.11 157.43 243.24 158.83 248.27L158.82 248.26Z" fill="#684E3A"/>
<path d="M171.92 244.7C173.29 245.74 174.35 246.8 175.09 247.91C172.58 256.9 165.85 261.78 154.87 262.57C145.21 261.22 139.48 255.58 137.68 245.67C139.25 243.92 141.18 242.53 143.46 241.48C147.58 239.59 152.46 238.97 158.1 239.61C163.74 240.25 168.35 241.95 171.92 244.71V244.7Z" fill="#684E3A"/>
<path d="M212.78 420.9L207.98 393.96C212.86 393.49 217.41 392.63 221.63 391.38C225.85 390.13 227.99 385.6 228.07 377.79C228.19 369.98 227.21 361.82 225.14 353.31C224.94 352.96 222.07 351.59 216.53 349.21L225.2 331.52C232.74 332.69 239.41 335.54 245.23 340.07C251.09 344.56 256.08 357.35 260.22 378.43C264.36 399.55 260.45 412.85 248.51 418.31C236.56 423.78 224.65 424.64 212.78 420.89V420.9Z" fill="#EFB207"/>
<path d="M42.71 451.09C36.81 450.45 32.11 448.15 28.61 444.2C25.05 440.12 23.58 435.21 24.2 429.47L34.52 337.1L112.01 407.48C117.42 411.92 123.38 413.06 129.9 410.89C136.37 408.76 140.94 407.07 143.59 405.84L228.2 359.53L218.8 444.05C218.08 450.69 216 456.47 212.56 461.4C208.61 467.06 203.93 469.6 198.54 469.01C179.66 467.86 159.88 465.93 139.2 463.22L42.72 451.1M114.08 391.68C99.5 382.71 85.78 373.47 72.91 363.94C60.33 354.6 47.7 344.36 35.01 333.2C36.59 322.49 45.02 317.56 60.3 318.39L157.2 328.78L205.7 334.63C222.23 336.93 229.88 343.87 228.66 355.44L140.44 394.29C136.89 395.87 133.28 396.77 129.6 397C125.53 397.27 122.08 396.6 119.27 395L114.09 391.67L114.08 391.68Z" fill="#F1FEFF"/>
<path d="M72.9 363.94C85.77 373.47 99.49 382.71 114.07 391.68L119.25 395.01C122.06 396.61 125.5 397.28 129.58 397.01C133.26 396.78 136.87 395.88 140.42 394.3L228.64 355.45C228.64 355.45 228.64 355.53 228.63 355.57L228.2 359.53L143.59 405.84C140.94 407.08 136.38 408.76 129.9 410.89C123.38 413.05 117.41 411.92 112.01 407.48L34.52 337.1L34.8 334.54C34.85 334.09 34.92 333.64 35 333.21C47.69 344.37 60.33 354.61 72.9 363.95V363.94Z" fill="#D8EAEE"/>
<path d="M22.8798 395.2C20.1698 392.89 18.6598 389.97 18.3398 386.42C18.0198 382.93 18.9898 379.79 21.2298 376.99C23.4798 374.21 26.3398 372.63 29.8298 372.24C33.3898 371.86 36.5798 372.83 39.3898 375.15C42.1698 377.51 43.7298 380.48 44.0598 384.08C44.3898 387.77 43.3998 391.01 41.0798 393.79C38.7198 396.54 35.7598 398.05 32.1898 398.32C28.6898 398.58 25.5898 397.54 22.8798 395.2Z" fill="#EFB207"/>
<path d="M21.9098 396.87C19.3298 394 17.8498 390.44 17.4698 386.17C17.0898 381.94 17.8998 378.17 19.9198 374.87C21.9398 371.57 24.5598 369.74 27.7898 369.37C31.0898 369 34.0898 370.24 36.7698 373.1C39.4198 376.01 40.9498 379.65 41.3398 384.01C41.7398 388.46 40.8998 392.34 38.8098 395.65C36.6798 398.89 33.9498 400.63 30.6398 400.88C27.3998 401.1 24.4798 399.77 21.9098 396.88V396.87Z" fill="#EFB207"/>
<path d="M37.4197 405.37C35.5297 407.62 33.1197 408.83 30.1997 409.01C27.3197 409.2 24.7697 408.31 22.5397 406.34C20.3397 404.42 19.1097 401.99 18.8397 399.04C18.5697 396.11 19.3497 393.53 21.1797 391.31C23.0197 389.03 25.3697 387.76 28.2497 387.5C31.1697 387.27 33.7597 388.12 36.0297 390.05C38.2897 392.02 39.5497 394.5 39.8197 397.5C40.0897 400.52 39.2897 403.15 37.4197 405.38V405.37Z" fill="#EFB207"/>
<path d="M36.0998 378.68C34.2098 380.93 31.7998 382.14 28.8798 382.32C25.9998 382.51 23.4498 381.62 21.2198 379.65C19.0198 377.73 17.7898 375.3 17.5198 372.35C17.2498 369.42 18.0298 366.84 19.8598 364.62C21.6998 362.34 24.0498 361.07 26.9298 360.81C29.8498 360.58 32.4398 361.43 34.7098 363.36C36.9698 365.33 38.2298 367.81 38.4998 370.81C38.7698 373.83 37.9698 376.46 36.0998 378.69V378.68Z" fill="#EFB207"/>
<path d="M242.27 404.84C242.67 410.24 241.53 414.92 238.84 418.86C236.11 422.79 232.67 424.86 228.52 425.09C224.46 425.31 220.84 423.64 217.68 420.09C214.52 416.6 212.75 412.26 212.36 407.07C211.98 401.96 213.09 397.42 215.69 393.44C218.29 389.48 221.62 387.3 225.67 386.89C229.81 386.5 233.52 388.06 236.8 391.58C240.05 395.14 241.87 399.56 242.26 404.84H242.27Z" fill="#EFB207"/>
<path d="M215.17 414.09C217.34 411.48 220.1 410.04 223.45 409.79C226.84 409.58 229.83 410.61 232.44 412.89C235.02 415.21 236.45 418.12 236.71 421.61C236.97 425.12 235.99 428.16 233.77 430.71C231.53 433.29 228.71 434.65 225.32 434.8C221.97 434.97 219.02 433.88 216.48 431.56C213.96 429.29 212.58 426.45 212.32 423.02C212.07 419.61 213.02 416.63 215.17 414.08V414.09Z" fill="#EFB207"/>
<path d="M214.13 383.09C216.3 380.48 219.06 379.04 222.4 378.79C225.79 378.58 228.78 379.61 231.39 381.89C233.97 384.21 235.4 387.12 235.66 390.61C235.92 394.12 234.94 397.16 232.72 399.71C230.48 402.29 227.66 403.65 224.27 403.8C220.92 403.97 217.97 402.88 215.43 400.56C212.91 398.29 211.53 395.45 211.27 392.02C211.02 388.61 211.97 385.63 214.12 383.08L214.13 383.09Z" fill="#FFD154"/>
<path d="M238.38 403.32C238.7 407.57 237.17 411.3 233.79 414.51C230.37 417.66 226.15 419.4 221.14 419.74C216.24 420.04 211.94 418.84 208.25 416.13C204.54 413.47 202.53 410.1 202.23 406.02C201.93 401.98 203.41 398.36 206.68 395.16C209.93 391.94 214 390.11 218.9 389.68C223.9 389.24 228.33 390.36 232.19 393.03C236.01 395.73 238.07 399.16 238.38 403.32Z" fill="#FFD154"/>
<path d="M242.07 402.16C242.41 406.7 241.21 410.66 238.48 414.04C235.7 417.36 232.24 419.13 228.09 419.35C224.03 419.59 220.44 418.24 217.32 415.3C214.21 412.38 212.49 408.75 212.16 404.39C211.84 400.1 213 396.26 215.65 392.87C218.3 389.52 221.65 387.64 225.7 387.24C229.84 386.89 233.53 388.18 236.77 391.11C239.97 394.06 241.74 397.75 242.07 402.16Z" fill="#FFD154"/>
<path d="M230.55 409.36C232.69 411.46 233.88 414.08 234.12 417.21C234.36 420.36 233.56 423.09 231.75 425.38C229.93 427.67 227.63 428.88 224.85 429C222.11 429.12 219.69 428.13 217.59 426.02C215.53 423.97 214.39 421.41 214.16 418.31C213.93 415.26 214.69 412.59 216.42 410.31C218.19 407.98 220.44 406.71 223.18 406.51C225.96 406.35 228.42 407.29 230.56 409.35L230.55 409.36Z" fill="#FFD154"/>
</g>
<defs>
<clipPath id="clip0_425_9303">
<rect width="361.38" height="591.62" fill="white"/>
</clipPath>
</defs>
</svg>
