<svg width="534" height="556" viewBox="0 0 534 556" fill="none" xmlns="http://www.w3.org/2000/svg">
<g clip-path="url(#clip0_425_9308)">
<path d="M266.614 542.519C265.08 543.55 264.245 544.663 264.11 545.844C264.02 546.484 264.14 547.123 264.471 547.755C264.757 548.349 265.185 548.861 265.749 549.305C266.524 549.899 267.734 550.441 269.389 550.945C277.066 553.269 285.909 554.774 295.917 555.458C302.016 555.887 311.054 556.06 323.01 555.985C329.822 555.955 334.988 555.789 338.492 555.481C344.2 554.977 349.215 553.984 353.546 552.494C355.321 551.885 356.749 551.118 357.825 550.192C359.193 549.042 359.87 547.74 359.847 546.296C359.832 545.062 359.291 543.926 358.231 542.881C357.366 542.015 356.238 541.271 354.84 540.646C352.824 539.736 350.704 539.119 348.486 538.803C347.44 538.653 346.237 538.555 344.891 538.51C344.222 538.48 343.019 538.457 341.274 538.442C334.687 538.412 324.784 538.186 311.558 537.758C299.767 537.532 289.872 537.735 281.894 538.375C278.615 538.645 275.961 539.021 273.923 539.488C271.035 540.157 268.599 541.165 266.614 542.519Z" fill="black" fill-opacity="0.2"/>
<path d="M310.151 507.254L312.347 517.853L340.928 516.89L345.147 506.735C345.214 503.733 339.131 502.372 326.905 502.627C314.588 502.868 309.001 504.41 310.151 507.246V507.254Z" fill="#106651"/>
<path d="M338.229 474.756C337.349 468.001 333.364 464.766 326.258 465.052C316.415 465.556 312.144 472.266 313.445 485.19C314.61 494.225 315.272 506.434 315.422 521.818H339.56C339.469 502.342 339.026 486.657 338.229 474.756Z" fill="#EFB207"/>
<path d="M356.02 543.716L356.959 539.894V539.864C357.418 538.059 357.749 536.404 357.945 534.899C358.817 527.993 356.756 523.924 351.771 522.682C349.553 522.103 346.741 521.87 343.334 521.983C343.357 518.026 343.808 513.971 344.688 509.826C345.53 505.681 345.222 504.673 343.77 506.802C342.342 508.886 338.123 510.255 331.115 510.917C324.13 511.549 317.407 510.428 310.963 507.54C309.986 506.02 309.707 506.223 310.143 508.164C311.662 518.575 312.279 525.368 311.986 528.558C311.67 531.807 311.64 534.357 311.896 536.193C312.174 538.028 312.813 539.706 313.813 541.226C313.632 541.037 313.926 541.805 314.693 543.535C315.385 545.024 317.708 546.1 321.641 546.747C322.272 546.83 322.942 546.92 323.641 547.018C324.445 547.116 325.258 547.206 326.062 547.304C330.296 547.702 334.251 547.83 337.935 547.695C338.371 547.672 338.793 547.657 339.206 547.642C343.086 547.409 346.583 546.928 349.696 546.198C353.117 545.393 355.215 544.573 356.005 543.738L356.02 543.716Z" fill="#1C8269"/>
<path d="M356.019 543.716L356.959 539.894V539.864C354.034 540.992 351.786 541.715 350.214 542.023C348.665 542.331 345.477 542.768 340.665 543.324C340.063 543.392 339.409 543.445 338.717 543.475C336.311 543.58 333.288 543.52 329.649 543.287C328.295 543.197 326.911 543.069 325.498 542.918C324.054 542.768 322.595 542.587 321.106 542.392C318.768 542.061 316.339 541.669 313.82 541.211C313.64 541.023 313.933 541.79 314.7 543.52C315.392 545.009 317.715 546.085 321.648 546.732C322.279 546.815 322.949 546.905 323.648 547.003C324.453 547.101 325.265 547.191 326.069 547.289C330.303 547.688 334.258 547.815 337.942 547.68C338.379 547.657 338.8 547.642 339.213 547.627C343.093 547.394 346.59 546.913 349.703 546.183C353.124 545.378 355.222 544.558 356.012 543.723L356.019 543.716Z" fill="#0E5A47"/>
<path d="M299.022 512.332L293.367 522.57L264.861 509.894L263.906 497.512C264.816 494.338 271.388 495.376 283.637 500.642C295.977 505.922 301.105 509.819 299.022 512.332Z" fill="#106651"/>
<path d="M297.587 476.201L294.278 461.607C271.028 483.264 243.673 489.004 212.219 478.834L216.121 496.045C244.567 504.501 271.72 497.888 297.587 476.201Z" fill="#EFB207"/>
<path d="M223.4 485.484C222.595 483.137 220.866 481.391 218.196 480.233C215.527 479.067 213.346 478.661 211.654 479.029C209.948 479.383 208.414 480.616 207.053 482.715C205.692 484.799 205.278 487.041 205.827 489.448C206.368 491.848 208.008 493.638 210.737 494.812C213.452 495.97 215.82 496.324 217.851 495.857C219.881 495.398 221.512 494.142 222.746 492.088C223.964 490.02 224.174 487.823 223.392 485.491L223.4 485.484Z" fill="#EFB207"/>
<path d="M346.515 383.869C343.733 384.846 341.703 386.652 340.432 389.3C339.161 391.933 339.011 394.641 339.989 397.424C340.981 400.208 342.786 402.239 345.418 403.51C348.057 404.766 350.771 404.917 353.561 403.954C356.343 402.976 358.374 401.17 359.644 398.523C360.908 395.912 361.05 393.212 360.08 390.421C359.11 387.63 357.291 385.599 354.644 384.312C352.02 383.049 349.313 382.906 346.523 383.869H346.515Z" fill="#EFB207"/>
<path d="M403.678 363.084C395.783 382.334 379.075 389.255 353.554 383.861L348.44 404.465C376.488 414.952 400.956 405.526 421.853 376.196C421.522 374.541 421.048 373.044 420.424 371.712C417.747 365.935 412.168 363.054 403.686 363.076L403.678 363.084Z" fill="#EFB207"/>
<path d="M329.799 367.191C327.311 366.702 324.01 366.514 319.889 366.62C311.648 366.815 304.865 367.432 299.526 368.485C292.202 369.892 285.961 372.284 280.803 375.662C277.908 377.55 275.344 379.739 273.103 382.236C271.772 383.651 270.569 385.17 269.501 386.795C267.952 389.217 266.666 392.106 265.659 395.446C265.35 396.319 265.08 397.236 264.862 398.207C264.162 400.922 263.433 405.052 262.674 410.597L260.35 427.5C259.839 431.238 259.44 434.593 259.169 437.572C258.816 441.356 258.643 444.523 258.651 447.088C258.703 454.333 259.906 460.591 262.26 465.85C263.478 468.52 265.02 471.003 266.877 473.297C268.133 474.899 269.554 476.411 271.148 477.818C272.313 478.894 273.532 479.887 274.81 480.782C276.163 481.752 277.57 482.633 279.036 483.43C280.577 484.265 282.179 485.01 283.841 485.664C288.345 487.432 293.172 488.485 298.323 488.839C303.151 489.185 308.098 488.914 313.174 488.026C319.062 487.003 324.401 485.228 329.198 482.7C334.484 479.924 338.748 476.381 341.981 472.071C345.493 467.422 347.959 461.637 349.388 454.716C350.47 449.518 351.049 443.071 351.125 435.368C351.147 434.082 351.155 432.811 351.147 431.562C351.11 427.432 350.974 423.513 350.734 419.797C350.155 410.928 348.869 402.179 346.869 393.565C345.884 389.451 344.748 385.366 343.462 381.319C342.771 379.122 342.109 377.354 341.47 376.015C340.552 374.127 339.492 372.577 338.289 371.381C336.184 369.275 333.349 367.876 329.792 367.176L329.799 367.191Z" fill="#FFC421"/>
<path d="M329.799 367.191C327.311 366.702 324.01 366.514 319.889 366.62C311.648 366.815 304.865 367.432 299.526 368.485C292.202 369.892 285.961 372.284 280.803 375.662C277.908 377.55 275.344 379.739 273.103 382.236C271.772 383.651 270.569 385.17 269.501 386.795C267.952 389.217 266.666 392.106 265.659 395.446C265.35 396.319 265.08 397.236 264.862 398.207C264.162 400.922 263.433 405.052 262.674 410.597L260.35 427.5C259.839 431.238 259.44 434.593 259.169 437.572C258.816 441.356 258.643 444.523 258.651 447.088C258.703 454.333 259.906 460.591 262.26 465.85C263.478 468.52 265.02 471.003 266.877 473.297C268.133 474.899 269.554 476.411 271.148 477.818C272.313 478.894 273.532 479.887 274.81 480.782C276.163 481.752 277.57 482.633 279.036 483.43C275.705 480.812 272.938 477.796 270.727 474.395C267.343 469.197 265.441 463.3 265.012 456.702C264.343 446.389 265.17 435.346 267.493 423.565C269.2 414.914 271.644 406.233 274.84 397.515C290.059 400.652 303.662 401.825 315.648 401.043C324.348 400.479 332.198 399.034 339.199 396.717C342.176 395.724 344.733 394.679 346.869 393.565C345.884 389.451 344.748 385.366 343.462 381.319C342.771 379.122 342.109 377.354 341.47 376.015C340.552 374.127 339.492 372.577 338.289 371.381C336.184 369.275 333.349 367.876 329.792 367.176L329.799 367.191Z" fill="#EFB207"/>
<path d="M293.232 468.234V468.257C300.33 471.725 303.436 477.201 302.549 484.671C299.105 493.706 295.217 505.02 290.871 518.605C289.886 521.659 288.886 524.819 287.871 528.099L261.951 517.62C262.447 517.718 262.944 517.808 263.44 517.898C264.575 514.272 265.658 510.834 266.688 507.585C271.636 491.825 275.306 480.406 277.682 473.342C281.411 466.73 286.592 465.022 293.24 468.242L293.232 468.234Z" fill="#FFC421"/>
<path d="M290.871 518.598C289.886 521.652 288.886 524.811 287.871 528.091L283.555 526.346C283.562 526.271 283.577 526.196 283.592 526.113L297.014 488.5L302.549 484.664C299.105 493.698 295.217 505.012 290.871 518.598Z" fill="#EFB207"/>
<path d="M241.68 527.347C241.793 525.263 242.003 523.39 242.297 521.727C243.658 514.114 247.056 510.677 252.485 511.406C254.914 511.707 257.824 512.602 261.223 514.099C262.486 509.932 263.343 505.494 263.795 500.777C264.291 496.083 264.93 495.15 265.697 497.971C266.464 500.739 270.276 503.899 277.134 507.442C283.977 510.947 291.12 512.497 298.564 512.091C300.046 510.887 300.256 511.218 299.189 513.076C294.278 523.39 291.459 530.28 290.722 533.748C289.985 537.291 289.188 539.977 288.338 541.805C287.466 543.618 286.278 545.122 284.774 546.311C285.022 546.191 284.473 546.875 283.135 548.38C281.947 549.666 279.262 549.847 275.081 548.929C274.42 548.756 273.713 548.583 272.976 548.402C272.134 548.177 271.284 547.943 270.442 547.718C266.043 546.416 262.005 544.942 258.336 543.294C257.907 543.099 257.486 542.903 257.072 542.723C253.237 540.895 249.861 538.969 246.951 536.938C243.763 534.704 241.906 532.988 241.387 531.785L241.68 527.384L241.695 527.354L241.68 527.347Z" fill="#25A384"/>
<path d="M241.379 531.785L241.672 527.384L241.687 527.354C244.274 529.731 246.312 531.401 247.793 532.364C249.259 533.319 252.327 535.072 257.012 537.615C257.598 537.938 258.237 538.254 258.929 538.563C261.32 539.653 264.388 540.819 268.133 542.053C269.524 542.504 270.96 542.941 272.442 543.354C273.946 543.776 275.48 544.189 277.036 544.588C279.502 545.19 282.082 545.769 284.766 546.311C285.014 546.19 284.465 546.875 283.127 548.38C281.939 549.666 279.254 549.846 275.073 548.929C274.412 548.756 273.705 548.583 272.968 548.402C272.126 548.176 271.276 547.943 270.434 547.718C266.035 546.416 261.997 544.942 258.328 543.294C257.899 543.099 257.478 542.903 257.064 542.723C253.23 540.895 249.853 538.969 246.943 536.938C243.755 534.704 241.898 532.988 241.379 531.785Z" fill="#106651"/>
<path d="M241.68 527.347C241.792 525.263 242.003 523.39 242.296 521.727C243.657 514.114 247.056 510.677 252.485 511.406C254.914 511.707 257.824 512.602 261.223 514.099C262.486 509.932 263.343 505.494 263.794 500.777C264.291 496.083 264.93 495.15 265.697 497.971C266.464 500.739 270.276 503.899 277.134 507.442C283.976 510.947 291.12 512.497 298.564 512.091C300.046 510.887 300.256 511.218 299.188 513.076C294.278 523.39 291.458 530.28 290.721 533.748C289.985 537.291 289.187 539.977 288.338 541.805C287.466 543.618 286.277 545.122 284.774 546.311C282.089 545.762 279.51 545.19 277.044 544.588C275.48 544.19 273.946 543.776 272.449 543.355C270.968 542.941 269.532 542.504 268.141 542.053C264.396 540.819 261.328 539.653 258.937 538.563C258.245 538.247 257.606 537.931 257.019 537.615C252.342 535.065 249.267 533.312 247.801 532.364C246.312 531.401 244.281 529.731 241.695 527.354L241.68 527.347Z" fill="#25A384"/>
<path d="M300.571 215.672C305.226 207.833 309.617 201.484 313.738 196.617C318.746 190.712 323.52 186.657 328.077 184.453C331.258 182.911 334.371 182.257 337.409 182.497C339.777 182.663 342.101 183.355 344.394 184.581C345.026 184.927 345.665 185.318 346.312 185.747C350.493 188.591 354.643 193.285 358.749 199.822C362.17 205.261 365.689 212.159 369.306 220.524C372.916 228.881 376.841 246.138 381.067 272.279C385.293 298.427 380.834 314.375 367.682 320.138L282.118 338.605C277.577 309.531 278.359 283.736 284.457 261.213C290.54 238.706 295.909 223.518 300.579 215.664L300.571 215.672Z" fill="#FFC421"/>
<path d="M236.13 227.851C228.55 222.781 221.858 218.944 216.045 216.334C208.985 213.159 202.924 211.565 197.864 211.534C194.322 211.512 191.239 212.264 188.6 213.791C186.532 214.957 184.735 216.59 183.193 218.688C182.772 219.275 182.358 219.899 181.96 220.569C179.411 224.94 177.689 230.958 176.794 238.638C176.05 245.025 175.847 252.766 176.185 261.868C176.523 270.97 180.418 288.227 187.863 313.646C195.307 339.064 206.203 351.537 220.55 351.063L305.722 330.857C297.3 302.663 285.487 279.719 270.291 262.026C255.109 244.333 243.725 232.951 236.13 227.873V227.851Z" fill="#FFC421"/>
<path d="M288.706 390.511L261.651 394.355L254.184 403.826L265.839 410.988C265.516 411.409 265.193 411.83 264.854 412.251L252.207 410.446L245.921 417.976L242.928 413.44C230.558 414.237 217.414 413.184 203.496 410.296C199.511 414.99 197.894 419.345 198.646 423.355C199.443 427.582 202.864 431.434 208.902 434.909C223.746 436.083 237.679 434.548 250.695 430.313C262.538 426.477 271.291 421.677 276.946 415.915C282.743 409.987 286.661 401.517 288.714 390.504L288.706 390.511Z" fill="#EFB207"/>
<path d="M286.202 387.848C279.096 376.241 270.471 377.302 260.343 391.03C259.207 396.95 256.959 401.103 253.605 403.48C253.049 403.871 252.44 404.21 251.786 404.496C247.259 406.467 241.913 408.242 235.739 409.822C229.566 411.401 219.204 410.521 204.654 407.181C194.45 412.334 192.63 418.736 199.195 426.379C199.27 426.401 199.33 426.424 199.383 426.439C227.092 432.532 251.109 428.538 271.449 414.455C271.862 414.185 272.261 413.906 272.659 413.62L271.163 414.621C271.261 414.553 271.344 414.493 271.419 414.44C278.171 409.551 283.096 400.682 286.202 387.841V387.848Z" fill="#FFD154"/>
<path d="M223.039 248.876C220.369 250.554 217.835 252.299 215.444 254.104C203.398 263.049 194.307 273.4 188.179 285.143C187.833 285.737 187.524 286.339 187.239 286.948C185.9 289.649 184.72 292.432 183.697 295.306C183.524 295.576 183.426 295.855 183.404 296.156C183.313 296.336 183.246 296.509 183.193 296.675C182.261 299.24 181.358 302.241 180.479 305.679C178.915 311.803 178.012 315.729 177.764 317.467C177.606 318.159 177.493 318.889 177.411 319.633C177.275 320.506 177.185 321.371 177.148 322.244C177.05 323.304 177.012 324.365 177.05 325.418C176.929 327.036 176.952 328.638 177.102 330.233C177.102 330.368 177.102 330.511 177.117 330.647C177.117 330.729 177.148 330.82 177.193 330.925C178.095 341.283 181.764 351.514 188.194 361.609C189.006 362.881 189.848 364.114 190.713 365.303C191.021 365.739 191.337 366.176 191.668 366.597C191.818 366.8 192.841 367.989 194.743 370.14C196.615 372.299 200.157 375.692 205.368 380.318C205.706 380.559 206.045 380.807 206.383 381.055C206.549 381.176 206.699 381.296 206.842 381.401L210.195 383.726C211.338 384.478 212.504 385.2 213.692 385.9C213.722 385.9 213.76 385.922 213.812 385.982C213.842 386.005 213.887 386.02 213.948 386.043C224.64 392.226 237.408 395.89 252.244 397.033C267.035 398.161 279.352 397.958 289.202 396.431C289.548 396.364 289.894 396.311 290.232 396.273C290.435 396.251 290.623 396.228 290.804 396.206C302.812 395.107 313.866 393.467 323.957 391.286C325.844 390.88 327.724 390.451 329.589 389.992C333.845 388.924 337.928 387.773 341.853 386.547C343.154 386.088 344.462 385.636 345.786 385.185C346.357 384.989 346.944 384.786 347.538 384.576C347.831 384.463 348.139 384.35 348.448 384.237C349.568 383.816 350.681 383.387 351.771 382.951C363.712 378.129 373.6 372.126 381.443 364.942C384.105 362.49 386.526 359.894 388.714 357.156C401.242 341.494 405.776 324.568 402.332 306.386C397.174 278.605 385.406 257.595 367.013 243.347C359.193 237.284 348.591 232.552 335.206 229.152C319.047 225.03 300.143 225.09 278.487 229.318C257.959 231.92 239.476 238.442 223.031 248.884L223.039 248.876Z" fill="#EFB207"/>
<path d="M223.039 248.876C220.369 250.554 217.835 252.299 215.444 254.104C203.398 263.049 194.307 273.4 188.178 285.143C187.833 285.737 187.524 286.339 187.238 286.948C185.9 289.649 184.719 292.432 183.697 295.306C183.524 295.576 183.426 295.855 183.404 296.156C183.313 296.336 183.246 296.509 183.193 296.675C182.261 299.24 181.358 302.241 180.479 305.679C180.727 339.403 193.78 363.656 219.64 378.437C264.207 399.659 318.144 395.16 381.458 364.949C384.12 362.497 386.541 359.902 388.729 357.164C401.257 341.502 405.791 324.576 402.347 306.394C397.189 278.613 385.421 257.602 367.028 243.355C359.208 237.292 348.606 232.56 335.221 229.16C319.062 225.037 300.158 225.098 278.502 229.325C257.974 231.928 239.491 238.45 223.046 248.891L223.039 248.876Z" fill="#FFC421"/>
<path d="M308.978 325.057C308.008 325.193 307.061 325.388 306.136 325.644C301.827 326.825 298.067 329.255 294.872 332.941C291.112 337.312 289.157 342.149 289.021 347.452C288.984 348.829 289.036 350.115 289.187 351.304C289.608 354.463 290.728 356.946 292.556 358.743C294.819 360.993 297.36 362.362 300.188 362.858C303.03 363.355 305.654 363.453 308.076 363.152C310.504 362.851 313.121 362.121 315.933 360.963C318.761 359.812 321.235 357.66 323.37 354.501C325.551 351.266 326.829 347.114 327.198 342.036C327.243 341.404 327.258 340.78 327.243 340.178C327.168 335.717 325.603 332.008 322.558 329.059C320.438 327.013 317.956 325.719 315.114 325.163C313.219 324.787 311.174 324.749 308.978 325.057Z" fill="#684E3A"/>
<path d="M311.264 323.952C308.91 323.696 306.436 323.809 303.835 324.275C301.225 324.741 298.503 325.576 295.676 326.758C290.037 329.059 284.871 333.942 280.171 341.411C275.509 348.859 273.802 355.02 275.035 359.887C276.276 364.792 280.269 368.071 287.006 369.719C293.856 371.374 301.301 368.681 309.331 361.632C321.054 364.792 329.566 364.152 334.86 359.714C339.146 356.111 340.913 352.387 340.169 348.55C339.981 347.648 339.657 346.737 339.206 345.842C336.8 341.073 332.709 336.341 326.927 331.647C321.235 326.991 316.016 324.426 311.256 323.952H311.264Z" fill="#FFC421"/>
<path d="M304.602 341.306C304.399 341.645 304.392 342.299 304.557 343.262L307.091 358.382C306.835 358.954 306.58 359.473 306.339 359.947C303.993 363.949 300.376 366.657 295.504 368.056C293.518 368.606 290.864 368.651 287.548 368.207C284.232 367.771 280.976 365.416 277.795 361.151C276.983 362.542 276.938 364.13 277.66 365.928C278.397 367.733 279.758 369.268 281.743 370.546C283.743 371.818 285.894 372.713 288.195 373.224C291.135 373.759 293.894 373.796 296.466 373.33C301.797 372.359 306.437 369.26 310.385 364.039C316.738 367.176 322.122 368.32 326.536 367.477C330.958 366.635 333.567 365.777 334.364 364.904C336.334 363.618 337.785 361.88 338.71 359.684C339.635 357.487 340.041 355.697 339.921 354.32C339.823 352.951 339.214 351.537 338.101 350.062C336.8 355.569 334.717 359.12 331.868 360.707C329.83 361.798 327.777 362.437 325.702 362.603C320.664 363.001 316.34 361.73 312.738 358.774C312.347 358.435 311.934 358.036 311.49 357.585L309.031 343.796C308.565 341.983 308.241 340.945 308.054 340.674C306.279 337.853 305.128 338.064 304.602 341.299V341.306Z" fill="#684E3A"/>
<path d="M337.838 259.438C327.649 261.401 319.686 266.773 313.949 275.544C308.226 284.315 306.369 293.921 308.384 304.37C310.392 314.804 315.686 323.034 324.258 329.059C332.837 335.055 342.222 337.071 352.418 335.108C362.554 333.152 370.48 327.796 376.195 319.047C381.969 310.253 383.849 300.639 381.842 290.205C379.826 279.757 374.51 271.527 365.885 265.531C357.328 259.513 347.982 257.49 337.845 259.446L337.838 259.438Z" fill="white"/>
<path d="M240.829 278.124C230.64 280.087 222.677 285.459 216.94 294.23C211.218 303.001 209.36 312.608 211.376 323.056C213.383 333.49 218.677 341.727 227.249 347.745C235.829 353.741 245.213 355.757 255.409 353.794C265.546 351.838 273.471 346.482 279.186 337.733C284.961 328.939 286.841 319.325 284.833 308.891C282.818 298.443 277.501 290.213 268.877 284.217C260.32 278.199 250.973 276.176 240.837 278.132L240.829 278.124Z" fill="white"/>
<path d="M337.612 271.053C334.709 269.075 331.551 268.42 328.13 269.075C324.693 269.737 322.002 271.527 320.039 274.438C318.076 277.327 317.422 280.479 318.076 283.901C318.738 287.347 320.52 290.055 323.423 292.018C326.325 293.997 329.491 294.651 332.927 293.989C336.349 293.327 339.033 291.544 340.996 288.626C342.973 285.722 343.627 282.547 342.966 279.102C342.304 275.679 340.522 272.994 337.612 271.053Z" fill="#413535"/>
<path d="M257.771 285.647C254.869 283.668 251.71 283.014 248.289 283.668C244.853 284.33 242.161 286.121 240.198 289.032C238.236 291.921 237.581 295.072 238.236 298.495C238.897 301.941 240.679 304.649 243.582 306.612C246.484 308.591 249.65 309.245 253.086 308.583C256.508 307.921 259.192 306.138 261.155 303.219C263.132 300.316 263.787 297.141 263.125 293.696C262.463 290.273 260.681 287.588 257.771 285.647Z" fill="#413535"/>
<path d="M296.872 338.929C296.052 339.636 295.436 340.343 295.015 341.065C296.955 346.594 301.369 349.378 308.271 349.423C314.264 348.182 317.626 344.42 318.347 338.131C317.295 337.101 316.031 336.303 314.558 335.747C311.903 334.731 308.82 334.543 305.309 335.175C301.805 335.807 298.985 337.063 296.864 338.936L296.872 338.929Z" fill="#684E3A"/>
<path d="M407.069 368.598C407.197 371.351 408.265 373.668 410.28 375.541C412.265 377.392 414.641 378.295 417.416 378.25C420.175 378.197 422.506 377.189 424.394 375.248C426.311 373.255 427.236 370.84 427.154 368.019C427.033 365.198 425.95 362.836 423.905 360.925C421.807 358.969 419.356 358.036 416.559 358.134C413.761 358.27 411.43 359.368 409.573 361.422C407.753 363.438 406.919 365.83 407.062 368.598H407.069Z" fill="#EFB207"/>
<path d="M398.173 376.933C398.331 380.273 399.617 383.071 402.046 385.336C404.452 387.577 407.324 388.668 410.678 388.601C414.017 388.54 416.821 387.337 419.1 384.982C421.423 382.575 422.536 379.664 422.453 376.256C422.318 372.841 421.01 369.975 418.528 367.665C416.002 365.303 413.039 364.182 409.64 364.303C406.264 364.483 403.452 365.807 401.204 368.282C399.008 370.719 398 373.601 398.181 376.941L398.173 376.933Z" fill="#EFB207"/>
<path d="M404.647 358.202C402.377 358.292 400.489 359.187 399 360.887C397.519 362.557 396.85 364.543 397 366.838C397.128 369.095 398.03 370.998 399.707 372.562C401.369 374.12 403.317 374.864 405.542 374.804C407.806 374.767 409.701 373.932 411.227 372.292C412.753 370.614 413.46 368.628 413.362 366.326C413.235 364.009 412.317 362.061 410.61 360.466C408.896 358.864 406.911 358.112 404.655 358.194L404.647 358.202Z" fill="#EFB207"/>
<path d="M420.333 371.682C418.062 371.773 416.175 372.668 414.686 374.368C413.205 376.038 412.535 378.024 412.686 380.318C412.814 382.575 413.716 384.478 415.393 386.043C417.055 387.6 419.002 388.345 421.228 388.285C423.491 388.247 425.386 387.412 426.913 385.772C428.439 384.095 429.146 382.109 429.048 379.807C428.92 377.49 428.003 375.541 426.296 373.947C424.582 372.344 422.596 371.592 420.341 371.675L420.333 371.682Z" fill="#EFB207"/>
<path d="M183.727 413.071C182.411 416.103 182.351 419.12 183.539 422.129C184.772 425.115 186.855 427.221 189.802 428.448C192.69 429.644 195.607 429.629 198.555 428.402C201.495 427.206 203.593 425.145 204.856 422.234C206.097 419.368 206.157 416.434 205.037 413.44C203.909 410.461 201.924 408.317 199.081 407.016C196.171 405.699 193.201 405.632 190.171 406.805C187.156 408.024 185.005 410.108 183.727 413.071Z" fill="#EFB207"/>
<path d="M193.118 416.329C191.532 419.985 191.464 423.633 192.9 427.281C194.396 430.877 196.923 433.42 200.48 434.909C203.969 436.354 207.488 436.331 211.044 434.857C214.609 433.397 217.15 430.915 218.669 427.409C220.173 423.934 220.248 420.383 218.88 416.772C217.526 413.169 215.135 410.581 211.699 409.024C208.187 407.429 204.6 407.339 200.931 408.753C197.276 410.22 194.675 412.748 193.118 416.336V416.329Z" fill="#EFB207"/>
<path d="M205.894 427.665C204.977 425.22 203.337 423.483 200.976 422.459C198.57 421.451 196.134 421.444 193.675 422.444C191.216 423.483 189.449 425.228 188.381 427.695C187.306 430.178 187.253 432.63 188.216 435.037C189.193 437.474 190.893 439.175 193.314 440.138C195.705 441.1 198.111 441.063 200.54 440.017C202.939 439.009 204.661 437.294 205.706 434.872C206.751 432.464 206.811 430.065 205.887 427.665H205.894Z" fill="#EFB207"/>
<path d="M214.466 405.429C213.549 402.984 211.91 401.246 209.549 400.223C207.142 399.215 204.706 399.207 202.247 400.208C199.788 401.246 198.021 402.991 196.954 405.459C195.878 407.941 195.826 410.386 196.788 412.801C197.766 415.238 199.465 416.938 201.886 417.901C204.277 418.864 206.684 418.826 209.112 417.781C211.511 416.773 213.233 415.057 214.278 412.635C215.324 410.228 215.384 407.828 214.459 405.429H214.466Z" fill="#FFD154"/>
<path d="M194.803 414.644C193.502 417.645 193.675 420.737 195.315 423.919C197.006 427.071 199.623 429.395 203.172 430.9C206.654 432.359 210.075 432.57 213.436 431.532C216.798 430.531 219.106 428.598 220.354 425.709C221.587 422.858 221.43 419.849 219.858 416.705C218.316 413.545 215.82 411.191 212.376 409.649C208.857 408.069 205.36 407.768 201.894 408.731C198.443 409.724 196.082 411.695 194.811 414.636L194.803 414.644Z" fill="#FFD154"/>
<path d="M184.374 411.582C183.276 414.125 183.389 416.735 184.712 419.413C186.081 422.076 188.246 424.017 191.186 425.243C194.074 426.439 196.916 426.597 199.721 425.709C202.518 424.837 204.443 423.182 205.496 420.744C206.541 418.337 206.428 415.802 205.165 413.132C203.887 410.491 201.834 408.528 198.991 407.219C196.074 405.918 193.171 405.692 190.284 406.542C187.419 407.414 185.441 409.1 184.366 411.582H184.374Z" fill="#FFD154"/>
<path d="M195.931 420.353C193.848 421.339 192.321 422.941 191.359 425.153C190.396 427.379 190.276 429.561 191.021 431.682C191.757 433.804 193.126 435.263 195.111 436.053C197.066 436.828 199.074 436.722 201.134 435.722C203.142 434.759 204.616 433.179 205.563 430.998C206.496 428.839 206.623 426.717 205.947 424.619C205.247 422.482 203.931 420.993 202.006 420.158C200.029 419.338 198.006 419.405 195.938 420.361L195.931 420.353Z" fill="#FFD154"/>
<path d="M289.435 42.5177C286.435 41.4645 282.239 40.8251 276.847 40.5994C270.899 40.3737 266.2 40.6822 262.756 41.5172C260.425 42.0738 256.943 43.3527 252.334 45.3537C244.777 48.5809 239.438 51.6651 236.325 54.6139C231.212 59.5638 228.181 66.0708 227.234 74.135C226.512 80.6947 227.264 87.9539 229.482 95.9053C230.595 99.7418 231.874 102.856 233.317 105.248C235.543 108.972 239.235 112.59 244.408 116.096C249.522 119.541 255.056 122.377 261.004 124.604C264.004 125.657 266.23 126.492 267.674 127.109C270.117 128.162 272.118 129.336 273.674 130.614C277.065 133.45 278.93 137.151 279.261 141.71L304.692 138.543C304.767 138.445 304.827 138.333 304.857 138.212C305.023 137.821 305.023 136.881 304.857 135.376C304.579 133.819 304.444 131.457 304.444 128.282C304.331 125.003 304.609 122.528 305.278 120.858C305.722 119.692 307.06 117.743 309.279 115.02C311.226 112.628 313.001 110.236 314.617 107.844C318.843 101.562 321.483 95.7172 322.535 90.3235C322.814 88.9921 323.009 87.4349 323.122 85.652C323.227 83.3125 323.054 80.8677 322.618 78.31C321.573 74.6992 319.904 71.0808 317.618 67.4625C313.896 61.5121 308.361 55.5919 301.022 49.6942C296.856 46.1887 292.991 43.7965 289.435 42.5177Z" fill="#FFDB59"/>
<path d="M304.775 64.4534C302.053 60.9478 298.549 57.9463 294.27 55.4413C287.818 51.8832 281.901 50.6871 276.509 51.8531C275.396 52.0787 274.592 52.4925 274.088 53.1018L273.253 54.7718C272.584 55.6595 272.201 56.3591 272.088 56.8556C271.862 57.9689 272.697 59.1048 274.592 60.2783L278.344 62.2793C280.126 62.9488 281.404 63.5281 282.179 64.0321C283.623 65.3109 284.705 66.2588 285.427 66.8681C287.097 68.0943 288.315 68.9819 289.097 69.5386C290.54 70.6519 291.623 71.7051 292.345 72.7056C292.789 73.3149 293.232 74.18 293.676 75.2934C294.285 76.9032 294.646 77.8209 294.759 78.0466C295.368 79.3781 295.729 80.2733 295.842 80.7171C296.007 81.7176 296.173 82.4398 296.345 82.8836C296.511 83.6058 296.932 84.4408 297.594 85.3886C298.707 86.9985 299.872 88.0892 301.098 88.6384C303.158 89.4132 305.098 89.165 306.933 87.8861C308.489 86.7201 309.519 85.02 310.016 82.8009C310.241 81.3565 310.129 79.1825 309.685 76.2939C309.459 74.4057 309.159 72.8485 308.768 71.6224C307.993 69.0647 306.655 66.6725 304.767 64.4458L304.775 64.4534Z" fill="white"/>
<path d="M281.93 161.968C282.043 163.3 282.321 164.248 282.765 164.804C283.487 165.639 284.765 166.166 286.6 166.392C292.548 167.166 297.826 167.061 302.443 166.061C303.443 165.835 304.195 165.647 304.691 165.474C305.301 165.195 306.165 164.722 307.278 164.052C308.278 163.382 308.865 162.803 309.03 162.299C309.083 162.186 309.166 162.051 309.278 161.886C306.165 162.051 302.556 162.111 298.435 162.051C291.6 161.938 286.096 161.855 281.923 161.803V161.968M308.271 150.955L304.849 151.956C301.902 152.904 299.488 153.596 297.593 154.039C294.871 154.649 292.232 155.04 289.675 155.205C287.397 155.431 284.532 155.454 281.088 155.288C281.141 155.679 281.201 156.153 281.253 156.71L281.584 159.298C285.088 159.185 290.593 159.132 298.097 159.132C302.263 159.185 306.015 159.162 309.354 159.049C309.354 157.883 309.301 156.988 309.188 156.379C309.188 155.77 309.105 155.153 308.94 154.543C308.714 153.265 308.496 152.069 308.271 150.955ZM295.849 151.873C297.353 151.595 300.21 150.842 304.436 149.624L307.774 148.623C307.609 147.848 307.444 147.119 307.271 146.457C306.94 144.952 306.466 144.034 305.849 143.703C305.406 143.372 304.684 143.199 303.684 143.199C301.684 143.252 299.541 143.508 297.262 143.952C292.427 145.178 288.788 145.953 286.337 146.284C284.78 146.509 283.75 146.697 283.254 146.87C282.201 147.374 281.471 148.067 281.088 148.954C280.923 149.398 280.84 149.985 280.84 150.707V153.039C284.231 152.986 286.374 152.926 287.261 152.873C290.54 152.708 293.405 152.369 295.849 151.873Z" fill="#98CECF"/>
<path d="M204.134 102.826C203.743 101.382 202.691 100.599 200.969 100.494C199.969 100.494 198.66 100.825 197.051 101.494L187.298 106.414C185.907 107.249 184.967 107.859 184.464 108.25C183.516 109.137 183.133 110.138 183.298 111.251C183.524 112.086 183.99 112.756 184.719 113.252C185.388 113.696 186.193 113.922 187.141 113.922C188.366 113.869 189.893 113.312 191.727 112.252L200.397 107.663C201.676 107.054 202.593 106.414 203.149 105.745C204.037 104.857 204.375 103.879 204.149 102.826M239.423 145.87C238.649 146.036 238.002 146.562 237.506 147.457C237.34 147.736 236.979 148.571 236.423 149.962C236.257 150.406 235.701 151.437 234.754 153.047C233.701 154.829 232.197 158.222 230.249 163.225C229.302 165.73 229.302 167.505 230.249 168.566C230.919 169.235 231.776 169.483 232.836 169.318C233.889 169.152 234.754 168.678 235.423 167.896C235.979 167.227 236.536 166.173 237.092 164.729L241.762 153.054C242.536 151.166 242.844 149.661 242.679 148.548C242.566 147.773 242.175 147.104 241.514 146.547C240.844 145.938 240.153 145.712 239.431 145.878M199.074 38.3501C197.63 38.9594 196.961 40.1329 197.074 41.8556C197.186 43.6385 198.578 45.3837 201.239 47.1139C205.856 50.0627 210.052 52.0637 213.827 53.1169C215.714 53.5607 217.136 53.6435 218.083 53.3651C218.805 53.1996 219.391 52.8385 219.835 52.2819C220.391 51.6726 220.64 51.0331 220.587 50.3636C220.587 48.9193 219.309 47.6931 216.752 46.6926C211.752 44.6314 208.278 42.826 206.33 41.2689C204.774 39.9374 203.691 39.1024 203.082 38.7638C201.578 37.9288 200.247 37.7934 199.081 38.3501M261.831 0.639499C261.162 0.0828292 260.327 -0.112757 259.327 0.052739C258.327 0.165577 257.605 0.609409 257.161 1.38423C256.658 2.33207 256.635 3.82906 257.079 5.89025L259.831 17.9038C260.056 18.7914 260.335 19.491 260.666 19.9875C261.109 20.4915 261.666 20.8225 262.335 20.988C263.057 21.1009 263.696 20.988 264.252 20.657C265.478 20.1004 266.14 19.0472 266.252 17.49C266.305 16.7152 266.2 15.82 265.922 14.8195L263.335 3.88925C262.891 2.27942 262.387 1.18865 261.831 0.639499ZM348.297 133.187C348.523 132.187 348.244 131.239 347.462 130.351C347.131 130.02 346.349 129.403 345.131 128.516L336.792 123.43C335.236 122.482 334.01 122.069 333.123 122.182C332.01 122.294 331.205 122.821 330.702 123.769C330.145 124.769 330.145 125.77 330.702 126.77C331.093 127.545 332.205 128.358 334.04 129.193C334.988 129.697 337.183 131.058 340.627 133.277C342.409 134.443 343.74 135.083 344.628 135.196C345.402 135.308 346.154 135.165 346.876 134.782C347.598 134.391 348.071 133.864 348.297 133.195M357.636 73.9694C353.801 74.9173 350.079 75.5567 346.462 75.8877C344.237 76.0005 342.793 76.5271 342.124 77.4749C341.733 78.0843 341.65 78.7839 341.875 79.5587C342.101 80.2809 342.515 80.8074 343.124 81.146C343.733 81.4243 344.485 81.507 345.372 81.3942L350.793 81.2287C354.298 80.8375 357.185 80.341 359.463 79.7242C360.854 79.4458 361.907 79.002 362.629 78.3927C363.742 77.4448 364.133 76.4218 363.795 75.3084C363.464 74.1424 362.546 73.503 361.042 73.3902C360.208 73.3375 359.072 73.5256 357.621 73.9769M328.769 36.6049C327.1 37.7709 326.07 38.7488 325.686 39.5236C325.295 40.1931 325.13 40.8852 325.182 41.6074C325.235 42.4424 325.573 43.0291 326.182 43.3601C327.295 44.0823 328.792 43.6911 330.686 42.1941C336.469 37.5753 340.83 33.0994 343.778 28.7664C345.003 27.0437 345.47 25.5994 345.199 24.4258C344.973 23.5382 344.394 22.8687 343.447 22.4248C342.5 22.0337 341.642 22.0337 340.86 22.4248C340.251 22.7558 339.717 23.3125 339.274 24.0948C338.77 25.0953 338.386 25.8175 338.108 26.2613C337.552 27.3145 336.356 28.8717 334.521 30.9329C332.296 33.4905 330.378 35.3787 328.769 36.6049Z" fill="#FFC859"/>
<path d="M449.742 185.935C448.238 185.424 446.696 184.859 445.11 184.25C444.185 184.1 443.35 183.957 442.606 183.814C437.628 182.874 433.507 181.226 430.244 178.856C426.191 183.836 423.544 189.749 422.311 196.572C421.123 203.154 421.341 209.714 422.973 216.259C423.897 220.118 425.228 223.45 426.965 226.249C430.8 232.282 436.944 236.682 445.381 239.458C447.321 240.083 451.035 241.023 456.517 242.294C461.179 243.377 464.841 244.453 467.503 245.521C471.323 247.146 474.518 249.29 477.105 251.968C479.962 254.985 481.579 258.287 481.963 261.89C482.444 266.464 481.023 270.579 477.707 274.235C474.751 277.492 470.864 279.569 466.059 280.471C468.909 281.186 471.871 281.05 474.947 280.057C477.842 279.057 480.346 277.432 482.474 275.175C486.482 270.85 488.467 265.313 488.422 258.55C488.369 256.091 488.023 254.044 487.377 252.397C486.602 250.501 484.835 248.23 482.09 245.604C479.338 242.971 477.383 240.97 476.225 239.594C474.21 237.284 472.684 235.012 471.638 232.778C470.119 229.498 469.375 225.654 469.405 221.224C469.368 217.996 469.789 213.987 470.661 209.202C471.383 205.11 472.278 201.65 473.353 198.806C474.022 197.023 475.36 194.586 477.361 191.479C474.278 191.412 472.074 191.306 470.736 191.156C469.007 190.885 466.841 190.411 464.239 189.742L457.991 188.252C454.306 187.297 451.554 186.522 449.734 185.92L449.742 185.935Z" fill="#FFE8AF"/>
<path d="M429.718 126.454C430.447 124.07 430.395 122.43 429.56 121.55C428.748 120.549 427.214 120.248 424.973 120.647C420.89 121.399 416.672 123.22 412.31 126.108C409.581 127.891 405.866 130.772 401.174 134.759C396.79 138.596 393.835 141.447 392.301 143.29C389.256 146.863 387.241 150.414 386.241 153.942C385.895 155.221 385.797 156.214 385.947 156.943C386.113 158.132 386.654 158.922 387.586 159.305C387.729 159.381 387.887 159.426 388.068 159.433C388.211 159.922 388.572 160.261 389.151 160.449C389.594 160.562 390.263 160.547 391.166 160.404C392.354 160.238 393.978 160.163 396.038 160.163C398.242 160.246 399.603 160.268 400.121 160.238L402.528 159.997L404.43 160.163C406.513 160.043 408.062 160.012 409.085 160.073C409.867 160.14 411.13 160.434 412.859 160.938C414.416 161.434 415.641 161.705 416.536 161.743C416.965 161.795 417.378 161.795 417.77 161.743C418.702 162.54 419.544 162.593 420.289 161.908C420.604 161.585 420.777 161.036 420.792 160.261C421.244 155.657 421.935 151.572 422.868 148.006L429.71 126.447M525.831 146.494C524.779 144.441 523.718 143.004 522.666 142.184C521.921 141.627 521.094 141.304 520.184 141.214C519.147 141.093 518.289 141.281 517.605 141.77C516.808 142.289 516.086 143.561 515.424 145.569L513.154 152.49C511.65 157.334 510.311 161.103 509.131 163.796C507.679 166.978 505.634 170.446 502.995 174.2C502.077 175.524 499.679 178.796 495.814 184.017C495.197 184.957 494.934 185.679 495.017 186.183C495.152 186.853 495.686 187.402 496.633 187.838C497.37 188.154 499.566 188.831 503.213 189.854C506.1 190.682 510.469 192.585 516.319 195.572L526.523 200.702C528.576 201.71 530.08 201.928 531.035 201.356C531.884 200.822 532.418 199.604 532.644 197.716C532.967 195.331 533.133 193.217 533.14 191.389C533.26 187.056 532.885 181.188 532.012 173.779L531.456 168.107C530.832 163.225 530.426 160.358 530.253 159.531C529.396 155.063 527.922 150.715 525.831 146.479M511.627 30.2257C511.296 30.0828 511.026 29.985 510.838 29.9248C503.679 31.2563 496.506 34.16 489.302 38.6209C483.256 42.4047 477.06 47.6179 470.706 54.2528C469.804 55.2157 468.917 56.1485 468.059 57.0361C466.18 59.7518 464.315 62.49 462.457 65.2583L462.48 65.341C462.375 65.3711 462.33 65.4388 462.36 65.5517C462.112 65.9203 461.871 66.3114 461.638 66.7327C459.517 70.0426 457.495 73.4804 455.562 77.0311C461.202 81.1384 464.804 83.7563 466.368 84.9072C470.556 87.8335 474.511 90.1504 478.233 91.8581C480.557 92.7833 484.226 93.9794 489.227 95.4388L526.486 106.903C527.38 102.405 528.23 98.3425 529.012 94.7016C530.757 83.2522 530.569 71.848 528.456 60.4965C526.335 50.1454 522.869 40.7723 518.064 32.3696C517.425 31.7829 516.59 31.3165 515.545 30.9704C514.642 30.6996 513.334 30.4514 511.627 30.2332V30.2257Z" fill="#FF6363"/>
<path d="M453.585 83.4328C453.502 83.3425 453.427 83.2974 453.374 83.3124C450.006 89.4584 446.862 96.003 443.96 102.954C436.734 119.97 430.575 139.476 425.485 161.479C424.755 163.864 424.62 165.79 425.094 167.242C425.545 168.821 427.177 170.326 430.004 171.763C445.674 179.661 462.112 184.784 479.316 187.124C481.971 187.545 484.054 187.425 485.565 186.755C487.227 185.988 489.332 183.972 491.881 180.715C496.205 173.771 500.453 165.639 504.627 156.326C507.048 150.572 510.499 141.906 514.973 130.328C517.335 123.528 519.259 118.187 520.733 114.29C520.936 113.764 521.117 113.267 521.282 112.808L490.686 103.33C483.632 101.096 478.79 99.3881 476.158 98.192C468.977 94.8821 461.45 89.9548 453.592 83.4253M464.841 131.005C464.653 130.351 464.503 129.599 464.375 128.756C463.533 125.168 463.435 122.46 464.089 120.624C464.488 118.924 465.42 117.45 466.894 116.201C468.669 114.162 470.902 112.906 473.594 112.44C476.158 111.943 478.497 112.395 480.602 113.801C482.497 115.088 483.941 117.059 484.933 119.722C485.73 122.317 485.828 125.033 485.219 127.854C484.911 128.824 484.527 129.757 484.076 130.652L483.933 130.78C483.377 131.525 482.745 132.179 482.016 132.736C480.662 133.766 478.331 134.466 475.015 134.819L471.729 135.053L470.263 134.849C469.503 134.654 468.646 134.248 467.706 133.631C466.593 132.826 465.638 131.953 464.841 131.005ZM472.368 156.507C472.985 158.688 473.173 160.87 472.91 163.067C472.376 165.338 471.549 167.166 470.406 168.551C469.488 169.047 468.293 169.506 466.826 169.927C464.458 170.484 462.555 170.732 461.119 170.672C458.991 170.634 457.179 170.055 455.683 168.949C455.457 168.776 454.577 167.971 453.051 166.519C452.728 166.204 452.442 165.925 452.201 165.7C452.156 165.534 452.118 165.399 452.088 165.293C451.9 164.639 451.81 164.014 451.825 163.428C451.133 159.975 451.133 157.47 451.81 155.928C452.374 154.175 453.705 152.648 455.803 151.346C458.548 149.21 461.225 148.27 463.834 148.526C465.729 148.571 467.526 149.391 469.21 150.97C470.564 152.407 471.616 154.258 472.376 156.514L472.368 156.507Z" fill="#FFD863"/>
<path d="M472.902 163.082C473.158 160.885 472.977 158.703 472.361 156.522C471.601 154.265 470.541 152.415 469.195 150.978C467.511 149.398 465.721 148.586 463.818 148.533C461.217 148.277 458.54 149.21 455.788 151.354C453.69 152.655 452.359 154.19 451.795 155.935C451.118 157.485 451.126 159.982 451.81 163.435C451.802 164.029 451.893 164.646 452.073 165.301C452.103 165.406 452.141 165.549 452.186 165.707C452.427 165.933 452.712 166.203 453.036 166.527C454.57 167.979 455.442 168.784 455.667 168.957C457.156 170.062 458.968 170.634 461.104 170.679C462.533 170.74 464.435 170.499 466.811 169.935C468.278 169.513 469.473 169.054 470.39 168.558C471.526 167.174 472.361 165.346 472.894 163.074M464.36 128.764C464.48 129.614 464.638 130.366 464.826 131.013C465.623 131.961 466.586 132.841 467.691 133.638C468.631 134.255 469.481 134.661 470.248 134.857L471.714 135.06L475 134.827C478.316 134.473 480.647 133.774 482 132.743C482.722 132.186 483.361 131.532 483.918 130.787L484.061 130.659C484.512 129.764 484.895 128.831 485.204 127.861C485.813 125.04 485.715 122.324 484.918 119.729C483.925 117.066 482.482 115.095 480.587 113.809C478.481 112.41 476.143 111.951 473.579 112.447C470.887 112.921 468.653 114.177 466.879 116.208C465.405 117.45 464.473 118.924 464.074 120.632C463.42 122.467 463.518 125.175 464.36 128.764Z" fill="white"/>
<path d="M84.59 107.392C84.2516 107.46 83.9132 107.528 83.5749 107.595C82.6425 107.573 81.7928 107.49 81.0333 107.339C80.9656 107.189 80.8904 107.039 80.8228 106.888C80.537 106.286 80.3114 105.858 80.1535 105.609C79.958 105.286 79.755 105.06 79.552 104.925L79.582 104.842L79.2888 104.082C79.0933 103.571 78.8903 103.187 78.6722 102.916L73.4913 105.572C72.6416 106.023 71.9348 106.422 71.3633 106.783C69.4383 107.783 67.5735 108.964 65.7688 110.326C65.6185 110.394 65.4831 110.506 65.3703 110.649C65.6335 111.492 65.814 112.222 65.9117 112.816C65.9493 112.891 66.0019 113.004 66.0696 113.154L66.1824 113.102C66.2877 113.515 66.5283 113.974 66.9043 114.493C67.5058 115.276 67.9044 115.825 68.0999 116.148C68.2051 116.374 68.2954 116.562 68.3706 116.713C67.2201 117.991 66.1824 119.406 65.25 120.955C65.1372 120.918 65.047 120.91 64.9718 120.955C64.7988 121.083 64.5733 121.189 64.295 121.279C63.7837 121.474 63.2348 121.527 62.6408 121.437C61.1294 121.271 59.7533 120.842 58.4976 120.143C57.7381 120.685 57.0689 121.76 56.4899 123.378L53.9483 130.464C54.3543 130.547 54.8882 130.644 55.5349 130.75C56.5575 130.863 57.2869 131.028 57.708 131.246C58.3321 131.6 58.7683 132.224 59.0089 133.127C59.3773 133.322 59.6179 133.533 59.7232 133.759C60.039 133.932 60.2345 134.165 60.3248 134.443C60.43 134.669 60.4752 134.902 60.4526 135.143C60.5052 135.165 60.5654 135.18 60.618 135.203C60.5052 136.226 60.4 137.287 60.3248 138.393C60.2571 138.934 60.2421 139.491 60.2872 140.07C60.3248 140.145 60.3549 140.221 60.3924 140.296C60.618 141.063 60.3323 141.778 59.5352 142.432C59.0239 142.816 58.2795 143.139 57.302 143.418L53.7829 144.32C53.2565 144.381 52.9632 144.591 52.9031 144.945C52.8429 145.11 52.8505 145.268 52.9181 145.419C53.0234 145.832 53.4896 146.976 54.3243 148.841C55.2792 151.256 56.0086 152.986 56.5049 154.047C57.3922 156.123 58.3096 157.763 59.2495 158.982C59.5052 159.32 59.7383 159.531 59.9638 159.614C60.3323 159.809 60.8737 159.689 61.5956 159.26L63.9717 158.139C64.9943 157.568 65.7914 157.349 66.3629 157.492C66.4155 157.515 66.4982 157.545 66.611 157.583C67.002 157.726 67.2953 157.861 67.4983 157.996C67.6487 157.929 67.769 157.846 67.8668 157.756C68.8518 158.673 69.9346 159.591 71.1076 160.516C72.2581 161.494 73.3935 162.367 74.4914 163.142C74.7922 163.187 75.0328 163.3 75.2133 163.495C75.2509 163.571 75.2809 163.646 75.3185 163.721C75.484 163.781 75.6419 163.872 75.7922 163.984L75.6043 164.767C75.5667 164.88 75.5516 165 75.5667 165.128C75.3486 167.309 75.1757 168.942 75.0403 170.017C77.2886 171.266 80.2813 172.176 84.026 172.771C86.0563 173.057 89.1468 173.448 93.2975 173.929C93.2073 172.959 93.2223 172.116 93.3501 171.409C93.4178 170.868 93.5381 170.439 93.7111 170.13L93.6584 170.017C93.2825 169.13 93.6283 168.347 94.6886 167.663C95.0871 167.43 95.9443 167.136 97.2527 166.798C99.501 166.286 101.674 165.308 103.757 163.864C104.516 164.195 105.344 164.774 106.238 165.602C106.697 166.076 107.404 166.805 108.374 167.776C108.705 168.084 109.336 168.588 110.269 169.303C110.419 169.235 110.652 169.1 110.976 168.897C111.073 168.806 111.194 168.724 111.344 168.656C114.134 165.767 116.074 163.676 117.172 162.375C119.3 159.937 120.984 157.598 122.232 155.341C121.104 154.814 120.277 154.235 119.751 153.603C119.382 153.22 119.172 152.768 119.112 152.242C118.578 151.798 118.232 151.459 118.074 151.211C118.691 150.369 119.39 148.856 120.164 146.69C120.488 145.614 120.728 144.757 120.894 144.132C120.954 143.779 121.059 143.312 121.202 142.741C121.165 142.665 121.134 142.59 121.097 142.515C120.758 141.703 120.623 140.687 120.691 139.453C120.706 138.897 120.721 138.054 120.743 136.933C120.796 136.956 120.864 136.948 120.939 136.911C122.856 136.279 124.037 135.263 124.481 133.849C124.744 132.939 124.616 131.637 124.09 129.945L121.924 122.866C121.398 121.362 120.834 120.406 120.225 120C119.51 119.556 118.277 119.488 116.533 119.804L114.984 120.188C114.826 119.752 114.66 119.353 114.48 118.969C113.803 117.344 113.059 116.013 112.246 114.967C111.555 114.095 110.502 113.184 109.088 112.237C109.058 111.973 109.028 111.71 108.991 111.447C108.81 111.259 108.615 111.093 108.412 110.958C108.457 110.657 108.539 110.341 108.66 110.01C108.87 109.769 109.216 109.333 109.697 108.686C109.833 108.483 109.961 108.31 110.073 108.159C110.269 107.791 110.404 107.497 110.487 107.272C106.87 105.474 103.14 103.977 99.3055 102.788C98.5085 102.563 97.8919 102.533 97.4633 102.691C97.1625 102.833 96.8467 103.285 96.5083 104.045C96.8316 104.541 96.8993 105.06 96.6963 105.617C96.576 106.136 96.1398 106.55 95.4105 106.851C95.2601 106.918 94.6585 107.024 93.6133 107.144L86.4398 107.49C85.748 107.49 85.1314 107.46 84.5975 107.392M84.7554 129.275C86.2668 128.373 87.5827 127.778 88.6881 127.485C91.2823 126.718 93.8464 127.079 96.3955 128.553C98.7566 129.839 100.464 131.803 101.531 134.436C102.11 135.963 102.426 137.55 102.464 139.19C102.449 140.815 102.185 142.161 101.674 143.237C101.17 143.937 100.554 144.621 99.8093 145.298C99.1551 146.066 98.3355 146.871 97.3505 147.706C96.6436 148.458 96.0722 148.909 95.6436 149.067C94.9442 149.443 93.9066 149.639 92.523 149.639C91.1394 149.639 89.7634 149.466 88.3873 149.097C87.3496 148.849 86.327 148.548 85.3269 148.187C84.3644 147.901 83.5673 147.585 82.9432 147.239C81.6724 146.404 80.6423 145.095 79.8377 143.305C79.5896 142.59 79.4317 141.906 79.3489 141.251C78.9203 139.656 78.8 138.325 78.988 137.264C79.1309 136.685 79.4016 135.842 79.8001 134.737C80.2513 133.646 80.5445 132.999 80.6799 132.796C81.4168 131.615 82.7778 130.441 84.7629 129.275H84.7554Z" fill="#86BFC3"/>
<path d="M103.284 175.712C102.306 175.11 101.524 174.922 100.945 175.155C100.892 175.17 100.825 175.178 100.75 175.178C100.539 174.93 100.276 174.802 99.945 174.794L99.1254 175.253C97.9975 176.291 96.7869 177.931 95.486 180.158L94.0273 182.648C93.8543 182.821 93.6663 182.979 93.4859 183.114C90.2675 181.354 86.5229 179.977 82.2669 178.999C78.5598 178.142 74.6647 177.72 70.5892 177.728L69.1154 171.086C68.9499 170.145 68.762 169.453 68.5439 169.002C68.1905 168.25 67.6792 167.753 67.0099 167.512C66.4535 167.317 65.6865 167.354 64.709 167.633C64.4082 167.715 64.0999 167.791 63.7766 167.866C63.4683 167.896 63.1374 167.934 62.7915 167.986C61.9193 168.144 60.8214 168.408 59.498 168.784C58.701 168.904 57.8513 169.1 56.9339 169.37C51.6552 170.8 46.6548 172.425 41.9251 174.245C41.4514 174.396 41.0228 174.553 40.6242 174.719L39.8723 175.765C39.7144 176.028 39.5565 176.284 39.4061 176.539L42.459 186.665C42.0078 186.966 41.6018 187.229 41.2408 187.447C38.0451 189.493 35.0072 192.194 32.1273 195.564C31.7889 195.338 31.4054 195.105 30.9693 194.864C29.0368 193.796 27.2923 192.608 25.7583 191.299C24.5101 190.223 23.5326 189.561 22.8032 189.298C21.4647 188.696 20.3594 188.801 19.4946 189.614C19.3217 189.614 19.1262 189.644 18.9081 189.681C18.4194 189.817 17.9832 190.419 17.6073 191.472C17.5847 191.524 16.938 192.547 15.6597 194.541C15.2161 195.256 14.6296 196.459 13.9002 198.144C13.7347 198.475 13.5919 198.806 13.4565 199.115C12.8324 200.123 12.1933 201.213 11.5391 202.379L10.7195 203.876C10.6217 204.072 10.5239 204.26 10.4262 204.433L9.22309 206.735L9.16293 206.901C8.61401 208.112 8.2982 209.097 8.20045 209.849C8.19293 209.925 8.17037 209.977 8.14029 210.015C7.15524 212.031 6.95974 213.716 7.55377 215.07C7.94478 215.897 9.1103 216.853 11.0428 217.921L16.5545 220.652C15.8327 222.841 15.2913 224.962 14.9303 227.031C14.6145 228.611 14.2912 230.566 13.9603 232.891H13.6821C13.6972 233.019 13.7122 233.147 13.7272 233.275C13.7573 233.726 13.6896 234.11 13.5092 234.418C10.0728 235.072 8.20045 235.403 7.88463 235.411C7.23044 235.486 6.26795 235.554 4.99717 235.599C3.87677 235.757 2.94436 235.99 2.20746 236.291C1.89164 236.404 1.59838 236.524 1.3352 236.637L0.914114 236.765V237.043C0.726129 237.269 0.56822 237.532 0.44039 237.818C0.162171 238.413 0.0944961 239.135 0.222326 240L3.88429 255.233C4.7791 258.686 5.65136 261.228 6.51609 262.853C7.00485 263.591 7.37331 264.042 7.63649 264.192C8.04254 264.463 8.68921 264.568 9.59154 264.516C9.98255 264.501 10.4112 264.433 10.8849 264.32C11.5165 264.38 12.2384 264.358 13.073 264.26C14.3062 264.095 15.4116 263.891 16.3891 263.658C16.72 264.245 17.0358 264.772 17.3366 265.223L18.6525 267.856C19.051 268.503 20.0962 269.94 21.8031 272.181C25.2094 276.356 28.1119 279.283 30.5106 280.945C30.3677 281.118 30.2399 281.291 30.1346 281.472L26.4877 286.655C26.1193 287.339 25.9237 287.798 25.8937 288.039C25.826 288.58 26.202 289.182 27.0291 289.859C30.7738 293.395 34.15 296.141 37.1503 298.096C39.0452 299.278 40.7671 300.24 42.3236 300.985C47.4895 303.716 52.9335 305.762 58.6483 307.124C59.5958 307.274 60.1372 307.342 60.265 307.327C60.9417 307.191 61.3704 306.875 61.5433 306.371C62.5659 305.807 63.5209 304.453 64.4082 302.317L66.3332 297.735C67.228 297.803 68.213 297.841 69.2958 297.856L82.1691 298.142C85.207 297.908 87.944 297.442 90.3728 296.757C90.7638 297.164 91.1924 297.63 91.6586 298.157L92.9971 299.669C93.0196 299.759 93.0572 299.834 93.1024 299.894C93.3731 300.368 93.719 301.06 94.1476 301.963C94.5987 302.813 95.0649 303.422 95.5612 303.791C96.3508 304.385 97.3884 304.634 98.6818 304.536C99.5992 304.423 100.659 304.084 101.87 303.513C104.585 302.414 106.743 301.369 108.352 300.383C111.984 298.3 116.661 294.335 122.391 288.483L125.398 285.331C126.143 284.654 126.504 283.999 126.481 283.367L126.511 283.285L121.639 278.244C121.27 277.861 121.045 277.53 120.962 277.251C120.932 277.169 120.902 277.063 120.887 276.943C123.947 272.888 126.391 268.089 128.211 262.537L129.707 259.408C129.752 259.22 129.79 259.017 129.835 258.791L130.271 256.783C130.256 256.467 130.361 256.188 130.572 255.948C130.835 255.729 131.241 255.654 131.782 255.722C132.376 255.812 133.504 256.091 135.151 256.557C136.482 256.978 137.572 257.174 138.414 257.159L139.76 255.76C139.881 255.413 139.963 255 140.009 254.533L142.099 238.728C142.49 234.854 142.904 230.642 143.332 226.091C143.37 225.797 143.385 225.489 143.377 225.165L143.31 224.579C143.317 224.315 143.347 223.984 143.385 223.571C139.783 222.547 136.083 222.036 132.271 222.036C132.151 222.036 132.03 222.021 131.91 221.998C131.67 220.246 131.361 218.568 130.985 216.966C129.286 209.202 126.158 202.718 121.593 197.512C121.849 197.151 122.12 196.745 122.406 196.301L125.278 191.69C125.323 191.645 125.368 191.592 125.421 191.554C125.654 191.299 125.782 191.035 125.804 190.75C125.887 190.614 125.932 190.471 125.955 190.336C126.015 189.982 125.88 189.681 125.526 189.433C125.451 189.335 125.353 189.245 125.255 189.147C124.97 188.809 124.586 188.478 124.105 188.169C122.21 186.8 119.887 185.341 117.119 183.784L103.269 175.712M94.11 235.93C94.5311 238.962 94.4634 241.948 93.9069 244.889C93.2979 247.808 92.2226 250.118 90.6736 251.818C89.6209 252.818 88.2824 253.849 86.6582 254.894C85.2145 255.948 83.3722 257.068 81.1239 258.272C79.6125 259.175 78.4094 259.716 77.5296 259.897C76.0859 260.258 74.1384 260.183 71.6795 259.679C69.1906 259.1 66.7768 258.234 64.4308 257.076C62.6787 256.196 60.9643 255.203 59.2875 254.105C57.6633 253.209 56.385 252.314 55.4526 251.411C53.4599 249.441 52.144 246.65 51.4973 243.031C51.2868 241.7 51.1815 240.414 51.189 239.157C51.1439 236.133 51.5199 233.696 52.3019 231.845C52.738 230.807 53.5877 229.393 54.8585 227.588C56.1143 225.842 56.8888 224.804 57.1971 224.473C58.9717 222.668 61.9118 221.111 66.0098 219.824C69.0778 218.794 71.6569 218.245 73.7473 218.177C78.7553 217.838 83.2444 219.478 87.2146 223.097C90.9668 226.452 93.2603 230.717 94.0949 235.915L94.11 235.93Z" fill="#6BA3A7"/>
</g>
<defs>
<clipPath id="clip0_425_9308">
<rect width="533" height="556" fill="white" transform="translate(0.169922)"/>
</clipPath>
</defs>
</svg>
